<svg id="Layer_1" data-name="Layer 1" xmlns="http://www.w3.org/2000/svg" viewBox="0 0 62.17 90.73"><defs><style>.cls-1{fill:#f60;}</style></defs><path class="cls-1" d="M47.83,34.92h0l-1-1.79L34.06,10,31.44,5.3l-.3-.67H29.6l-.31.67L26.67,10l-.32.58,0,0,3,5.42L19.9,33.13l-1,1.79h0V50.18L27,42V34.92h0l.34-.62,6.08-11,0,.1,6,10.88.34.62L18.93,56v9.13h6.41V57.41l2.87-2.87,10.2,10.2.36.35.55,20.29c-2,2-4.41,3.58-7.65,3.58A21.41,21.41,0,0,1,25.34,88V81.29H18.93v10l.51.36a19.83,19.83,0,0,0,5.35,2.66,22.3,22.3,0,0,0,6.88,1.07,21.5,21.5,0,0,0,10.6-2.7,17.22,17.22,0,0,0,5.35-4.62l.21-.29V65.08h0l-2-2-13-13,13-13Z" transform="translate(-18.92 -4.63)"/><path class="cls-1" d="M69.25,65.54v-29a15,15,0,0,0,5.9-2.7,16.49,16.49,0,0,0,2-1.77,9.53,9.53,0,0,0,2.51-6.5V6.73H73.22V23.27a7.23,7.23,0,0,1-6.91,7.23h-.53a7.23,7.23,0,0,1-6.91-7.23V6.73H52.46V25.58A9.5,9.5,0,0,0,55,32.07a14.62,14.62,0,0,0,2,1.79,14.77,14.77,0,0,0,5.89,2.7v29a15,15,0,1,0,6.41,0ZM66.05,89a8.76,8.76,0,1,1,8.76-8.76A8.77,8.77,0,0,1,66.05,89Z" transform="translate(-18.92 -4.63)"/></svg>