<svg id="Layer_1" data-name="Layer 1" xmlns="http://www.w3.org/2000/svg" viewBox="0 0 279.97 72.48"><defs><style>.cls-1{fill:#ebf6fa;}</style></defs><path class="cls-1" d="M26.77,33c-2.1,0-2.11,3.45,0,3.45S28.87,33,26.77,33Z" transform="translate(-8.96 -3.89)"/><path class="cls-1" d="M50.75,45.24a5.87,5.87,0,0,0-4.81-.74c-1.72.33-3.51,1.42-2.52,3.47.68,1.41,1.62,2.82,1.17,4.5s-2.6,2.5-3.45.69c-.09-.2-.38-.06-.33.15a2,2,0,0,0,2.24,1.51A3,3,0,0,0,45.34,52a5.44,5.44,0,0,0-.27-2.33c-.27-.81-1.34-2.18-1.15-3,.38-1.7,4.1-1.55,5.24-1.17,4.72,1.55.65,8.21-1.38,10.34C45,58.7,41.1,61.32,37.24,62A7.82,7.82,0,0,1,31,60.42,5.5,5.5,0,0,1,29,56.17a5.84,5.84,0,0,1,.5-1c1-1.49,2.81-1.81,4-3,1.38-1.39,1.82-4.19-.27-5.12a2.11,2.11,0,0,0-2.05.12c-1.22.84-1,3.29-3,2.92-2.69-.52-1.68-4.16-.74-5.77a21.11,21.11,0,0,1,3.25-3.92c1.86-1.94,3.6-4,4-6.82.91-5.95-5.61-7.5-9.82-5.68a6.57,6.57,0,0,0-4.15,5.88,5.56,5.56,0,0,0,3.35,5.52c.25.09.35-.32.11-.41-2.41-1-3.31-4.07-2.53-6.53.87-2.71,3.62-4.13,6.17-4.32,2.94-.22,6.31,1,6.16,4.65-.12,3-2,5.15-3.88,7.12-1.62,1.68-3.42,3.45-4.16,5.79-.58,1.83-.38,4.26,1.55,5a2.38,2.38,0,0,0,2,0c.95-.49,1-1.54,1.51-2.36A1.62,1.62,0,0,1,33.73,48a2.53,2.53,0,0,1,.13,2.86C33,52.45,31,52.55,29.7,53.63c-1.72,1.46-2.06,3.85-2.14,6.06-.42,3.5-1.72,7.4-4.88,9.1A9.66,9.66,0,0,1,11.6,67c-2.53-2.73-2.58-7.52.6-9.71a7.38,7.38,0,0,1,5.23-1.38C19.86,56.39,19.84,59,19,61a3.67,3.67,0,0,0-.62,2.19,1.91,1.91,0,0,0,1.18,1.25A3.69,3.69,0,0,0,23.9,63c.07-.12-.08-.29-.2-.2a5.14,5.14,0,0,1-3,1.28,1.93,1.93,0,0,1-1.69-.74c-.4-.67.18-1.44.45-2,.67-1.53,1.08-3.54-.07-4.95C17.18,53.6,12,55.72,10.24,58,8,60.85,8.88,65.29,11.33,67.65a10.26,10.26,0,0,0,10.82,1.83C25.53,68,27,64.27,27.54,60.65c-.06,3.68-.05,7.37,0,11.06-1.87.23-1.81,3.42.22,3.42s2.08-2.84.51-3.36c.09-4,.08-8,.24-12a14.7,14.7,0,0,1,.3-2.71,4,4,0,0,0,.1.78,6.15,6.15,0,0,0,3.18,3.81c4,2.14,8.6.24,12.22-2,3.43-2.08,6.79-5.08,7.71-9.33C52.38,48.54,52.28,46.46,50.75,45.24Z" transform="translate(-8.96 -3.89)"/><path class="cls-1" d="M30.34,23.72a10.61,10.61,0,0,0-7,1.15,8.19,8.19,0,0,0-4.55,5.27c-.76,2.72-.13,5.58.83,8.16.11.3.58.18.47-.14a14.3,14.3,0,0,1-.75-7.3,7.53,7.53,0,0,1,4.08-5.25,10,10,0,0,1,6.72-1.24A8.25,8.25,0,0,1,35,27.68c.08.11.25,0,.21-.13A6.44,6.44,0,0,0,30.34,23.72Z" transform="translate(-8.96 -3.89)"/><path class="cls-1" d="M25,19a9.23,9.23,0,0,0-3,1.59A11.94,11.94,0,0,0,19.48,23a9.34,9.34,0,0,0-1.95,6.56c0,.24.38.24.36,0A9,9,0,0,1,20,23.16,13.58,13.58,0,0,1,22.32,21c.88-.66,1.86-1.14,2.75-1.78C25.16,19.1,25.1,18.94,25,19Z" transform="translate(-8.96 -3.89)"/><path class="cls-1" d="M33.91,12.18a6,6,0,0,0-5-3.57c-.12,0-.15.17-.06.23,1.79,1.17,4.66,1.84,4.75,4.58.08,2.35-2.14,4-3.84,5-3.12,1.93-6.83,3.1-9.09,6.27,0,.06.06.14.1.08,2.84-3.74,7.64-4.34,11.08-7.2C33.35,16.34,34.66,14.31,33.91,12.18Z" transform="translate(-8.96 -3.89)"/><path class="cls-1" d="M48.21,12.25A5.89,5.89,0,0,0,42.49,7.9a.2.2,0,0,0-.09.37c1,.7,2.13,1,3.13,1.64a4.22,4.22,0,0,1,2,3.66c0,3.1-2.41,5.24-4.65,6.79-2.52,1.75-5.07,3-8.15,2.3-2.31-.55-4.65-1.76-7-.83-.11,0-.06.22.05.18C31,20.87,34,23.58,37.21,23.4c2.84-.17,5.72-2,7.88-3.81S48.8,15.16,48.21,12.25Z" transform="translate(-8.96 -3.89)"/><path class="cls-1" d="M55.23,16.63c-.25-.1-.42.27-.25.45a16.88,16.88,0,0,1,2.41,2.52,3.8,3.8,0,0,1-.15,4c-1.45,2.4-4.34,3.9-6.84,4.69a15.62,15.62,0,0,1-15-3.35c-.14-.12-.34.08-.2.21a15.94,15.94,0,0,0,17.21,3.15c2.47-1.05,5.37-2.85,6.3-5.66S57.62,17.56,55.23,16.63Z" transform="translate(-8.96 -3.89)"/><ellipse class="cls-1" cx="24.13" cy="23.11" rx="0.14" ry="0.15"/><ellipse class="cls-1" cx="21" cy="22.1" rx="0.14" ry="0.15"/><ellipse class="cls-1" cx="16.78" cy="22.25" rx="0.14" ry="0.15"/><ellipse class="cls-1" cx="13.95" cy="24.02" rx="0.14" ry="0.15"/><ellipse class="cls-1" cx="11.46" cy="27.88" rx="0.14" ry="0.15"/><ellipse class="cls-1" cx="11.32" cy="31.8" rx="0.14" ry="0.15"/><path class="cls-1" d="M41.83,31a15.75,15.75,0,0,0-1.71-.39,5.22,5.22,0,0,1-1.62-.8c-.65-.48-1.76-2-2.55-.87a1.74,1.74,0,0,0-.1,1.57c.21.67.47,1.33.65,2a5,5,0,0,1-.42,4s0,.08.06,0a4.71,4.71,0,0,0,.86-3.1,9.52,9.52,0,0,0-.3-1.85c-.08-.32-.16-.64-.26-1a2.71,2.71,0,0,1-.23-1c0-.32.21-.62.56-.56a1.62,1.62,0,0,1,.69.51,6.83,6.83,0,0,0,1.27,1c.84.5,2.15,1.1,3.1.69A.16.16,0,0,0,41.83,31Z" transform="translate(-8.96 -3.89)"/><path class="cls-1" d="M39.51,18.79a9.13,9.13,0,0,0-2.37-.46,13.7,13.7,0,0,0-2.48,0c-.16,0-.16.29,0,.28a12.73,12.73,0,0,1,2.39,0c.82.06,1.61.23,2.42.37A.08.08,0,0,0,39.51,18.79Z" transform="translate(-8.96 -3.89)"/><path class="cls-1" d="M40.5,16.19A9.87,9.87,0,0,0,38,16.06a19.09,19.09,0,0,0-2.5.26c-.14,0-.08.26.07.23a18.77,18.77,0,0,1,2.48-.25c.81,0,1.62.05,2.43,0A.07.07,0,0,0,40.5,16.19Z" transform="translate(-8.96 -3.89)"/><path class="cls-1" d="M41.7,13.6a13.89,13.89,0,0,0-4.07-.14c-.08,0-.08.15,0,.14a13.42,13.42,0,0,1,4,.07S41.75,13.61,41.7,13.6Z" transform="translate(-8.96 -3.89)"/><path class="cls-1" d="M48.45,26.65a6.34,6.34,0,0,0-1.29-.74c-.47-.22-.94-.42-1.42-.6a19.13,19.13,0,0,0-3-.9.09.09,0,0,0-.05.18,22,22,0,0,1,2.93.9c.49.2,1,.41,1.45.65s.87.48,1.33.65C48.44,26.81,48.51,26.7,48.45,26.65Z" transform="translate(-8.96 -3.89)"/><path class="cls-1" d="M51.82,25.08a4.49,4.49,0,0,0-1.29-1,12.83,12.83,0,0,0-1.48-.75,11.47,11.47,0,0,0-3.2-.85c-.11,0-.11.18,0,.19a11.32,11.32,0,0,1,3.16.91,11,11,0,0,1,1.35.72,15.38,15.38,0,0,0,1.37.9A.08.08,0,0,0,51.82,25.08Z" transform="translate(-8.96 -3.89)"/><path class="cls-1" d="M55.36,22.37a5.2,5.2,0,0,0-1.21-1,14,14,0,0,0-1.42-.77,13.83,13.83,0,0,0-3-1c-.18,0-.26.24-.08.29A13.84,13.84,0,0,1,52.59,21c.92.47,1.75,1.09,2.65,1.59A.11.11,0,0,0,55.36,22.37Z" transform="translate(-8.96 -3.89)"/><path class="cls-1" d="M25.23,6.68c-2.1,0-2.1,3.44,0,3.44S27.34,6.68,25.23,6.68Z" transform="translate(-8.96 -3.89)"/><path class="cls-1" d="M39.42,5.13c-2.1,0-2.1,3.45,0,3.45S41.52,5.13,39.42,5.13Z" transform="translate(-8.96 -3.89)"/><path class="cls-1" d="M52.73,12.39c-2.1,0-2.1,3.45,0,3.45S54.84,12.39,52.73,12.39Z" transform="translate(-8.96 -3.89)"/><path class="cls-1" d="M135.51,46a4.22,4.22,0,0,1-3.9-3.55c-.07-.34-.12-.69-.16-1.05a4,4,0,0,0,.74-.5,5.46,5.46,0,0,0,0-7.86,4.94,4.94,0,0,0-4.69-1,6.09,6.09,0,0,0-1.6.78.3.3,0,0,0-.37.06l-4.14,4c-1.54,1.49-3,3.3-5.2,2.49a15.21,15.21,0,0,1-4-2.65q-2.22-1.8-4.28-3.81l-.41-.43c1.94-1,3.9-1.87,5.85-2.82,2.88-1.4,5.58-3.71,4.85-7.53a9.73,9.73,0,0,0-14.9-6.39c-2.42,1.64-4.67,4.78-4.11,8.06a11,11,0,0,0,2.49,4.71,45.74,45.74,0,0,0,3.55,3.94l-.09,0C102,34.16,98.78,36,96.53,38.93c-.19.26-.37.53-.55.81a7.32,7.32,0,0,1-3.72,1.91,5.09,5.09,0,0,1-2-.1,3.73,3.73,0,0,0,.34-4.29,2.05,2.05,0,0,0-3.85,1.05,3.85,3.85,0,0,0,2.65,3.49c-.76.91-1.77,1.62-2.39,2.55a.15.15,0,0,0-.18.11c0,.07,0,.16-.08.24s-.06,0-.08,0a2.39,2.39,0,0,0-.24.85.78.78,0,0,1,0,.14c-.16.5-.29,1-.41,1.5-.07.23-.14.46-.2.7s-.14.52-.19.79a4.39,4.39,0,0,0,0,.81.17.17,0,0,0,.3.08c.11-.21.25-.41.34-.63s.14-.52.22-.77c.14-.5.28-1,.41-1.51.19-.7.41-1.39.64-2.07a6.19,6.19,0,0,1,.93-1A13.3,13.3,0,0,0,90,42a5.5,5.5,0,0,0,1.41.22,6.38,6.38,0,0,0,4.12-1.64,20.7,20.7,0,0,0-2.39,8c-.31,3-.61,7.63,2.23,9.35a.26.26,0,0,0,.29-.44c-1.77-1.54-1.89-4.06-1.83-6.34a25.66,25.66,0,0,1,.82-6,16.28,16.28,0,0,1,7.69-9.9c1.21-.74,2.45-1.4,3.7-2a50.53,50.53,0,0,0,5.27,4.44,15.21,15.21,0,0,0,4.92,2.8c1.74.43,3-.33,4.32-1.56,1.84-1.77,3.65-3.58,5.47-5.37a.61.61,0,0,0,.07-.1,4.83,4.83,0,0,1,4.68-.27,4.39,4.39,0,0,1,1,6.93,4.12,4.12,0,0,1-.4.33,6.42,6.42,0,0,0-.75-2.52,3.32,3.32,0,0,0-3.45-1.57,2.2,2.2,0,0,0-1.9,2.81,4.47,4.47,0,0,0,5.66,2.51v.06a5.8,5.8,0,0,0,1.45,3.37,3.78,3.78,0,0,0,3.17,1.18C135.65,46.24,135.65,46,135.51,46ZM88.93,41c-.94-.61-2-2-1.51-3.3.56-1.47,2.42-.86,2.9.32a3.62,3.62,0,0,1-.58,3.39A4.4,4.4,0,0,1,88.93,41Zm17.77-9.33c-.88-.93-1.73-1.87-2.55-2.86-1.16-1.4-2.63-2.89-3.22-4.7-1.14-3.5,2.25-6.83,5-7.89a8.06,8.06,0,0,1,8.56,1.87A8.55,8.55,0,0,1,117,22.52a4.84,4.84,0,0,1-2.35,5,32.71,32.71,0,0,1-4.23,2.21C109.15,30.37,107.92,31,106.7,31.65Zm21.55,9.29c-1-.28-3.12-1.68-2.26-3.09s2.8-.87,3.68,0a5,5,0,0,1,1.08,2.86A3.71,3.71,0,0,1,128.25,40.94Z" transform="translate(-8.96 -3.89)"/><path class="cls-1" d="M111.86,69.23a14,14,0,0,1-.67-4.86c.08-1.42.61-2.9.33-4.32-.55-2.7-3.29-2.61-5.29-2.63-1.26,0-4.14-.68-2.91-2.7.92-1.52,3.4-1.12,4.85-1.27a22.65,22.65,0,0,0,4.36-.89,8.32,8.32,0,0,0,3.65-1.78c1.55-1.64.32-3.7-1.35-4.44-2.19-1-4.85-.16-7,.42-1.38.37-8.93,2.22-7.91-1.38.53-1.88,3.24-1.58,4.66-1.63s3.28.2,4.62-.4c2.11-1,.85-3.53-1-3.62-1.38-.07-2.64.84-4,.75-1.18-.09-3.22-1.38-1.62-2.86,1.15-1.06,2.69-.14,3.77.54a.08.08,0,0,0,.09-.14c-.93-.6-2-1.3-3.13-1a1.89,1.89,0,0,0-1.48,1.89c.19,2.4,3.37,1.77,4.71,1.47a4.58,4.58,0,0,1,1.91-.15,1.79,1.79,0,0,1,1.38,1.09c.47,1.51-1.16,1.7-1.86,1.78-1.83.22-3.7,0-5.53.13a3.33,3.33,0,0,0-2.92,1.54,2.17,2.17,0,0,0,.34,2.66c1.77,1.69,5.1.9,7.13.42,2.38-.56,6.71-2.2,8.65.23,2.35,2.93-6.9,4.29-8.37,4.36s-2.82-.09-4,.76A2.89,2.89,0,0,0,102,56.34c1,3.42,5.23,1.51,7.39,2.6,2,1,.77,3.91.78,5.71a10.9,10.9,0,0,0,1.14,4.84C111.49,69.86,112,69.63,111.86,69.23Z" transform="translate(-8.96 -3.89)"/><path class="cls-1" d="M113.81,72.64c-1.14-1.55-3.35.38-2.21,1.93S115,74.18,113.81,72.64Z" transform="translate(-8.96 -3.89)"/><path class="cls-1" d="M123.07,18.14c-.79-4.14-3.85-7.3-7.19-9.17A13.82,13.82,0,0,0,105.7,7.32c-3.69,1-7,4.27-9.11,7.65s-2.83,8.26-.37,11.8c.14.2.41,0,.28-.25-2.81-4.25-.92-9.58,2-13.1s6.78-6.19,11.42-5.67a15.32,15.32,0,0,1,10.91,6.67,10.17,10.17,0,0,1-.93,12.48c-.12.13,0,.42.17.31C122.85,25.45,123.69,21.4,123.07,18.14Z" transform="translate(-8.96 -3.89)"/><path class="cls-1" d="M120.17,21.4l.45-.49c.3-.33.61-.66.92-1,.15-.18-.06-.48-.23-.31l-1,1-.49.47c-.07.08-.15.15-.22.22a.7.7,0,0,0-.19.32.18.18,0,0,0,.22.24.64.64,0,0,0,.28-.18Z" transform="translate(-8.96 -3.89)"/><path class="cls-1" d="M119.27,17.77a7.24,7.24,0,0,1,.62-.73c0-.06,0-.15-.07-.1a9.24,9.24,0,0,0-.66.73,3.45,3.45,0,0,0-.56.81.07.07,0,0,0,.12.07C118.92,18.31,119.08,18,119.27,17.77Z" transform="translate(-8.96 -3.89)"/><path class="cls-1" d="M116.94,15.28a4.77,4.77,0,0,1,.22-.52,7.1,7.1,0,0,1,.59-1,.11.11,0,0,0-.18-.14,6.89,6.89,0,0,0-.59,1,5.38,5.38,0,0,0-.24.55,1.65,1.65,0,0,0-.14.57c0,.07.08.12.12.05S116.86,15.46,116.94,15.28Z" transform="translate(-8.96 -3.89)"/><path class="cls-1" d="M114,13.43c0-.23.1-.46.16-.68.11-.45.24-.88.39-1.31,0-.15-.16-.24-.21-.09-.16.43-.29.88-.41,1.32-.06.22-.11.44-.16.66a4.06,4.06,0,0,0-.08.7c0,.08.11.12.13,0S114,13.65,114,13.43Z" transform="translate(-8.96 -3.89)"/><path class="cls-1" d="M109.73,12.27a1.58,1.58,0,0,0,0-.38c0-.25.06-.5.1-.74a10.51,10.51,0,0,1,.34-1.45c.08-.26-.3-.42-.38-.15a11.28,11.28,0,0,0-.34,1.53c0,.26-.07.51-.1.77a1.34,1.34,0,0,0,0,.4c0,.12.06.24.09.36s.1.05.12,0Z" transform="translate(-8.96 -3.89)"/><path class="cls-1" d="M106.08,12.88c0-.22,0-.45-.07-.67a5.05,5.05,0,0,1-.07-.68,6.1,6.1,0,0,1,.1-1.35c0-.23-.29-.27-.33,0a6.74,6.74,0,0,0-.09,1.42c0,.23,0,.46.07.69a2.55,2.55,0,0,0,.24.67A.08.08,0,0,0,106.08,12.88Z" transform="translate(-8.96 -3.89)"/><path class="cls-1" d="M103.4,13.87a4,4,0,0,0-.2-.58c-.08-.17-.17-.34-.26-.52l-.53-1a.2.2,0,0,0-.26-.12.24.24,0,0,0-.11.29l.57,1.06.29.54a3.91,3.91,0,0,0,.35.48C103.31,14.05,103.43,14,103.4,13.87Z" transform="translate(-8.96 -3.89)"/><path class="cls-1" d="M100.45,15.61l-.21-.32A2.62,2.62,0,0,0,100,15l-.56-.53a.23.23,0,0,0-.33,0,.28.28,0,0,0,.06.36l.58.49a1.49,1.49,0,0,0,.32.24l.32.16C100.44,15.8,100.5,15.68,100.45,15.61Z" transform="translate(-8.96 -3.89)"/><path class="cls-1" d="M99.2,18.94a2.33,2.33,0,0,0-.34-.2l-.39-.15-.76-.28a.16.16,0,0,0-.2.09.17.17,0,0,0,.09.22l.77.26.38.13a.65.65,0,0,0,.2,0l.2,0A.08.08,0,0,0,99.2,18.94Z" transform="translate(-8.96 -3.89)"/><path class="cls-1" d="M97.73,22.09a1.92,1.92,0,0,0-.31-.18l-.32-.11-.66-.24a.14.14,0,0,0-.19.09.16.16,0,0,0,.09.2l.67.21.32.11a2.23,2.23,0,0,0,.36,0A.07.07,0,0,0,97.73,22.09Z" transform="translate(-8.96 -3.89)"/><path class="cls-1" d="M98.49,25.74a2.14,2.14,0,0,1-.35-.06L98,25.63l-.17,0h-.06l-.08,0-.16,0a2,2,0,0,1-.33-.15.22.22,0,0,0-.29.14.26.26,0,0,0,.13.32,3.2,3.2,0,0,0,.74.18,1.61,1.61,0,0,0,.38,0,2.33,2.33,0,0,0,.36-.08A.1.1,0,0,0,98.49,25.74Z" transform="translate(-8.96 -3.89)"/><path class="cls-1" d="M109.44,21.55c-1.14-1.55-3.35.38-2.21,1.92S110.58,23.09,109.44,21.55Z" transform="translate(-8.96 -3.89)"/><path class="cls-1" d="M114.15,6.68a9.66,9.66,0,0,0-6.67-1.48,11.22,11.22,0,0,0-6.38,2.91c-.07.07,0,.2.1.13a11.62,11.62,0,0,1,6.26-2.61,11.33,11.33,0,0,1,3.29.13A20,20,0,0,1,114,6.89C114.16,6.94,114.25,6.76,114.15,6.68Z" transform="translate(-8.96 -3.89)"/><path class="cls-1" d="M100.34,48.93a3.64,3.64,0,0,1-1.44-.88,3,3,0,0,1-.75-1.64,3.06,3.06,0,0,1,1.57-3.06c.08,0,0-.19-.06-.15a3.24,3.24,0,0,0-1.79,3.29,3.37,3.37,0,0,0,.82,1.78,2.38,2.38,0,0,0,1.62.88A.12.12,0,0,0,100.34,48.93Z" transform="translate(-8.96 -3.89)"/><path class="cls-1" d="M104.54,49.2a3.32,3.32,0,0,0-.77,0l-.79,0a11.66,11.66,0,0,1-1.56-.09c-.09,0-.09.15,0,.16a12.54,12.54,0,0,0,1.61.1,4.55,4.55,0,0,0,1.52-.15S104.59,49.2,104.54,49.2Z" transform="translate(-8.96 -3.89)"/><path class="cls-1" d="M117.41,47.35a4.14,4.14,0,0,0-1.82-1.65,6.89,6.89,0,0,0-3-.76c-.1,0-.1.18,0,.18a6.9,6.9,0,0,1,2.44.57A4.62,4.62,0,0,1,117,47.12a3.73,3.73,0,0,1,.64,2.28,3.8,3.8,0,0,1-.73,2.4,5.62,5.62,0,0,1-2,1.08.07.07,0,0,0,0,.12,3.09,3.09,0,0,0,3-3.16A4.26,4.26,0,0,0,117.41,47.35Z" transform="translate(-8.96 -3.89)"/><path class="cls-1" d="M113.11,53.5a13.45,13.45,0,0,0-2.08.42c-.73.15-1.45.29-2.18.4-.06,0,0,.13,0,.12.72-.1,1.43-.21,2.15-.35a8.55,8.55,0,0,0,2.11-.51A0,0,0,0,0,113.11,53.5Z" transform="translate(-8.96 -3.89)"/><path class="cls-1" d="M108.9,59.83a1.42,1.42,0,0,0-1.4-.41c-.08,0,0,.17,0,.15a1.28,1.28,0,0,1,1.45.69,3.37,3.37,0,0,1,.2,1.78c-.06.68-.12,1.37-.17,2.05a14.89,14.89,0,0,0-.12,2.21s.08.07.09,0a17.23,17.23,0,0,0,.26-2.49c.07-.77.16-1.56.16-2.34A2.45,2.45,0,0,0,108.9,59.83Z" transform="translate(-8.96 -3.89)"/><path class="cls-1" d="M212.23,40.38l-1.12-.26s0,0,0,0c-.59-.33-1.15-.72-1.74-1s-1.19-.67-1.77-1c-.13-.09-.28,0-.25.19a7.84,7.84,0,0,1,.15,1.45s0,0-.08,0a21.68,21.68,0,0,1-9-2.66c2.79-1.59,5.94-4,3.52-6.35s-8.16-.1-7.14,3.49a5.12,5.12,0,0,0,2.12,2.69c-2.86,1.53-5.86,2.88-8,5.43-1.52,1.82-3.57,7.1.19,7.82,1.75.34,3.24-.91,4.14-2.27,1-1.55,1.75-3.42,3.34-4.34a1.39,1.39,0,0,0,1.33.8,1.57,1.57,0,0,0,0-3.13,1.49,1.49,0,0,0-1.5,1.72,5.68,5.68,0,0,0-2.52,2.45A16.51,16.51,0,0,1,192,48.17c-.81.85-2.31,1.56-3.39.78-2.12-1.53.19-5.15,1.38-6.49a20,20,0,0,1,5.51-4c.49-.27,1.3-.66,2.2-1.15a22.6,22.6,0,0,0,2.11,1A21.12,21.12,0,0,0,207.4,40s0,0,.07,0,0,.24,0,.36a5.39,5.39,0,0,0-.06,1.06c0,.2,0,.5.31.49s.48-.25.65-.39a4.42,4.42,0,0,1,.8-.56,5.07,5.07,0,0,1,.86-.37,3.64,3.64,0,0,1,.47-.14,2.16,2.16,0,0,0,.44-.1l1.25.16C212.27,40.52,212.31,40.4,212.23,40.38Zm-14.7-4a4.85,4.85,0,0,1-2.06-2.54c-.7-2.43,2.63-3.71,4.52-3.4,1.39.22,2.58,1.59,1.65,2.94A8.37,8.37,0,0,1,199,35.54C198.53,35.85,198,36.13,197.53,36.41Z" transform="translate(-8.96 -3.89)"/><path class="cls-1" d="M201.51,44.51c-3-1.34-4.86,1.46-5.89,4a1.87,1.87,0,0,0-.34,0,1.57,1.57,0,1,0,.52.09c.9-2.14,2.39-4.45,5-3.86,2.34.54,3.48,3.53,3.61,5.67.18,2.92-1.83,4.25-4.36,5a19.28,19.28,0,0,0-5.38,2.31c-3.22,2.13-5.93,5.52-6.4,9.44-.37,3.08,1.06,7.55,4.49,8.31a.16.16,0,0,0,.12-.3,9.12,9.12,0,0,1-3.6-4.46,9,9,0,0,1,.42-6.15,15.15,15.15,0,0,1,8.86-8.11c2.58-.94,5.79-1.56,6.24-4.8C205.09,49.11,203.92,45.61,201.51,44.51Z" transform="translate(-8.96 -3.89)"/><path class="cls-1" d="M198.33,31.59a1.57,1.57,0,0,0,0,3.13A1.57,1.57,0,0,0,198.33,31.59Z" transform="translate(-8.96 -3.89)"/><path class="cls-1" d="M197,27l-.38-1.44c-.23-.9-.46-1.79-.7-2.68l-1.45-5.57a.05.05,0,0,0-.1,0L195.66,23l.63,2.7.33,1.46a2.32,2.32,0,0,0,.37,1.06.11.11,0,0,0,.18-.05A2.29,2.29,0,0,0,197,27Z" transform="translate(-8.96 -3.89)"/><path class="cls-1" d="M200.35,25.23q-.07-1.21-.21-2.43a43.73,43.73,0,0,0-.85-4.84c0-.13-.22-.07-.19.05a43.67,43.67,0,0,1,.76,5q.1,1.22.15,2.43a14.67,14.67,0,0,0,.06,2.3.16.16,0,0,0,.31,0A9.89,9.89,0,0,0,200.35,25.23Z" transform="translate(-8.96 -3.89)"/><path class="cls-1" d="M208.3,16.05q-1,3.25-2.29,6.42-.67,1.63-1.41,3.24a21.66,21.66,0,0,0-1.38,3c-.07.24.25.34.38.16a15.53,15.53,0,0,0,1.51-3.25c.41-1,.8-2,1.17-2.93q1.22-3.24,2.14-6.59C208.44,16,208.33,16,208.3,16.05Z" transform="translate(-8.96 -3.89)"/><path class="cls-1" d="M194.12,28.51l-5.18-6.09a61.13,61.13,0,0,0-5.42-5.84c-.07-.07-.2,0-.14.1.73,1.06,1.57,2,2.4,3s1.74,2.07,2.64,3.07q2.73,3,5.44,6C194,29,194.27,28.69,194.12,28.51Z" transform="translate(-8.96 -3.89)"/><path class="cls-1" d="M206.83,65.16a7.62,7.62,0,0,0-5.21-5.7,9,9,0,0,0-8.34,2.25,7.1,7.1,0,0,0-1.12,8.77s.05,0,0,0a7.08,7.08,0,0,1,1-7.84,8.58,8.58,0,0,1,7.2-2.81c6.14.58,7.93,8.69,4,12.78a7.88,7.88,0,0,1-3.94,2.21,29.74,29.74,0,0,1-5.25.23c-.1,0-.14.17,0,.19,3,.53,6.55.16,8.94-1.89A8.42,8.42,0,0,0,206.83,65.16Z" transform="translate(-8.96 -3.89)"/><path class="cls-1" d="M205,66.1a5.9,5.9,0,0,0-4.64-4.8,6,6,0,0,0-6.09,2.29,6.28,6.28,0,0,0-1.18,3.65,5.71,5.71,0,0,0,.33,1.87c.3.88.72,2-.21,2.72,0,0,0,.09,0,.07a2,2,0,0,0,.63-2.32,7.13,7.13,0,0,1-.18-3.58,5.57,5.57,0,0,1,4.91-4.2,5.43,5.43,0,0,1,5.68,3.61,4.63,4.63,0,0,1-2.61,5.82c-1.36.5-2.77,0-4.17.2-1.11.15-2.74.62-3.41,1.59-.05.07,0,.17.12.14.66-.18,1.22-.6,1.88-.82a8,8,0,0,1,2.17-.39c1.3,0,2.5.21,3.74-.34A5.16,5.16,0,0,0,205,66.1Z" transform="translate(-8.96 -3.89)"/><path class="cls-1" d="M201.23,63.17a4,4,0,0,0-4.31.13,3,3,0,0,0-1.39,2,5.61,5.61,0,0,0,.52,2.79c0,.1.2.06.17,0a5.82,5.82,0,0,1-.28-2.38A2.55,2.55,0,0,1,197.13,64a3.3,3.3,0,0,1,3.77-.16A3.65,3.65,0,0,1,202.63,67a1.71,1.71,0,0,1-.76,1.36,3.23,3.23,0,0,1-1.43.4,12.4,12.4,0,0,0-1.93.22A2.24,2.24,0,0,0,197.08,70a.28.28,0,0,0,.38.38,5,5,0,0,1,1.75-.43,17.26,17.26,0,0,0,2-.3,2.7,2.7,0,0,0,2.19-2.89A4.67,4.67,0,0,0,201.23,63.17Z" transform="translate(-8.96 -3.89)"/><path class="cls-1" d="M193.29,50.6a4.47,4.47,0,0,0-1.17.44,7.88,7.88,0,0,1-1.42.47,5.18,5.18,0,0,1-2.68-.07,3.2,3.2,0,0,1-2.31-4s-.05-.07-.06,0a3.33,3.33,0,0,0,1.91,4.21,5.18,5.18,0,0,0,2.86.32,7.21,7.21,0,0,0,1.62-.44,3.33,3.33,0,0,0,1.35-.78A.1.1,0,0,0,193.29,50.6Z" transform="translate(-8.96 -3.89)"/><path class="cls-1" d="M193.59,51.23a3.86,3.86,0,0,0-.83.49,6.73,6.73,0,0,1-1,.52,6.25,6.25,0,0,1-2.05.42,6.39,6.39,0,0,1-4.18-1.39s-.06,0,0,0a6.47,6.47,0,0,0,4.15,1.6,6.31,6.31,0,0,0,2.27-.39,3.63,3.63,0,0,0,1.83-1.13C193.74,51.31,193.67,51.2,193.59,51.23Z" transform="translate(-8.96 -3.89)"/><path class="cls-1" d="M193.82,51.94a6.3,6.3,0,0,0-.55.48,3.18,3.18,0,0,1-.73.48,6.49,6.49,0,0,1-1.61.48,8.74,8.74,0,0,1-4.1-.06c-.08,0-.1.09,0,.11a7.7,7.7,0,0,0,4.28.3,6.57,6.57,0,0,0,1.67-.56c.46-.24,1.06-.61,1.18-1.14A.08.08,0,0,0,193.82,51.94Z" transform="translate(-8.96 -3.89)"/><path class="cls-1" d="M194.22,52.38a2.89,2.89,0,0,0-.42.57,3.51,3.51,0,0,1-.51.51,5.22,5.22,0,0,1-1.39.81,9.63,9.63,0,0,1-1.68.43,5.2,5.2,0,0,1-1.84.15c-.11,0-.16.15,0,.17a5.37,5.37,0,0,0,1.83-.07,8.8,8.8,0,0,0,2-.45,4.28,4.28,0,0,0,1.39-.8c.32-.28.86-.79.85-1.26C194.37,52.36,194.28,52.34,194.22,52.38Z" transform="translate(-8.96 -3.89)"/><path class="cls-1" d="M195.1,52.63c0-.08-.12-.06-.14,0a5.49,5.49,0,0,1-.41,1,3.42,3.42,0,0,1-.74.87,7.94,7.94,0,0,1-2.31,1.2s0,.09,0,.07A7.77,7.77,0,0,0,194,54.63,2.48,2.48,0,0,0,195.1,52.63Z" transform="translate(-8.96 -3.89)"/><path class="cls-1" d="M195.54,53a2.46,2.46,0,0,1-1.26,2c-.09.06,0,.21.09.15A2.61,2.61,0,0,0,195.66,53,.06.06,0,1,0,195.54,53Z" transform="translate(-8.96 -3.89)"/><path class="cls-1" d="M193.05,19.21q-.57-2.76-1-5.57c-.3-1.87-.51-3.76-.75-5.64a3.13,3.13,0,0,0-1.56-2.7c-2.24-1.15-4.48.65-5.1,2.8-.82,2.88.69,6.2,2,8.7a49.91,49.91,0,0,0,6.54,8.84c0,.05.14,0,.1-.08a65.4,65.4,0,0,1-5.79-8.48c-1.49-2.77-3.79-7.69-1.26-10.5a2.5,2.5,0,0,1,4.4.88c.44,1.78.46,3.75.73,5.56s.63,3.86,1,5.77a29.81,29.81,0,0,0,1.47,5.66c0,.1.24.11.22,0A52.13,52.13,0,0,0,193.05,19.21Z" transform="translate(-8.96 -3.89)"/><path class="cls-1" d="M197.72,8a1.86,1.86,0,0,0-2.52.21c-1.86,1.81-.87,5.1-.21,7.2.95,3.07,2.45,5.93,2.8,9.16,0,.1.16.1.15,0a28.72,28.72,0,0,0-1.74-7.06c-.75-2.22-1.87-4.79-1.5-7.18a3,3,0,0,1,.83-1.78,1.45,1.45,0,0,1,2.3.25c.77,1.12.43,2.92.4,4.2l-.11,4.26a29,29,0,0,0,0,4.27c0,.1.17.14.19,0a32.59,32.59,0,0,0,.27-4.94c.05-1.75.1-3.5.14-5.25C198.77,10.21,198.75,8.85,197.72,8Z" transform="translate(-8.96 -3.89)"/><path class="cls-1" d="M207.09,5.94c-1.28-1.91-3.66-1-4.94.4-1.71,1.92-1.91,4.58-1.71,7,.29,3.61.95,7.2,1.49,10.78,0,0,0,0,0,0-.29-3.35-.59-6.7-.93-10-.3-2.87-.26-6.6,2.57-8.28,1.95-1.17,3.46.25,3.57,2.25a12.69,12.69,0,0,1-1.13,4.83,87.58,87.58,0,0,0-3.26,9.65c0,.16.2.27.28.11a82.07,82.07,0,0,0,3.33-9.08C207.21,11.3,208.62,8.23,207.09,5.94Z" transform="translate(-8.96 -3.89)"/><path class="cls-1" d="M190.82,19.82a.09.09,0,0,0,.09-.08,3.1,3.1,0,0,0-.24-1.23c-.14-.46-.26-.92-.37-1.39a20.26,20.26,0,0,1-.43-3c-.11-1.57,0-3.25-.62-4.73-.24-.54-.66-1.33-1.33-1.4s-1,.6-1.17,1.1c-.6,1.73.4,3.43,1.12,4.94.81,1.67,1.61,3.35,2.42,5a3.54,3.54,0,0,0,.16.34l.42.87c0,.08.14,0,.11-.06Z" transform="translate(-8.96 -3.89)"/><path class="cls-1" d="M197.16,14.66c0-.72,0-1.43,0-2.14s0-1.41-.06-2.1c0-.39-.32-.9-.79-.68s-.6.94-.68,1.34a4.47,4.47,0,0,0,0,1.71,27.84,27.84,0,0,0,1.25,3.88,0,0,0,0,0,.07,0,.1.1,0,0,0,.17,0A7.18,7.18,0,0,0,197.16,14.66Z" transform="translate(-8.96 -3.89)"/><path class="cls-1" d="M205.68,8.28a1.17,1.17,0,0,0-1.2-.94,1.84,1.84,0,0,0-1.41.93,9.65,9.65,0,0,0-1.24,4.62,25.13,25.13,0,0,0,.6,5.73,0,0,0,1,0,.07,0c0-.16,0-.32,0-.48,0,0,0,0,0,0a12.11,12.11,0,0,1,1.78-5.28C205.09,11.51,206.11,9.88,205.68,8.28Z" transform="translate(-8.96 -3.89)"/><path class="cls-1" d="M274.71,60.92c-3.22-6.75-13-6.84-14.82-14.82-.79-3.54,1.5-6.05,3.8-8.18s4.35-4.15,5.14-7.35c.95-3.81.21-7.85-.6-11.61-1-4.46-1.87-9.07-.46-13.55.09-.31-.36-.52-.51-.23-3,6.29.57,13.46,1,19.94.23,3.28-.23,6.62-2.32,9.17-1.68,2.05-3.91,3.5-5.5,5.63a7.85,7.85,0,0,0-1.14,7.61,13.75,13.75,0,0,0,5.89,6.56c2.72,1.73,5.87,3,7.93,5.7a6,6,0,0,1,1.45,4.7A4.31,4.31,0,0,1,272,67.57a9,9,0,0,1-4.26.56c-1.53-.12-3.48-.45-4.53-1.77a3.43,3.43,0,0,1,.68-4.55c1.59-1.34,3.88-.79,5.35.45.3.25.72-.19.42-.45-2.09-1.8-5.51-2.14-7.11.57a4.23,4.23,0,0,0-.37,3.57,4.37,4.37,0,0,0,2.93,2.44c2.46.79,5.62.88,7.91-.51S275.91,63.45,274.71,60.92Z" transform="translate(-8.96 -3.89)"/><path class="cls-1" d="M272,42.43a4.37,4.37,0,0,0-4.5-2.49c-1.73.19-3.8,1.19-4.43,3.06s.92,3.5,2.53,4a3.18,3.18,0,0,0,3-.38,2.17,2.17,0,0,0,.63-2.44,2,2,0,0,0-2.07-1.09c-.38,0-.82.08-.95.53a.86.86,0,0,0,.39,1,.25.25,0,0,0,.33-.34c-.3-.48.2-.46.52-.44a1.49,1.49,0,0,1,.92.34,1.32,1.32,0,0,1-.31,2c-1.2.88-3.35.07-4.14-1.12-1-1.52.41-3.07,1.65-3.72a4.68,4.68,0,0,1,4.32-.18A4.22,4.22,0,0,1,272,44.7a4.83,4.83,0,0,1-1.85,3.88c-2.46,2-6.18,1-7.82-1.69-2.27-3.74,1.51-7.2,4.18-9.11.08-.06,0-.18-.07-.13a13.9,13.9,0,0,0-4.65,4.41,5.11,5.11,0,0,0,.41,5.57c2.34,3.21,7.27,3.54,9.52,0A5.42,5.42,0,0,0,272,42.43Z" transform="translate(-8.96 -3.89)"/><path class="cls-1" d="M266.25,62.11c-2.56,0-2.56,4.25,0,4.25S268.82,62.11,266.25,62.11Z" transform="translate(-8.96 -3.89)"/><path class="cls-1" d="M272.61,22.31c-.8-4.73-3.36-9.3-2.5-14.23,0-.11-.13-.15-.15-.05-.94,4.63,1.13,9,2,13.47a14,14,0,0,1-.42,7.3c-.74,2.17-1.81,4.27-2.09,6.58l-.19,0c-2.14,0-2.14,3.54,0,3.54,2,0,2.12-3.06.41-3.49.55-2.27,1.71-4.25,2.49-6.43A13,13,0,0,0,272.61,22.31Z" transform="translate(-8.96 -3.89)"/><path class="cls-1" d="M276.13,31.23a12.42,12.42,0,0,0,.75-6.53c-.69-5.05-3.57-9.9-2.7-15.13,0-.1-.13-.15-.15,0-1,5.06,1.45,9.77,2.25,14.65a13,13,0,0,1-1.12,7.89c-.74,1.58-1.8,3.39-2,5.23-1.77.37-1.66,3.5.36,3.5s2.12-3.23.26-3.51a11.68,11.68,0,0,1,.74-2.54C275,33.56,275.64,32.43,276.13,31.23Z" transform="translate(-8.96 -3.89)"/><path class="cls-1" d="M279.09,14.16c0-.12-.23,0-.17.11,2.15,4.83,4.33,10.19,2.36,15.51-.88,2.4-2.31,4.51-3.37,6.81a11.93,11.93,0,0,0-1.39,5.68,1.56,1.56,0,0,0-.86-.25c-2.14,0-2.14,3.54,0,3.54,1.55,0,2-1.89,1.25-2.91a15.67,15.67,0,0,1,.56-3.66,22.16,22.16,0,0,1,1.59-3.71,31.49,31.49,0,0,0,3-6.73C283.29,23.54,281.12,18.57,279.09,14.16Z" transform="translate(-8.96 -3.89)"/><path class="cls-1" d="M285.13,20.41a.11.11,0,1,0-.22.06A20,20,0,0,1,282.85,36c-1.3,2.14-3.1,3.94-3.58,6.54-.41,2.23-.25,5.25-2.21,6.54a1.58,1.58,0,0,0-1.58-1.47c-2.14,0-2.14,3.54,0,3.54a1.6,1.6,0,0,0,1.59-1.59c1.63-.66,2.18-3.06,2.36-4.77A11.66,11.66,0,0,1,280.69,40c.73-1.27,1.67-2.38,2.43-3.62A20.23,20.23,0,0,0,285.13,20.41Z" transform="translate(-8.96 -3.89)"/><path class="cls-1" d="M288.87,28.3a15.21,15.21,0,0,1-2.6,8.1c-1.41,2.06-3.61,3.58-4.34,6.12a22.28,22.28,0,0,0-.46,4.09,7.47,7.47,0,0,1-1.59,4,6.42,6.42,0,0,1-3.34,2.18,7,7,0,0,1-3,0,1.67,1.67,0,0,0-1.59-2c-2.13,0-2.14,3.54,0,3.54a1.52,1.52,0,0,0,1.46-1A6.63,6.63,0,0,0,279.39,52a7.82,7.82,0,0,0,2.17-3.07,13.85,13.85,0,0,0,.66-4.3A7.85,7.85,0,0,1,284,39.92a41.86,41.86,0,0,0,2.61-3.32,15.45,15.45,0,0,0,2.34-8.3A0,0,0,1,0,288.87,28.3Z" transform="translate(-8.96 -3.89)"/><path class="cls-1" d="M285.9,42.84c-1.54,3.85-2.31,8.58-5.53,11.35a8,8,0,0,1-6.05,1.7c-2.09-.14-5-.42-6-2.74.91-.35.8-2-.35-2a1.07,1.07,0,0,0,0,2.12l.13,0c.83,2,2.95,2.52,4.84,2.81,2.18.32,4.49.45,6.5-.68,4.27-2.38,5-8.12,6.53-12.45C286,42.83,285.92,42.79,285.9,42.84Z" transform="translate(-8.96 -3.89)"/><path class="cls-1" d="M275.52,58.77a.06.06,0,1,0-.09.09,7.07,7.07,0,0,1,.58,9.43c-2.39,2.9-6.54,2.69-9.81,2.19-3.44-.52-6.75-1.66-10.17-2.26-2.57-.44-5.67-.57-7.75,1.4-1.72,1.63-2.52,4.87-.65,6.7.16.16.36-.07.23-.25-1.94-2.62.22-6.14,2.78-7,3.17-1.07,6.75.14,9.87.89,5.07,1.23,13.74,3.58,16.69-2.85A7.26,7.26,0,0,0,275.52,58.77Z" transform="translate(-8.96 -3.89)"/><path class="cls-1" d="M265.36,30c-1.31,3.45-3.78,6.28-7.24,7.22a8.7,8.7,0,0,1-9.05-3.09c-2.75-3.35-2.34-7.67-.67-11.48a28,28,0,0,1,3.07-5.52,20.51,20.51,0,0,1,4.46-4.12,31.41,31.41,0,0,0,8.6-9.1s0-.08-.07,0A29.37,29.37,0,0,1,260,9.22a58.23,58.23,0,0,1-5.24,4.06,18.23,18.23,0,0,0-4.41,4.48,29.62,29.62,0,0,0-3,5.84c-1.43,3.82-1.34,7.91,1.27,11.11a9.2,9.2,0,0,0,9,3.41,10.88,10.88,0,0,0,7.92-8A.08.08,0,1,0,265.36,30Z" transform="translate(-8.96 -3.89)"/><path class="cls-1" d="M261,23.65a10.89,10.89,0,0,1,.31-6.68c0-.06-.07-.11-.1,0a11.07,11.07,0,0,0-.9,4.14,13.56,13.56,0,0,0,.87,4.41,5.37,5.37,0,0,1-.44,4.72,7.34,7.34,0,0,1-3.52,2.91c-2.73,1.08-5.88.38-7.19-2.63-1.22-2.81-.94-7.08,1.66-8.9a46.37,46.37,0,0,1,4.19-2.05,12.59,12.59,0,0,0,3.66-3.17c.09-.11-.05-.26-.14-.15a13.08,13.08,0,0,1-4.29,3.26,17.54,17.54,0,0,0-4.14,2.1c-2.23,1.89-2.55,5.75-1.63,8.47a5.58,5.58,0,0,0,6.15,4,7.65,7.65,0,0,0,6.27-5.1C262.32,27,261.49,25.42,261,23.65Z" transform="translate(-8.96 -3.89)"/><path class="cls-1" d="M263.61,9.67c-.74,1.55-1.56,3.05-2.34,4.57a43.62,43.62,0,0,0-2.19,4.51c0,.1.11.19.17.11a23.18,23.18,0,0,0,2.47-4.34c.74-1.55,1.37-3.16,2-4.77C263.76,9.66,263.65,9.59,263.61,9.67Z" transform="translate(-8.96 -3.89)"/><path class="cls-1" d="M256.75,30.42c-.58,0-1.12.25-1.71.25a3.37,3.37,0,0,1-1.72-.44,3.13,3.13,0,0,1-1.58-2.74c0-.11-.14-.11-.16,0a3.27,3.27,0,0,0,1.5,3,3.58,3.58,0,0,0,1.79.52,3,3,0,0,0,1.92-.44S256.83,30.42,256.75,30.42Z" transform="translate(-8.96 -3.89)"/><path class="cls-1" d="M257,26.55a1.82,1.82,0,0,0-.59-.7,2.42,2.42,0,0,0-.82-.44,1.85,1.85,0,0,0-1.7.27,1.77,1.77,0,0,0-.7,1.56,1.56,1.56,0,0,0,.95,1.35l.06,0a1.6,1.6,0,0,0,.69.26,2.1,2.1,0,0,0,1.66-.69A1.51,1.51,0,0,0,257,26.55Z" transform="translate(-8.96 -3.89)"/></svg>