<?xml version="1.0" encoding="utf-8"?>
<!-- Generator: Adobe Illustrator 24.3.0, SVG Export Plug-In . SVG Version: 6.00 Build 0)  -->
<svg version="1.1" id="Layer_1" xmlns="http://www.w3.org/2000/svg" xmlns:xlink="http://www.w3.org/1999/xlink" x="0px" y="0px"
	 viewBox="0 0 100 100" style="enable-background:new 0 0 100 100;" xml:space="preserve">
<style type="text/css">
	.st0{fill:#15ED95;}
</style>
<path class="st0" d="M33.7,10.9c-12.6,0-22.8,10.2-22.8,22.8v32.6c0,12.6,10.2,22.8,22.8,22.8h32.6c12.6,0,22.8-10.2,22.8-22.8V33.7
	c0-12.6-10.2-22.8-22.8-22.8H33.7z M73.4,23.4c1.7,0,3.1,1.4,3.1,3.1s-1.4,3.1-3.1,3.1s-3.1-1.4-3.1-3.1S71.7,23.4,73.4,23.4z
	 M50,29.7c11.2,0,20.3,9.1,20.3,20.3S61.2,70.3,50,70.3c-11.2,0-20.3-9.1-20.3-20.3S38.8,29.7,50,29.7z M50,35.9
	c-7.8,0-14.1,6.3-14.1,14.1S42.2,64.1,50,64.1S64.1,57.8,64.1,50S57.8,35.9,50,35.9z"/>
</svg>
