<svg id="Layer_1" data-name="Layer 1" xmlns="http://www.w3.org/2000/svg" xmlns:xlink="http://www.w3.org/1999/xlink" viewBox="0 0 261.65 241.26"><defs><style>.cls-1{fill:#f85e80;}.cls-2{fill:url(#linear-gradient);}.cls-3{fill:url(#linear-gradient-2);}.cls-4{fill:url(#linear-gradient-3);}.cls-5{fill:url(#linear-gradient-4);}.cls-6{fill:url(#linear-gradient-5);}.cls-7{fill:url(#linear-gradient-6);}.cls-8{fill:url(#linear-gradient-7);}.cls-9{fill:url(#linear-gradient-8);}.cls-10{fill:url(#linear-gradient-9);}.cls-11{fill:url(#linear-gradient-10);}.cls-12{fill:url(#linear-gradient-11);}.cls-13{fill:url(#linear-gradient-12);}.cls-14{fill:url(#linear-gradient-13);}.cls-15{fill:url(#linear-gradient-14);}.cls-16{fill:url(#linear-gradient-15);}.cls-17{fill:url(#linear-gradient-16);}.cls-18{fill:url(#linear-gradient-17);}.cls-19{fill:url(#linear-gradient-18);}.cls-20{fill:url(#linear-gradient-19);}.cls-21{fill:url(#linear-gradient-20);}.cls-22{fill:url(#linear-gradient-21);}.cls-23{fill:url(#linear-gradient-22);}.cls-24{fill:url(#linear-gradient-23);}.cls-25{fill:url(#linear-gradient-24);}.cls-26{fill:url(#linear-gradient-25);}.cls-27{fill:url(#linear-gradient-26);}.cls-28{fill:url(#linear-gradient-27);}.cls-29{fill:url(#linear-gradient-28);}.cls-30{fill:url(#linear-gradient-29);}.cls-31{fill:url(#linear-gradient-30);}.cls-32{fill:url(#linear-gradient-31);}.cls-33{fill:url(#linear-gradient-32);}.cls-34{fill:url(#linear-gradient-33);}.cls-35{fill:url(#linear-gradient-34);}.cls-36{fill:url(#linear-gradient-35);}.cls-37{fill:url(#linear-gradient-36);}.cls-38{fill:url(#linear-gradient-37);}.cls-39{fill:url(#linear-gradient-38);}.cls-40{fill:url(#linear-gradient-39);}.cls-41{fill:url(#linear-gradient-40);}.cls-42{fill:url(#linear-gradient-41);}.cls-43{fill:url(#linear-gradient-42);}.cls-44{fill:url(#linear-gradient-43);}.cls-45{fill:url(#linear-gradient-44);}.cls-46{fill:url(#linear-gradient-45);}.cls-47{fill:url(#linear-gradient-46);}.cls-48{fill:url(#linear-gradient-47);}.cls-49{fill:url(#linear-gradient-48);}.cls-50{fill:url(#linear-gradient-49);}.cls-51{fill:url(#linear-gradient-50);}.cls-52{fill:url(#linear-gradient-51);}.cls-53{fill:url(#linear-gradient-52);}.cls-54{fill:url(#linear-gradient-53);}.cls-55{fill:url(#linear-gradient-54);}.cls-56{fill:url(#linear-gradient-55);}.cls-57{fill:url(#linear-gradient-56);}.cls-58{fill:url(#linear-gradient-57);}.cls-59{fill:url(#linear-gradient-58);}.cls-60{fill:url(#linear-gradient-59);}.cls-61{fill:url(#linear-gradient-60);}.cls-62{fill:url(#linear-gradient-61);}.cls-63{fill:url(#linear-gradient-62);}.cls-64{fill:#110b30;}</style><linearGradient id="linear-gradient" x1="140.05" y1="136.61" x2="140.05" y2="108.46" gradientUnits="userSpaceOnUse"><stop offset="0.04" stop-color="#352870"/><stop offset="0.22" stop-color="#382870"/><stop offset="0.37" stop-color="#42296f"/><stop offset="0.51" stop-color="#542b6e"/><stop offset="0.64" stop-color="#6c2e6c"/><stop offset="0.69" stop-color="#752f6b"/><stop offset="0.71" stop-color="#7e306a"/><stop offset="0.78" stop-color="#9c3368"/><stop offset="0.86" stop-color="#b23566"/><stop offset="0.93" stop-color="#bf3764"/><stop offset="1" stop-color="#c33764"/></linearGradient><linearGradient id="linear-gradient-2" x1="146.46" y1="101.87" x2="146.46" y2="69.4" xlink:href="#linear-gradient"/><linearGradient id="linear-gradient-3" x1="147.33" y1="106.66" x2="147.33" y2="103.36" xlink:href="#linear-gradient"/><linearGradient id="linear-gradient-4" x1="162.95" y1="136.66" x2="162.95" y2="112.48" xlink:href="#linear-gradient"/><linearGradient id="linear-gradient-5" x1="183.56" y1="231.11" x2="183.56" y2="200.49" xlink:href="#linear-gradient"/><linearGradient id="linear-gradient-6" x1="125.33" y1="217.8" x2="125.33" y2="206.02" xlink:href="#linear-gradient"/><linearGradient id="linear-gradient-7" x1="176.68" y1="217.8" x2="176.68" y2="206.02" xlink:href="#linear-gradient"/><linearGradient id="linear-gradient-8" x1="75.4" y1="192.23" x2="75.4" y2="126.55" xlink:href="#linear-gradient"/><linearGradient id="linear-gradient-9" x1="75.01" y1="165.63" x2="75.01" y2="132.32" xlink:href="#linear-gradient"/><linearGradient id="linear-gradient-10" x1="101.6" y1="149.32" x2="101.6" y2="123.87" xlink:href="#linear-gradient"/><linearGradient id="linear-gradient-11" x1="63.95" y1="168.91" x2="63.95" y2="114.37" xlink:href="#linear-gradient"/><linearGradient id="linear-gradient-12" x1="39.11" y1="135.67" x2="39.11" y2="94.82" xlink:href="#linear-gradient"/><linearGradient id="linear-gradient-13" x1="59.31" y1="130.65" x2="59.31" y2="109.56" xlink:href="#linear-gradient"/><linearGradient id="linear-gradient-14" x1="77.74" y1="217.59" x2="77.74" y2="172.31" xlink:href="#linear-gradient"/><linearGradient id="linear-gradient-15" x1="101.61" y1="231.65" x2="101.61" y2="200.58" xlink:href="#linear-gradient"/><linearGradient id="linear-gradient-16" x1="107.99" y1="237.18" x2="107.99" y2="218.79" xlink:href="#linear-gradient"/><linearGradient id="linear-gradient-17" x1="81.98" y1="198.09" x2="81.98" y2="168.6" xlink:href="#linear-gradient"/><linearGradient id="linear-gradient-18" x1="129.53" y1="242.78" x2="129.53" y2="230.99" xlink:href="#linear-gradient"/><linearGradient id="linear-gradient-19" x1="89.65" y1="212.14" x2="89.65" y2="170.2" xlink:href="#linear-gradient"/><linearGradient id="linear-gradient-20" x1="93.96" y1="211.21" x2="93.96" y2="170.93" xlink:href="#linear-gradient"/><linearGradient id="linear-gradient-21" x1="113.47" y1="227.04" x2="113.47" y2="213.98" xlink:href="#linear-gradient"/><linearGradient id="linear-gradient-22" x1="93.39" y1="203.95" x2="93.39" y2="190.06" xlink:href="#linear-gradient"/><linearGradient id="linear-gradient-23" x1="224.6" y1="192.23" x2="224.6" y2="126.55" xlink:href="#linear-gradient"/><linearGradient id="linear-gradient-24" x1="224.99" y1="165.63" x2="224.99" y2="132.32" xlink:href="#linear-gradient"/><linearGradient id="linear-gradient-25" x1="198.4" y1="149.32" x2="198.4" y2="123.87" xlink:href="#linear-gradient"/><linearGradient id="linear-gradient-26" x1="236.05" y1="168.91" x2="236.05" y2="114.37" xlink:href="#linear-gradient"/><linearGradient id="linear-gradient-27" x1="260.89" y1="135.67" x2="260.89" y2="94.82" xlink:href="#linear-gradient"/><linearGradient id="linear-gradient-28" x1="240.69" y1="130.65" x2="240.69" y2="109.56" xlink:href="#linear-gradient"/><linearGradient id="linear-gradient-29" x1="222.26" y1="217.59" x2="222.26" y2="172.31" xlink:href="#linear-gradient"/><linearGradient id="linear-gradient-30" x1="198.39" y1="231.65" x2="198.39" y2="200.58" xlink:href="#linear-gradient"/><linearGradient id="linear-gradient-31" x1="192.01" y1="237.18" x2="192.01" y2="218.79" xlink:href="#linear-gradient"/><linearGradient id="linear-gradient-32" x1="218.02" y1="198.09" x2="218.02" y2="168.6" xlink:href="#linear-gradient"/><linearGradient id="linear-gradient-33" x1="170.47" y1="242.78" x2="170.47" y2="230.99" xlink:href="#linear-gradient"/><linearGradient id="linear-gradient-34" x1="210.35" y1="212.14" x2="210.35" y2="170.2" xlink:href="#linear-gradient"/><linearGradient id="linear-gradient-35" x1="206.04" y1="211.21" x2="206.04" y2="170.93" xlink:href="#linear-gradient"/><linearGradient id="linear-gradient-36" x1="186.53" y1="227.04" x2="186.53" y2="213.98" xlink:href="#linear-gradient"/><linearGradient id="linear-gradient-37" x1="206.61" y1="203.95" x2="206.61" y2="190.06" xlink:href="#linear-gradient"/><linearGradient id="linear-gradient-38" x1="150.09" y1="295.63" x2="150.09" y2="217.8" xlink:href="#linear-gradient"/><linearGradient id="linear-gradient-39" x1="141.05" y1="239.44" x2="141.05" y2="213.89" xlink:href="#linear-gradient"/><linearGradient id="linear-gradient-40" x1="159.45" y1="239.44" x2="159.45" y2="213.89" xlink:href="#linear-gradient"/><linearGradient id="linear-gradient-41" x1="143.13" y1="236.54" x2="143.13" y2="216.79" xlink:href="#linear-gradient"/><linearGradient id="linear-gradient-42" x1="157.36" y1="236.54" x2="157.36" y2="216.79" xlink:href="#linear-gradient"/><linearGradient id="linear-gradient-43" x1="144.88" y1="237.18" x2="144.88" y2="222.7" xlink:href="#linear-gradient"/><linearGradient id="linear-gradient-44" x1="155.31" y1="237.18" x2="155.31" y2="222.7" xlink:href="#linear-gradient"/><linearGradient id="linear-gradient-45" x1="143.12" y1="258.74" x2="143.12" y2="242.83" xlink:href="#linear-gradient"/><linearGradient id="linear-gradient-46" x1="157.48" y1="258.74" x2="157.48" y2="242.83" xlink:href="#linear-gradient"/><linearGradient id="linear-gradient-47" x1="150.02" y1="194.14" x2="150.02" y2="118.46" gradientUnits="userSpaceOnUse"><stop offset="0" stop-color="#7d2443"/><stop offset="0.1" stop-color="#832a45"/><stop offset="0.22" stop-color="#933a49"/><stop offset="0.37" stop-color="#ae5651"/><stop offset="0.52" stop-color="#d37c5b"/><stop offset="0.63" stop-color="#f09963"/><stop offset="0.7" stop-color="#f09d60"/><stop offset="0.77" stop-color="#f1a855"/><stop offset="0.83" stop-color="#f3ba44"/><stop offset="0.89" stop-color="#f5d42c"/><stop offset="0.96" stop-color="#f8f50d"/><stop offset="0.96" stop-color="#f8f80a"/></linearGradient><linearGradient id="linear-gradient-48" x1="149.82" y1="133.81" x2="149.82" y2="130.54" xlink:href="#linear-gradient-47"/><linearGradient id="linear-gradient-49" x1="150.22" y1="240.86" x2="150.22" y2="175.98" xlink:href="#linear-gradient-47"/><linearGradient id="linear-gradient-50" x1="185.13" y1="203.61" x2="185.13" y2="193.87" xlink:href="#linear-gradient-47"/><linearGradient id="linear-gradient-51" x1="147.53" y1="67.46" x2="147.53" y2="54.37" xlink:href="#linear-gradient-47"/><linearGradient id="linear-gradient-52" x1="116.88" y1="203.61" x2="116.88" y2="193.87" xlink:href="#linear-gradient-47"/><linearGradient id="linear-gradient-53" x1="92.44" y1="122.16" x2="92.44" y2="118.91" xlink:href="#linear-gradient-47"/><linearGradient id="linear-gradient-54" x1="80.14" y1="161.98" x2="80.14" y2="158.74" xlink:href="#linear-gradient-47"/><linearGradient id="linear-gradient-55" x1="33.96" y1="92.8" x2="33.96" y2="89.55" xlink:href="#linear-gradient-47"/><linearGradient id="linear-gradient-56" x1="207.56" y1="122.16" x2="207.56" y2="118.91" xlink:href="#linear-gradient-47"/><linearGradient id="linear-gradient-57" x1="219.86" y1="161.98" x2="219.86" y2="158.74" xlink:href="#linear-gradient-47"/><linearGradient id="linear-gradient-58" x1="266.04" y1="92.8" x2="266.04" y2="89.55" xlink:href="#linear-gradient-47"/><linearGradient id="linear-gradient-59" x1="138.78" y1="242.75" x2="138.78" y2="239.51" xlink:href="#linear-gradient-47"/><linearGradient id="linear-gradient-60" x1="161.63" y1="242.81" x2="161.63" y2="239.56" xlink:href="#linear-gradient-47"/><linearGradient id="linear-gradient-61" x1="220.37" y1="162.7" x2="220.37" y2="152.35" xlink:href="#linear-gradient-47"/><linearGradient id="linear-gradient-62" x1="79.4" y1="162.98" x2="79.4" y2="152.62" xlink:href="#linear-gradient-47"/></defs><path class="cls-1" d="M115.9,178.18a5.42,5.42,0,0,0-1.08-1.3,14.66,14.66,0,0,0-1.56-1.16c-1-.66-2-1.35-3-2-1.61-1-4.2-1.6-5.41.37s.38,4,1.85,5.33c.91.8,1.8,1.63,2.66,2.49q.58.58,1.14,1.2c.33.36.6.73.23,1.17-.7.84-2.28.4-3.15.12a7.68,7.68,0,0,1-3.06-1.87.73.73,0,0,0-1,1,9.15,9.15,0,0,0,5.57,2.69,3.33,3.33,0,0,0,2.78-.87,2.24,2.24,0,0,0,.27-2.8,18.38,18.38,0,0,0-2.39-2.6c-.82-.8-1.7-1.53-2.51-2.34-.6-.6-1.36-1.56-1-2.48s1.51-.71,2.19-.42a19.48,19.48,0,0,1,3.25,2.08,16.94,16.94,0,0,0,1.83,1.2,6.81,6.81,0,0,0,2,.7C115.77,178.8,116.1,178.48,115.9,178.18Z" transform="translate(-19.17 -54.37)"/><path class="cls-1" d="M120.81,169.36a11,11,0,0,0-2.29.1c-2.65-2.47-5.36-4.87-8.18-7.14-.38-.3-.92.21-.54.54,2.46,2.16,4.83,4.42,7.14,6.74l-1.44.13-3.73.32a2.63,2.63,0,0,0-.75-3.84c-.34-.2-.63.31-.31.53a1.91,1.91,0,0,1-.65,3.46.46.46,0,0,0,.13.9l5.41-.06,2.71,0h0l.84.83c.57.6,1.48-.31.93-.89a6.71,6.71,0,0,0,.89-.09C121.93,170.68,121.61,169.45,120.81,169.36Z" transform="translate(-19.17 -54.37)"/><path class="cls-1" d="M145.35,151.65a10.81,10.81,0,0,0-3.82,1.18,21.3,21.3,0,0,0-3.46,2c-.1.07-.18.16-.28.23-.17-.13-.3-.3-.48-.43-2.13-1.56-5.23-2.09-7.54-.59a4.05,4.05,0,0,0-2,2.84c-.17,1.64,1.45,2.72.68,4.4s-3,2.09-4.71,1.45a8.64,8.64,0,0,1-3.92-3.67.27.27,0,0,0-.46.28c1.37,2.34,3.49,4.7,6.46,4.58,2.38-.09,4.6-2.32,3.85-4.8-.24-.79-.86-1.44-.61-2.32a3,3,0,0,1,1.53-1.64,5.05,5.05,0,0,1,4.12-.12,7.57,7.57,0,0,1,1.9,1,21.79,21.79,0,0,0-4.06,4.41c-.25.38.34.7.6.35a20.41,20.41,0,0,1,4.14-4.11,5,5,0,0,1,1.77,2.55,8.52,8.52,0,0,0,.72,1.92.35.35,0,0,0,.6,0c.62-1.13.1-2.42-.45-3.5a8.07,8.07,0,0,0-1.4-1.93l.2-.16a20.66,20.66,0,0,1,3.34-1.72c1.16-.47,2.4-.71,3.54-1.22C146.12,152.43,145.86,151.63,145.35,151.65Z" transform="translate(-19.17 -54.37)"/><path class="cls-1" d="M173,155.34a4.31,4.31,0,0,0-1.52,0l-1.31.08-2.84.2-.73.05a5.62,5.62,0,0,0-1.75-4.35c-1.92-1.64-3.68.39-5.32,1.32-2,1.11-4.65,1.66-6.71.48a4.59,4.59,0,0,1-2.33-5.1c.23-.77-.92-1.07-1.18-.33-1,2.78.75,5.88,3.31,7.11a7.57,7.57,0,0,0,5.05.45,14.72,14.72,0,0,0,4.65-2.45,1.39,1.39,0,0,1,1.2-.35,2.24,2.24,0,0,1,.82.88,4.38,4.38,0,0,1,.62,2.23c0,.08,0,.15,0,.23l-3.27.23c-.88.06-.9,1.41,0,1.38l3-.09a5.86,5.86,0,0,1-1.65,2.44c-3,2.65-7.44,2.38-11.14,1.94a3.67,3.67,0,0,1-2.81-1.22,1.21,1.21,0,0,1,.86-1.94,4.91,4.91,0,0,1,3.12.81c.88.43,1.72,1.08,2.72.89a.26.26,0,0,0,.16-.39c-.45-1-1.7-1.36-2.61-1.84a6.3,6.3,0,0,0-3-1,2.79,2.79,0,0,0-2.93,3.16c.4,2,2.43,2.75,4.24,3a24.91,24.91,0,0,0,7.16.14c3.42-.54,6.76-2.65,7.65-6.07l1.06,0,2.84-.1a8.56,8.56,0,0,0,2.91-.29C173.91,156.53,173.64,155.53,173,155.34Z" transform="translate(-19.17 -54.37)"/><path class="cls-1" d="M181.35,164.71a6.17,6.17,0,0,0-.53-.93c-.35-.57-.71-1.13-1.09-1.68-.14-.19-.3-.37-.44-.57,2.59-1.94,2.43-5.83.34-8.33-.36-.43-1.1.14-.78.6,1,1.5,1.54,3.74.51,5.37a2.79,2.79,0,0,1-1.11,1c-.34-.43-.64-.88-1-1.3a.71.71,0,0,0-1,0,.72.72,0,0,0,0,1c.2.24.36.51.55.75-1.11.2-2.33.18-3.31.42-2.21.53-4.17,2.24-3.73,4.7a4.65,4.65,0,0,0,1.92,2.86,6.47,6.47,0,0,0,3.57,1.12,1,1,0,0,0,1-.9,1,1,0,0,0-.74-1.13c-1.12-.47-4.41-1.72-2.89-3.43,1.31-1.46,3.61-1.36,5.34-2,.15.22.33.43.48.66.35.53.68,1.06,1,1.61.16.26.3.53.45.79a1.53,1.53,0,0,0,.88.61c.18.08.46,0,.5-.2A1.86,1.86,0,0,0,181.35,164.71Z" transform="translate(-19.17 -54.37)"/><path class="cls-1" d="M194,164.47a.8.8,0,0,0-1.46.61c.25.91-.72,1.87-1.34,2.39a35.39,35.39,0,0,1-3.23,2.34c-.47.31-1,.56-1.46.85A16.76,16.76,0,0,1,188,167a.31.31,0,0,0-.53-.31,14.5,14.5,0,0,0-2,4.63,38.06,38.06,0,0,1-4.55,2.19c-.72.29-.43,1.45.33,1.19,1.4-.5,2.78-1.07,4.13-1.71a5.3,5.3,0,0,0,2.22,3.93c1.15.84,3.42,1.69,3,3.48a3.28,3.28,0,0,1-2,2.1c-.53.22-1.11.26-1.65.45a7.7,7.7,0,0,0-1.36.78.35.35,0,0,0,.08.63,6.64,6.64,0,0,0,1.52.32,5,5,0,0,0,1.61-.4,5.76,5.76,0,0,0,2.6-1.7,3.74,3.74,0,0,0-.08-5.14c-1.29-1.29-3.44-1.64-4.32-3.32a4.56,4.56,0,0,1-.47-1.7c1.1-.55,2.19-1.12,3.23-1.77C191.38,169.54,195.65,167.15,194,164.47Z" transform="translate(-19.17 -54.37)"/><path class="cls-1" d="M62,152.88a4.33,4.33,0,0,0,1.7.37.13.13,0,0,0,.06-.24,6.83,6.83,0,0,0-1.58-.59l-.77-.29a15.12,15.12,0,0,0,.58-1.59c.08-.29.14-.58.2-.87a1.68,1.68,0,0,0,.07-.83c-.06-.18-.34-.3-.47-.12a1.84,1.84,0,0,0-.28.76c-.07.29-.15.58-.23.86-.15.53-.28,1-.45,1.57l-.29-.11a18.62,18.62,0,0,1-3-1.65c-.16-.11-.31.16-.15.27a19.64,19.64,0,0,0,3.07,1.81l.23.09a21.52,21.52,0,0,1-.89,2,6.5,6.5,0,0,0-2.09-1c-1-.22-1.65.62-1.55,1.58a3.54,3.54,0,0,0,1.42,2.32c.42.35,1,.54,1.33,1a.71.71,0,0,1,.07.81c-.22.32-.69.26-1,.21-.09,0-.12.16,0,.18a1.38,1.38,0,0,0,1.14-.11,1,1,0,0,0,.3-.92c-.11-.92-1.17-1.48-1.73-2.12a2.5,2.5,0,0,1-.65-1.27c-.06-.4,0-.94.55-.84a5.81,5.81,0,0,1,1.93.92l0,.05a.17.17,0,0,0,.29.17l0,0q.32.19.63.36a4.75,4.75,0,0,0,1.64.51,1.74,1.74,0,0,0,1.51-.44c.17-.15,0-.37-.2-.34a4.2,4.2,0,0,1-2.89-.6l-.31-.19a20.76,20.76,0,0,0,1.09-2C61.45,152.66,61.71,152.78,62,152.88Z" transform="translate(-19.17 -54.37)"/><path class="cls-1" d="M69.57,148.76a11.83,11.83,0,0,0-1.53.39,4.48,4.48,0,0,1-1.45.18l-.12,0c0,.08,0,.08,0,0a.85.85,0,0,0,.17-.16,1.87,1.87,0,0,0,.34-.49,2.2,2.2,0,0,0,.17-1,2.58,2.58,0,0,0-.57-1.37l.28-.14a3.38,3.38,0,0,0,.58-.34,2.46,2.46,0,0,0,.17.27c.26.35.54.7.83,1l.44.49a.79.79,0,0,0,.58.34.23.23,0,0,0,.23-.23.56.56,0,0,0-.1-.33l-.22-.21c-.16-.15-.31-.29-.45-.44-.31-.31-.61-.64-.89-1a17.53,17.53,0,0,1-1.53-2.12.19.19,0,0,0-.33.2,15.48,15.48,0,0,0,1,1.57,2.67,2.67,0,0,0-.56.28l-.4.23a7.09,7.09,0,0,0-2.56-1.32c-.18-.05-.24.21-.08.27a6.73,6.73,0,0,1,2.26,1.27l-1,.58c-.22.12,0,.44.19.33l1.16-.57a1.89,1.89,0,0,1,.18,2.08c-.22.31-.66.47-.58.93s.51.53.86.52a7,7,0,0,0,1.56-.22,3.51,3.51,0,0,0,1.48-.56A.25.25,0,0,0,69.57,148.76Z" transform="translate(-19.17 -54.37)"/><path class="cls-1" d="M73.21,145.61,74,145c.49-.38,1-.74,1.52-1.08s1-.53,1.12-1.08a1.06,1.06,0,0,0-.77-1.11,4.34,4.34,0,0,0-1.48-.19,6.92,6.92,0,0,0-1.5.19h0c-.26-.42-.52-.84-.75-1.27-.35-.62-.66-1.25-1-1.9-.1-.24-.5-.07-.42.17.24.69.51,1.36.8,2,.2.42.44.83.66,1.25a4.77,4.77,0,0,0-2.11,1.45c-.15.19.11.46.27.27a4.52,4.52,0,0,1,2.07-1.3c0,.08.08.17.13.25a.41.41,0,0,0,.32.18.35.35,0,0,0,.31-.18.33.33,0,0,0,0-.37.41.41,0,0,0,0-.09,5.89,5.89,0,0,1,1.18-.11,2.72,2.72,0,0,1,1.5.3c.25.21.14.4-.09.55s-.51.32-.77.48c-.49.32-1,.65-1.43,1s-1,.73-1.39,1.13-.56.95,0,1.18a1.59,1.59,0,0,0,.78,0l1-.14,1.11-.15a1.69,1.69,0,0,0,1-.29.31.31,0,0,0-.06-.48,1.3,1.3,0,0,0-.85,0l-1,.15-.94.14-.43.07a.91.91,0,0,1,.1-.1Z" transform="translate(-19.17 -54.37)"/><path class="cls-1" d="M88.31,143.07a1,1,0,0,0-.73-.13,8.17,8.17,0,0,1-.86,0,5.43,5.43,0,0,1-1-.21,1.83,1.83,0,0,0-.77-.86,2.72,2.72,0,0,0-1.68-.28,1.75,1.75,0,0,1-.77-1.49c0-.26-.34-.37-.39-.11a2,2,0,0,0,.59,1.7,8.87,8.87,0,0,0-.92.25,2.63,2.63,0,0,1-1.8.2c-.55-.27-.55-1-.55-1.54,0-.18-.26-.17-.28,0-.06.73,0,1.61.72,2s1.87,0,2.68-.2a4.58,4.58,0,0,1,.77-.13,6.9,6.9,0,0,0,1.15.71,5.9,5.9,0,0,0,.72.2c.23.84-.73,1.55-1.44,1.74a2.89,2.89,0,0,1-1.57,0,6.28,6.28,0,0,1-.76-.29c-.26-.11-.53-.2-.79-.33a.15.15,0,0,0-.18.24,3,3,0,0,0,1.21.89,3.74,3.74,0,0,0,1.55.24,3.07,3.07,0,0,0,2.46-1.38,1.59,1.59,0,0,0,.2-.89c.19,0,.37.14.57.17a6.15,6.15,0,0,0,1,0c.3,0,.72,0,.89-.33A.15.15,0,0,0,88.31,143.07Z" transform="translate(-19.17 -54.37)"/><path class="cls-1" d="M86.25,138.45a1.63,1.63,0,0,0,0,3.25A1.63,1.63,0,0,0,86.25,138.45Z" transform="translate(-19.17 -54.37)"/><path class="cls-1" d="M95.11,142.63c-.41-.42-1.24-1-1.75-.38-.24.29-.1.64-.08,1a1.77,1.77,0,0,1-.19.93,2,2,0,0,1-1.82,1.14.15.15,0,0,0,0,.29,2.45,2.45,0,0,0,2.4-1.92,3,3,0,0,0,0-.85c0-.47.41-.32.64-.12a1.86,1.86,0,0,1,.65.77,1.71,1.71,0,0,1-.11,1c-.13.39-.29.78-.44,1.17l-.25.62a1.84,1.84,0,0,0-.13.65.13.13,0,0,0,.22.09,1.38,1.38,0,0,0,.32-.44l.28-.67c.16-.38.33-.77.48-1.16A1.91,1.91,0,0,0,95.11,142.63Z" transform="translate(-19.17 -54.37)"/><path class="cls-1" d="M92.22,164.93a1.52,1.52,0,0,0-.73-.75c-.08,0-.14.07-.07.11a1.3,1.3,0,0,1,.68,1.26.62.62,0,0,1-.38.54.81.81,0,0,1-.72-.17c-.07-.06-.16-.19-.08-.28a.41.41,0,0,1,.15-.07c.1,0,.18,0,.22-.16a.18.18,0,0,0-.05-.17h0a.2.2,0,0,0-.18,0,.75.75,0,0,0-.44.27.52.52,0,0,0,0,.54,1.11,1.11,0,0,0,.94.44.8.8,0,0,0,.73-.57A1.3,1.3,0,0,0,92.22,164.93Z" transform="translate(-19.17 -54.37)"/><path class="cls-1" d="M90.42,167a1,1,0,0,0,.24.07,3,3,0,0,0,1.48-.24c.07,0,0-.14,0-.12a2.87,2.87,0,0,1-1.54.05,1.46,1.46,0,0,1-.58-.36.82.82,0,0,0-.68-.22c-.19,0-.13.32,0,.33s.43.24.61.35a1,1,0,0,0,.33.1.78.78,0,0,1-.25.47l-.11.1-.11.08-.26.17s0,0,0,0a6.26,6.26,0,0,1-.52-.51c0-.07-.17,0-.12.09A5,5,0,0,0,90,168.63a.9.9,0,0,0,.72.2,1.52,1.52,0,0,0,.2-.06,2.68,2.68,0,0,0,.19.42,2.39,2.39,0,0,0,.13.21.61.61,0,0,0,.2.19.16.16,0,0,0,.22-.22,1.13,1.13,0,0,0-.13-.2l-.13-.15c-.08-.11-.15-.23-.22-.35a.49.49,0,0,0,.26-.19.08.08,0,0,0,0-.11.29.29,0,0,0-.13,0,.61.61,0,0,0-.17.07,3.55,3.55,0,0,1-.2-.63c0-.08-.15-.06-.15,0a3.82,3.82,0,0,0,.12.66l-.14,0a1,1,0,0,1-.64-.21c-.09-.07-.16-.17-.25-.25a2,2,0,0,0,.48-.48A1,1,0,0,0,90.42,167Z" transform="translate(-19.17 -54.37)"/><path class="cls-1" d="M91.53,176l.52-.18a1.22,1.22,0,0,0,.51-.25.19.19,0,0,0-.13-.31,1.22,1.22,0,0,0-.49.15l-.52.19c-.34.12-.69.22-1,.31l-.2,0c-.18-.51-.37-1-.55-1.55,0-.13-.27-.08-.22.06.16.52.32,1,.49,1.54a14.39,14.39,0,0,1-1.71.25c-.22,0-.22.34,0,.33a12.39,12.39,0,0,0,1.82-.22l.06.18c.1.32.2.65.31,1,0,0,0,.14.06.24l-.11,0a5.09,5.09,0,0,0-1.33.74.14.14,0,1,0,.17.22,4.74,4.74,0,0,1,1.28-.72l.09,0c.06.11.13.19.23.16s.11-.14.09-.26l.27-.08.37-.06a1.28,1.28,0,0,0,.28-.07,3.16,3.16,0,0,0-.33.63,4.64,4.64,0,0,0-.12,1.53,2.88,2.88,0,0,1-.06.59l-.77-.52c-.11-.07-.21.1-.1.18l.8.57a.78.78,0,0,1-.55.45,1.09,1.09,0,0,1-.75-.11,2.8,2.8,0,0,0-.65-.37.11.11,0,0,0-.13.12c0,.26.32.45.53.56a1.56,1.56,0,0,0,.79.16,1.16,1.16,0,0,0,.94-.68l0,0,.5.35.26.19a.49.49,0,0,0,.26.1c.06,0,.08-.07.06-.12a.39.39,0,0,0-.2-.2L92,181l-.5-.34,0,0s0,0,0,0a11.76,11.76,0,0,0,0-1.68,3.51,3.51,0,0,1,.72-1.81c.06-.07,0-.18-.1-.1a2.94,2.94,0,0,0-.34.63s0-.09,0-.11a.77.77,0,0,0-.37,0,2,2,0,0,0-.35.06l-.29.08-.1-.23c-.11-.32-.22-.64-.34-1a.78.78,0,0,0,0-.14h.13C90.81,176.24,91.17,176.14,91.53,176Z" transform="translate(-19.17 -54.37)"/><path class="cls-1" d="M93.32,187.2a5.51,5.51,0,0,1-.31-.7,5,5,0,0,1-.27-1.52.17.17,0,1,0-.33,0,5.47,5.47,0,0,0,.22,1.65c.06.18.14.36.21.54h-.16a1.09,1.09,0,0,0-.31,0,2.54,2.54,0,0,1-.55,0,2.35,2.35,0,0,1-.53-.09l-.23-.08L91,187l0,0,0,0,.16-.17a1.28,1.28,0,0,0,.25-.4,1.72,1.72,0,0,0,.13-.87,1.83,1.83,0,0,0-.26-.59,1,1,0,0,0,.47-.11.78.78,0,0,0,.34-.44,1.17,1.17,0,0,0,0-.64c-.07-.28-.14-.56-.2-.84a3.18,3.18,0,0,0,.58-.17,1.87,1.87,0,0,0,.32-.15.3.3,0,0,0,.18-.26.1.1,0,0,0-.07-.09.32.32,0,0,0-.3,0l-.29.14a3.28,3.28,0,0,1-.51.15l-.07-.29a.15.15,0,0,0-.29.08l0,.23a2.91,2.91,0,0,1-1,0c-.23-.06-.32.29-.1.34a3.45,3.45,0,0,0,1.2,0c0,.18.07.35.1.53s.08.35.11.52a.47.47,0,0,1,0,.4.68.68,0,0,1-.72.17,1.93,1.93,0,0,1-.46-.16.36.36,0,0,1-.14-.1l0,0a.17.17,0,0,0-.23-.21.35.35,0,0,0-.1.49.88.88,0,0,0,.49.31,2.66,2.66,0,0,0,.56.12,1.31,1.31,0,0,1-.18,1.48c-.12.12-.28.2-.37.35a.47.47,0,0,0,.1.59,2,2,0,0,0,1.16.37,2.57,2.57,0,0,0,.68,0,.76.76,0,0,0,.36-.11,1,1,0,0,0,.19-.16,1.34,1.34,0,0,0,.48.66c.14.08.26,0,.25-.18A2.37,2.37,0,0,0,93.32,187.2Z" transform="translate(-19.17 -54.37)"/><path class="cls-1" d="M238,152.88a4.33,4.33,0,0,1-1.7.37.13.13,0,0,1-.06-.24,6.83,6.83,0,0,1,1.58-.59l.77-.29a15.12,15.12,0,0,1-.58-1.59c-.08-.29-.14-.58-.2-.87a1.68,1.68,0,0,1-.07-.83c.06-.18.34-.3.47-.12a1.84,1.84,0,0,1,.28.76c.07.29.15.58.23.86.15.53.28,1,.45,1.57l.29-.11a18.62,18.62,0,0,0,3-1.65c.16-.11.31.16.15.27a19.64,19.64,0,0,1-3.07,1.81l-.23.09a21.52,21.52,0,0,0,.89,2,6.5,6.5,0,0,1,2.09-1c1-.22,1.65.62,1.55,1.58a3.54,3.54,0,0,1-1.42,2.32c-.42.35-1,.54-1.33,1a.71.71,0,0,0-.07.81c.22.32.69.26,1,.21.09,0,.12.16,0,.18a1.38,1.38,0,0,1-1.14-.11,1,1,0,0,1-.3-.92c.11-.92,1.17-1.48,1.73-2.12a2.5,2.5,0,0,0,.65-1.27c.06-.4,0-.94-.55-.84a5.81,5.81,0,0,0-1.93.92l0,.05a.17.17,0,0,1-.29.17l0,0q-.31.19-.63.36a4.75,4.75,0,0,1-1.64.51,1.74,1.74,0,0,1-1.51-.44c-.17-.15,0-.37.2-.34a4.2,4.2,0,0,0,2.89-.6l.31-.19a20.76,20.76,0,0,1-1.09-2C238.55,152.66,238.29,152.78,238,152.88Z" transform="translate(-19.17 -54.37)"/><path class="cls-1" d="M230.43,148.76a11.83,11.83,0,0,1,1.53.39,4.48,4.48,0,0,0,1.45.18l.12,0c0,.08,0,.08-.05,0a.85.85,0,0,1-.17-.16,1.87,1.87,0,0,1-.34-.49,2.2,2.2,0,0,1-.17-1,2.58,2.58,0,0,1,.57-1.37l-.28-.14a3.38,3.38,0,0,1-.58-.34,2.46,2.46,0,0,1-.17.27c-.26.35-.54.7-.83,1l-.44.49a.79.79,0,0,1-.58.34.23.23,0,0,1-.23-.23.56.56,0,0,1,.1-.33l.22-.21c.16-.15.31-.29.45-.44.31-.31.61-.64.89-1a17.53,17.53,0,0,0,1.53-2.12.19.19,0,0,1,.33.2,15.48,15.48,0,0,1-1,1.57,2.67,2.67,0,0,1,.56.28l.4.23a7.09,7.09,0,0,1,2.56-1.32c.18-.05.24.21.08.27a6.73,6.73,0,0,0-2.26,1.27l1,.58c.22.12,0,.44-.19.33l-1.16-.57a1.89,1.89,0,0,0-.18,2.08c.22.31.66.47.58.93s-.51.53-.86.52a7,7,0,0,1-1.56-.22,3.51,3.51,0,0,1-1.48-.56A.25.25,0,0,1,230.43,148.76Z" transform="translate(-19.17 -54.37)"/><path class="cls-1" d="M226.79,145.61,226,145c-.49-.38-1-.74-1.52-1.08s-1-.53-1.12-1.08a1.06,1.06,0,0,1,.77-1.11,4.34,4.34,0,0,1,1.48-.19,6.92,6.92,0,0,1,1.5.19h0c.26-.42.52-.84.75-1.27.35-.62.66-1.25,1-1.9.1-.24.5-.07.42.17-.24.69-.51,1.36-.8,2-.2.42-.44.83-.66,1.25a4.77,4.77,0,0,1,2.11,1.45c.15.19-.11.46-.27.27a4.52,4.52,0,0,0-2.07-1.3c-.05.08-.08.17-.13.25a.41.41,0,0,1-.32.18.35.35,0,0,1-.31-.18.33.33,0,0,1,0-.37.41.41,0,0,1,0-.09,5.89,5.89,0,0,0-1.18-.11,2.72,2.72,0,0,0-1.5.3c-.25.21-.14.4.09.55s.51.32.77.48c.49.32,1,.65,1.43,1s.95.73,1.39,1.13.56.95,0,1.18a1.59,1.59,0,0,1-.78,0l-1.05-.14-1.11-.15a1.69,1.69,0,0,1-1-.29.31.31,0,0,1,.06-.48,1.3,1.3,0,0,1,.85,0l1,.15.94.14.43.07-.1-.1Z" transform="translate(-19.17 -54.37)"/><path class="cls-1" d="M213.75,138.45a1.63,1.63,0,0,1,0,3.25A1.63,1.63,0,0,1,213.75,138.45Z" transform="translate(-19.17 -54.37)"/><path class="cls-1" d="M204.89,142.63c.41-.42,1.24-1,1.75-.38.24.29.1.64.08,1a1.77,1.77,0,0,0,.19.93,2,2,0,0,0,1.82,1.14.15.15,0,0,1,0,.29,2.45,2.45,0,0,1-2.4-1.92,3,3,0,0,1,0-.85c0-.47-.41-.32-.64-.12a1.86,1.86,0,0,0-.65.77,1.71,1.71,0,0,0,.11,1c.13.39.29.78.44,1.17l.25.62a1.84,1.84,0,0,1,.13.65.13.13,0,0,1-.22.09,1.38,1.38,0,0,1-.32-.44l-.28-.67c-.16-.38-.33-.77-.48-1.16A1.91,1.91,0,0,1,204.89,142.63Z" transform="translate(-19.17 -54.37)"/><path class="cls-1" d="M207.78,164.93a1.52,1.52,0,0,1,.73-.75c.08,0,.14.07.07.11a1.3,1.3,0,0,0-.68,1.26.62.62,0,0,0,.38.54.81.81,0,0,0,.72-.17c.07-.06.16-.19.08-.28a.41.41,0,0,0-.15-.07c-.1,0-.18,0-.22-.16a.18.18,0,0,1,0-.17h0a.2.2,0,0,1,.18,0,.75.75,0,0,1,.44.27.52.52,0,0,1,0,.54,1.11,1.11,0,0,1-.94.44.8.8,0,0,1-.73-.57A1.3,1.3,0,0,1,207.78,164.93Z" transform="translate(-19.17 -54.37)"/><path class="cls-1" d="M209.58,167a1,1,0,0,1-.24.07,3,3,0,0,1-1.48-.24c-.07,0,0-.14,0-.12a2.87,2.87,0,0,0,1.54.05,1.46,1.46,0,0,0,.58-.36.82.82,0,0,1,.68-.22c.19,0,.13.32-.05.33s-.43.24-.61.35a1,1,0,0,1-.33.1.78.78,0,0,0,.25.47l.11.1.11.08.26.17s0,0,0,0a6.26,6.26,0,0,0,.52-.51c.05-.07.17,0,.12.09a5,5,0,0,1-1.07,1.23.9.9,0,0,1-.72.2,1.52,1.52,0,0,1-.2-.06,2.68,2.68,0,0,1-.19.42,2.39,2.39,0,0,1-.13.21.61.61,0,0,1-.2.19.16.16,0,0,1-.22-.22,1.13,1.13,0,0,1,.13-.2l.13-.15c.08-.11.15-.23.22-.35a.49.49,0,0,1-.26-.19.08.08,0,0,1,0-.11.29.29,0,0,1,.13,0,.61.61,0,0,1,.17.07,3.55,3.55,0,0,0,.2-.63c0-.08.15-.06.15,0a3.82,3.82,0,0,1-.12.66l.14,0a1,1,0,0,0,.64-.21c.09-.07.16-.17.25-.25a2,2,0,0,1-.48-.48A1,1,0,0,1,209.58,167Z" transform="translate(-19.17 -54.37)"/><path class="cls-1" d="M208.47,176l-.52-.18a1.22,1.22,0,0,1-.51-.25.19.19,0,0,1,.13-.31,1.22,1.22,0,0,1,.49.15l.52.19c.34.12.69.22,1,.31l.2,0c.18-.51.37-1,.55-1.55,0-.13.27-.08.22.06-.16.52-.32,1-.49,1.54a14.39,14.39,0,0,0,1.71.25c.22,0,.22.34,0,.33a12.39,12.39,0,0,1-1.82-.22l-.06.18c-.1.32-.2.65-.31,1,0,0,0,.14-.06.24l.11,0a5.09,5.09,0,0,1,1.33.74.14.14,0,1,1-.17.22,4.74,4.74,0,0,0-1.28-.72l-.09,0c-.06.11-.13.19-.23.16s-.11-.14-.09-.26l-.27-.08-.37-.06a1.28,1.28,0,0,1-.28-.07,3.16,3.16,0,0,1,.33.63,4.64,4.64,0,0,1,.12,1.53,2.88,2.88,0,0,0,.06.59l.77-.52c.11-.07.21.1.1.18l-.8.57a.78.78,0,0,0,.55.45,1.09,1.09,0,0,0,.75-.11,2.8,2.8,0,0,1,.65-.37.11.11,0,0,1,.13.12c0,.26-.32.45-.53.56a1.56,1.56,0,0,1-.79.16,1.16,1.16,0,0,1-.94-.68l0,0-.5.35-.26.19a.49.49,0,0,1-.26.1c-.06,0-.08-.07-.06-.12a.39.39,0,0,1,.2-.2L208,181l.5-.34,0,0s0,0,0,0a11.76,11.76,0,0,1,0-1.68,3.51,3.51,0,0,0-.72-1.81c-.06-.07,0-.18.1-.1a2.94,2.94,0,0,1,.34.63s0-.09,0-.11a.77.77,0,0,1,.37,0,2,2,0,0,1,.35.06l.29.08.1-.23c.11-.32.22-.64.34-1a.78.78,0,0,1,.05-.14h-.13C209.19,176.24,208.83,176.14,208.47,176Z" transform="translate(-19.17 -54.37)"/><path class="cls-1" d="M206.68,187.2a5.51,5.51,0,0,0,.31-.7,5,5,0,0,0,.27-1.52.17.17,0,1,1,.33,0,5.47,5.47,0,0,1-.22,1.65c-.06.18-.14.36-.21.54h.16a1.09,1.09,0,0,1,.31,0,2.54,2.54,0,0,0,.55,0,2.35,2.35,0,0,0,.53-.09l.23-.08.1-.05,0,0,0,0-.16-.17a1.28,1.28,0,0,1-.25-.4,1.72,1.72,0,0,1-.13-.87,1.83,1.83,0,0,1,.26-.59,1,1,0,0,1-.47-.11.78.78,0,0,1-.34-.44,1.17,1.17,0,0,1,0-.64c.07-.28.14-.56.2-.84a3.18,3.18,0,0,1-.58-.17,1.87,1.87,0,0,1-.32-.15.3.3,0,0,1-.18-.26.1.1,0,0,1,.07-.09.32.32,0,0,1,.3,0l.29.14a3.28,3.28,0,0,0,.51.15l.07-.29a.15.15,0,0,1,.29.08l0,.23a2.91,2.91,0,0,0,1,0c.23-.06.32.29.1.34a3.45,3.45,0,0,1-1.2,0c0,.18-.07.35-.1.53s-.08.35-.11.52a.47.47,0,0,0,0,.4.68.68,0,0,0,.72.17,1.93,1.93,0,0,0,.46-.16.36.36,0,0,0,.14-.1l0,0A.17.17,0,0,1,210,184a.35.35,0,0,1,.1.49.88.88,0,0,1-.49.31,2.66,2.66,0,0,1-.56.12,1.31,1.31,0,0,0,.18,1.48c.12.12.28.2.37.35a.47.47,0,0,1-.1.59,2,2,0,0,1-1.16.37,2.57,2.57,0,0,1-.68,0,.76.76,0,0,1-.36-.11,1,1,0,0,1-.19-.16,1.34,1.34,0,0,1-.48.66c-.14.08-.26,0-.25-.18A2.37,2.37,0,0,1,206.68,187.2Z" transform="translate(-19.17 -54.37)"/><path class="cls-1" d="M211.69,143.07a1,1,0,0,1,.73-.13,8.17,8.17,0,0,0,.86,0,5.43,5.43,0,0,0,1.05-.21,1.83,1.83,0,0,1,.77-.86,2.72,2.72,0,0,1,1.68-.28,1.75,1.75,0,0,0,.77-1.49c0-.26.34-.37.39-.11a2,2,0,0,1-.59,1.7,8.87,8.87,0,0,1,.92.25,2.63,2.63,0,0,0,1.8.2c.55-.27.55-1,.55-1.54,0-.18.26-.17.28,0,.06.73,0,1.61-.72,2s-1.87,0-2.68-.2a4.58,4.58,0,0,0-.77-.13,6.9,6.9,0,0,1-1.15.71,5.9,5.9,0,0,1-.72.2c-.23.84.73,1.55,1.44,1.74a2.89,2.89,0,0,0,1.57,0,6.28,6.28,0,0,0,.76-.29c.26-.11.53-.2.79-.33a.15.15,0,0,1,.18.24,3,3,0,0,1-1.21.89,3.74,3.74,0,0,1-1.55.24,3.07,3.07,0,0,1-2.46-1.38,1.59,1.59,0,0,1-.2-.89c-.19,0-.37.14-.57.17a6.15,6.15,0,0,1-1.05,0c-.3,0-.72,0-.89-.33A.15.15,0,0,1,211.69,143.07Z" transform="translate(-19.17 -54.37)"/><path class="cls-2" d="M150,108.86c-.18-.47-1-.61-1.11,0-.43,2.29-1.31,3.76-3.85,3.93a45.48,45.48,0,0,0-4.95.16,12.61,12.61,0,0,0-8,5,12.29,12.29,0,0,0-1.93,9.59c.76,3.68,3.31,6.49,6,8.93.4.36,1-.22.59-.6-2.84-2.73-5.42-5.89-5.59-10a11.07,11.07,0,0,1,8.91-11.4c1.79-.35,3.58,0,5.38-.18C148,114.1,151.11,111.76,150,108.86Z" transform="translate(-19.17 -54.37)"/><path class="cls-3" d="M156.12,89.53a9.71,9.71,0,0,0-7.23-1.83c-2.69.33-5.32,2.18-8.08,1.52a4.66,4.66,0,0,1-3.08-6.88c1.37-2.19,4.09-2.91,6.37-3.72,2.12-.74,4.53-1.7,5.73-3.73a4.43,4.43,0,0,0-.33-5.41c-.24-.24-.61.13-.38.38,2.33,2.65-.48,5.85-3,6.81-2.08.77-4.33,1-6.39,1.8-3.73,1.49-5.88,5.26-4,9.12a7,7,0,0,0,4.59,3.63c2.28.56,4.39-.2,6.55-.9,2.55-.82,6.12-1.12,8.2,1,1.86,1.89.44,4.89-1.45,6.15-2.37,1.59-5.46,1.53-8.2,1.63-2.36.09-5.57,0-7.23,2a.47.47,0,0,0,.33.78,28,28,0,0,0,3.75-.53,39.81,39.81,0,0,1,4.5-.27,17,17,0,0,0,7.23-1.45C157.52,97.78,159.66,92.49,156.12,89.53Z" transform="translate(-19.17 -54.37)"/><path class="cls-4" d="M156.25,105.81a3.16,3.16,0,0,0-1.74-1.18,17.82,17.82,0,0,0-2.27-.65,26,26,0,0,0-4.47-.6,24.68,24.68,0,0,0-9.06,1.3c-.74.25-.44,1.42.32,1.19a23.59,23.59,0,0,1,8.6-1,22.5,22.5,0,0,1,4.15.7c.67.18,1.33.39,2,.61a10,10,0,0,0,1.11.41,3.78,3.78,0,0,0,1.06,0A.46.46,0,0,0,156.25,105.81Z" transform="translate(-19.17 -54.37)"/><path class="cls-5" d="M170.71,120.91a12.94,12.94,0,0,0-6.6-7.13c-3-1.27-6.4-1.3-9.62-1.3a.31.31,0,0,0,0,.61,27.46,27.46,0,0,1,8.6,1.28,11.61,11.61,0,0,1,6.43,6.52,9.15,9.15,0,0,1-.38,9c-1.53,2.42-3.88,4.12-5.76,6.23a.31.31,0,0,0,.37.48,17.12,17.12,0,0,0,6.81-6.69A10.14,10.14,0,0,0,170.71,120.91Z" transform="translate(-19.17 -54.37)"/><path class="cls-6" d="M168.39,230.54c3.08-1.81,6.32-3.3,9.3-5.28a61.19,61.19,0,0,0,8.52-7,55,55,0,0,0,12.38-17.73c.07-.16.34,0,.28.12a55.69,55.69,0,0,1-11.79,18.48,50.33,50.33,0,0,1-8.56,7.05,32.84,32.84,0,0,1-9.89,4.88A.31.31,0,0,1,168.39,230.54Z" transform="translate(-19.17 -54.37)"/><path class="cls-7" d="M127.48,210.31a5.05,5.05,0,0,0-2.07,1.5c-.54.59-1.18,1.44-2,1.57-1.13.18-.63-1.37-.43-2a10.82,10.82,0,0,0,.67-2.21c.22-2-1.47-2.77-3.09-3.17a.15.15,0,1,0-.08.29,4.41,4.41,0,0,1,2.14,1.24,2.2,2.2,0,0,1,.07,2.27c-.43,1.09-1.65,3.14-.56,4.2a2,2,0,0,0,2.08.22,5.17,5.17,0,0,0,1.87-1.44,4,4,0,0,1,2-1.48c.86-.19,1.26.52,1.2,1.28-.14,1.61-2.51,3.53-1.28,5.1.15.19.45.06.51-.14.14-.42.19-.85.34-1.27a8,8,0,0,1,.71-1.4,5.42,5.42,0,0,0,.81-2.22A2.13,2.13,0,0,0,127.48,210.31Z" transform="translate(-19.17 -54.37)"/><path class="cls-8" d="M174.53,210.31a5.05,5.05,0,0,1,2.07,1.5c.54.59,1.18,1.44,2,1.57,1.14.18.64-1.37.44-2a10.82,10.82,0,0,1-.67-2.21c-.22-2,1.47-2.77,3.09-3.17a.15.15,0,0,1,.08.29,4.41,4.41,0,0,0-2.14,1.24,2.2,2.2,0,0,0-.08,2.27c.44,1.09,1.66,3.14.57,4.2a2,2,0,0,1-2.08.22,5.17,5.17,0,0,1-1.87-1.44,4,4,0,0,0-2-1.48c-.86-.19-1.26.52-1.2,1.28.14,1.61,2.51,3.53,1.28,5.1a.32.32,0,0,1-.52-.14c-.13-.42-.18-.85-.33-1.27a8,8,0,0,0-.71-1.4,5.42,5.42,0,0,1-.81-2.22A2.13,2.13,0,0,1,174.53,210.31Z" transform="translate(-19.17 -54.37)"/><path class="cls-9" d="M104.77,140.41c-1.39-5.28-5.75-9.09-10.66-11.1-10.9-4.44-25.81-3.52-35.82,2.74S44.17,149,46.09,160.45c1,5.84,4.35,11.72,10.55,13.06a10.47,10.47,0,0,0,6.9-1c3.21-1.54,6.39-4.81,10.2-3.95a.63.63,0,0,0,.34-.05c1,.25,2,.65,3.09.85a15.19,15.19,0,0,0,7.28,0c3.67-1.22,4.47-5.73,7.74-7.55a.27.27,0,0,0-.21-.49c-3.78.85-4.17,6.2-7.93,7.3-2.6.75-5.47,0-8-.79a10.71,10.71,0,0,0-2-.44s0,0,0,0c-3.73-1.2-6.81.91-9.94,2.7-6.3,3.61-12.71.69-15.21-6a25.33,25.33,0,0,1,10.29-30.3c9.67-6.06,24.72-7.12,35.18-2.5,5.59,2.47,10.34,7.9,9.26,14.36-.83,4.94-4.48,8.82-7.09,12.91a22.49,22.49,0,0,0-3.67,14.17c.5,6.59,2.74,12.9,3.24,19.5,0,.19.32.2.31,0-.27-6.94-2.45-13.65-2.54-20.59-.1-7.25,3.49-12,7.34-17.71C104,149.8,106.07,145.31,104.77,140.41Z" transform="translate(-19.17 -54.37)"/><path class="cls-10" d="M95.73,137.29c-5.23-4.61-13.41-5.57-20-4.66-7.1,1-14.37,4.11-19.25,9.47a18.85,18.85,0,0,0-4.65,8.9c-.67,3.31-1.13,7.78-.07,11.06,1,3,4,4,6.92,3.4a22.67,22.67,0,0,0,5.08-2.15c3.18-1.54,6.2-2,9.54-.58.06,0,.09,0,.13,0a26.87,26.87,0,0,0,3.08,1.2,10.72,10.72,0,0,0,5.62.11c1.93-.52,3.06-1.72,4.4-3.11a10.5,10.5,0,0,1,2.68-2,10.32,10.32,0,0,0,2.44-1.34.21.21,0,0,0-.15-.35c-1.52.08-3.26,1.24-4.43,2.15-1.75,1.36-2.73,3.2-5,3.88a10.81,10.81,0,0,1-6.27-.26c-1.29-.4-2.54-.92-3.84-1.25a10.7,10.7,0,0,0-7.87,0c-3.41,1.34-9.84,5.49-11.26-.68a23.94,23.94,0,0,1-.11-6.92,17.89,17.89,0,0,1,1.84-7,22.12,22.12,0,0,1,8.05-8.36,32,32,0,0,1,24.11-4.26c3.91,1,8.86,2.91,10.36,7,1.65,4.51-.83,9.4-2.59,13.47-.14.33.26.73.55.42C99.23,150.76,100.88,141.84,95.73,137.29Z" transform="translate(-19.17 -54.37)"/><path class="cls-11" d="M111.4,140.64a19,19,0,0,0-2.92-8.11c-3.67-5.59-10.07-8.25-16.56-8.66-.35,0-.34.51,0,.54,6.23.57,12.39,3.3,15.74,8.81a18.66,18.66,0,0,1,2.6,7.77c.27,2.73-.32,5.32-.71,8a.27.27,0,0,0,.49.21,8.83,8.83,0,0,0,1.35-3.93A18.8,18.8,0,0,0,111.4,140.64Z" transform="translate(-19.17 -54.37)"/><path class="cls-12" d="M86.07,116.92c-2.95-2.11-7.36-2.54-10.88-2.55a41.82,41.82,0,0,0-12.73,1.84c-.39.12-.35.8.1.75,4.85-.52,9.48-1.85,14.42-1.54,2.36.15,6.31.55,8.21,2.18,1.48,1.26,2.62,3.87-.16,4.47a11.27,11.27,0,0,1-3.28-.06c-8.17-.67-16.9-.64-24.26,3.48A36.25,36.25,0,0,0,48,133.85c-2.8,3.24-5.57,6.55-7,10.66-2.89,8.53-.19,17.28,4.94,24.32.14.19.46,0,.33-.2-4.36-7-6.93-16.13-3.89-24.2C44,140.32,47,137,49.85,133.75A31.15,31.15,0,0,1,59.26,126c6.94-3.38,14.95-3.39,22.49-2.84,1.92.14,4.75.48,5.89-1.55C88.61,119.9,87.52,118,86.07,116.92Z" transform="translate(-19.17 -54.37)"/><path class="cls-13" d="M58.64,116.34c-5,.63-9.7,3.24-13.64,6.35-4.42,3.49-7.8,8.79-13.31,10.7-2.69.93-5.87.86-8.09-1.11a9.45,9.45,0,0,1-2.85-6.86c-.12-5.57,3.78-10.18,7-14.35,3.66-4.81,7.07-9.83,6.58-16.14,0-.14-.23-.15-.23,0,.25,12.67-15.83,18.55-14.84,31.28.34,4.41,3,8.61,7.6,9.34,5.61.88,10.3-3,14-6.73a48.54,48.54,0,0,1,8.1-7,62.71,62.71,0,0,1,9.87-4.67C59.14,117,59.16,116.27,58.64,116.34Z" transform="translate(-19.17 -54.37)"/><path class="cls-14" d="M79.77,110a52.41,52.41,0,0,0-18.59,1,40.75,40.75,0,0,0-15.53,7c-5.23,4-11.14,15.22-19,11.24-.26-.13-.49.25-.23.4,4.16,2.4,8.68.29,11.88-2.76,2.28-2.18,4.14-4.73,6.56-6.77a35.09,35.09,0,0,1,8.48-5.22,50,50,0,0,1,19.24-3.92,33.49,33.49,0,0,1,10.65,1.15c3.66,1.16,5.5,3.41,8.42,5.58.27.2.66-.13.56-.43C90.78,112.59,84,110.56,79.77,110Z" transform="translate(-19.17 -54.37)"/><path class="cls-15" d="M88.09,216.25c-3.54-1.75-6.65-3.35-9-6.68a18.73,18.73,0,0,1-3.17-11.85,29.47,29.47,0,0,1,1.14-7.58c.68-2.1,2-3.95,2.44-6.12s-.24-4.65-2.09-5.55a2.29,2.29,0,0,0-1.12-.59,5.92,5.92,0,0,0-2,0c-1.38.2-2.76.72-4.14.22a2.66,2.66,0,0,1-1.87-2.36,2.45,2.45,0,0,1,2.11-2.42,2.19,2.19,0,0,1,1.94.66.91.91,0,0,1,.2,1c-.25.39-.84.45-1.25.5a.12.12,0,0,0,0,.23,1.85,1.85,0,0,0,1.75-.58,1.6,1.6,0,0,0-.27-1.8,3.35,3.35,0,0,0-4.31-.46,3.48,3.48,0,0,0-1.16,4.28,4.53,4.53,0,0,0,3.81,2.44,14.46,14.46,0,0,0,3.27-.44,5,5,0,0,1,2.77.35.53.53,0,0,0,.35,0c1.49,1.56.56,4.94-.3,6.75a22.52,22.52,0,0,0-2.06,5.5c-.77,3.95-1.65,8.21-.71,12.19,1.39,5.91,6.68,12.76,13.08,13.62C88.26,217.68,88.9,216.65,88.09,216.25Z" transform="translate(-19.17 -54.37)"/><path class="cls-16" d="M124.82,230.84c-2.1-1-4.33-1.62-6.38-2.73a38.88,38.88,0,0,1-6-4.2c-3.53-2.9-6.89-6.17-11-8.28-4.43-2.27-9.64-1.9-14-4.2a19,19,0,0,1-9-10.77.11.11,0,0,0-.22.06,18.24,18.24,0,0,0,6.15,10.65c4.5,3.52,10.23,2.92,15.25,5.12s8.66,6.2,12.76,9.58c3.31,2.73,7.78,6.23,12.36,5.47A.38.38,0,0,0,124.82,230.84Z" transform="translate(-19.17 -54.37)"/><path class="cls-17" d="M124.26,236.25c-1.31-.58-2.8-.57-4.17-1a18.25,18.25,0,0,1-4.43-2.18,65.54,65.54,0,0,1-7.91-6.69c-4.59-4.16-9.82-7-16-7.59-.17,0-.21.28,0,.31a25,25,0,0,1,9.56,3.44,49,49,0,0,1,8,6.77,37,37,0,0,0,7.2,5.76c2.11,1.19,5.47,2.83,7.88,1.77A.34.34,0,0,0,124.26,236.25Z" transform="translate(-19.17 -54.37)"/><path class="cls-18" d="M88.71,168.61c-1.39,2-4,2.19-6.18,2.19s-4.42-1-6.23.58a3.19,3.19,0,0,0-.13,4.72,6,6,0,0,0,2.32,1.56,16.74,16.74,0,0,1,2.2.63s0,.05,0,.07c2.86,3.06,1.37,6.55-.36,9.79-1.62,3.06-2.94,6.33-2.37,9.86,0,.12.24.1.23,0-.33-4.41,2.39-8,4-11.87.94-2.2,1.52-6-.64-7.67,0,0,0-.05,0-.08a2.58,2.58,0,0,0-1.81-.9,5.17,5.17,0,0,1-2.78-1.3,3,3,0,0,1-1.11-2.85,2.88,2.88,0,0,1,2.46-2,17.2,17.2,0,0,1,3.28.19,12,12,0,0,0,3.17-.29,5.93,5.93,0,0,0,4-2.59S88.73,168.57,88.71,168.61Z" transform="translate(-19.17 -54.37)"/><path class="cls-19" d="M131.64,238.36a5.57,5.57,0,0,0-2-1.09,9.29,9.29,0,0,1-2.5-.64c-1.17-.73-2.49-2.95-1.5-4.27s3.8-.37,4.11,1.16c.15.68-.24,1.08-.89,1.21a2.13,2.13,0,0,1-1.55-.18.87.87,0,0,1-.25-1.2c.26-.31.69-.22,1-.14a1.07,1.07,0,0,1,.27.08c.11.48,0,.7-.25.65a1.15,1.15,0,0,1-.26,0c-.11,0-.14.19,0,.21.36.06.79.12,1-.2s.08-.68-.24-.88c-.77-.49-2.1-.65-2.3.5-.41,2.33,4,2.54,4.06.29s-3.28-3.69-5-2.29-.26,4.59,1.33,5.61a5.27,5.27,0,0,0,2.2.59,4.74,4.74,0,0,1,2,.86c1.42,1,2.18,2.64,3.1,4.09.11.18.44.06.35-.14A10.81,10.81,0,0,0,131.64,238.36Z" transform="translate(-19.17 -54.37)"/><path class="cls-20" d="M101.05,211.43c-2.4-2.46-6.78-1.85-9.82-2.92a14.43,14.43,0,0,1-7.76-7.24,9.64,9.64,0,0,1-1.13-6.06,24.06,24.06,0,0,1,2-5.29,12.63,12.63,0,0,0,.55-9.5s.05,0,.05,0a4.47,4.47,0,0,0-2.25-3.92,20.9,20.9,0,0,0-2.05-.75c-.64-.23-2.3-1-1.83-1.9.27-.54,1-.57,1.5-.59s1.11,0,1.66,0a16.67,16.67,0,0,0,3-.31,7.5,7.5,0,0,0,4.53-2.58c0-.07,0-.16-.09-.09a7.4,7.4,0,0,1-4.16,2.09,19.54,19.54,0,0,1-2.85.22,25.78,25.78,0,0,0-2.64.09c-1.19.16-2.09,1.25-1.26,2.35s2.1,1.26,3.23,1.65a3.89,3.89,0,0,1,2,1.34,7.19,7.19,0,0,1,.81,2c-.05,0-.1.07-.08.14,1.21,4.56-.82,8.06-2.46,12.14a11.23,11.23,0,0,0,.63,10.06,15.78,15.78,0,0,0,7,6.91,21.21,21.21,0,0,0,5.14,1.49c2,.38,3.91,1.05,5.88,1.4A.42.42,0,0,0,101.05,211.43Z" transform="translate(-19.17 -54.37)"/><path class="cls-21" d="M97.63,206.07A15,15,0,0,1,89,201.42a11,11,0,0,1-2.21-10.09c.86-2.76,3-5.46,1.59-8.43h0a9.85,9.85,0,0,0-.36-1,6.83,6.83,0,0,1-.24-1.26c-.09-.76-.11-1.53-.26-2.28a3.94,3.94,0,0,0-.85-1.88,5,5,0,0,0-1.82-1.15c-.24-.11-1.24-.44-1-.84.13-.23,1-.19,1.3-.22a9.9,9.9,0,0,0,2.58-.55,4.74,4.74,0,0,0,3.05-2.66c0-.13-.15-.18-.19-.06a3.88,3.88,0,0,1-2,2.13,7.51,7.51,0,0,1-3,.51c-.63,0-1.71-.09-2.21.37a.89.89,0,0,0,.16,1.32,13.6,13.6,0,0,0,2.16,1,3.24,3.24,0,0,1,1.51,2.33c.17.8.16,1.63.28,2.43.09.6.22,1.66.8,2,0,0,0,0,0,0,1.33,3.59-2.27,6.82-2.78,10.28a11.41,11.41,0,0,0,2.41,8.52,14.6,14.6,0,0,0,7.23,4.88c1.67.52,3.44.65,5.06,1.33s2.91,2.12,4.41,3.13c.2.13.42-.13.32-.32C103.34,208,100.73,206.73,97.63,206.07Z" transform="translate(-19.17 -54.37)"/><path class="cls-22" d="M120.64,226.71a15.66,15.66,0,0,0-1.82-1.17c-.66-.42-1.3-.86-1.94-1.32-1.34-1-2.6-2-3.86-3.1a41.66,41.66,0,0,1-6.57-7.09c-.08-.12-.28,0-.19.11a41.5,41.5,0,0,0,6.25,7.49,32.53,32.53,0,0,0,3.75,3c.68.46,1.37.91,2.07,1.33a9.52,9.52,0,0,0,2.12,1.11A.19.19,0,0,0,120.64,226.71Z" transform="translate(-19.17 -54.37)"/><path class="cls-23" d="M98.58,200.79c-.8-1.66-2.78-1.88-4.4-2.12a5.2,5.2,0,0,1-3-1.19,3.54,3.54,0,0,1-1-3.15c.08-.25.32-1.43,1-.27a1.32,1.32,0,0,1,.08.44,2.84,2.84,0,0,0,.1.57,3,3,0,0,0,.52,1,2.33,2.33,0,0,0,2,1c.07,0,.12-.11,0-.15a3.58,3.58,0,0,1-2-1.54c-.3-.57-.13-1.49-.63-1.95a.88.88,0,0,0-1.31.29,2.93,2.93,0,0,0-.18,2,3.82,3.82,0,0,0,2.94,3c1.72.47,4.19.29,5.23,2a1.65,1.65,0,0,1-.77,2.54,3.9,3.9,0,0,1-3-.63,12.13,12.13,0,0,1-4.18-4c-1.09-1.64-1.92-3.65-1.36-5.64a3.52,3.52,0,0,1,1.61-2.19,1.72,1.72,0,0,1,2.54.68,12.38,12.38,0,0,1,.31,2.65,3.57,3.57,0,0,0,1.23,2.24,1.42,1.42,0,0,0,1.72.23c.52-.41.43-1.17.33-1.74a0,0,0,0,0-.08,0,1.9,1.9,0,0,1-.17,1.31c-.57.82-1.53.12-2-.47a4.75,4.75,0,0,1-.7-2.9c0-1.36-.47-2.82-2.09-2.85a3.56,3.56,0,0,0-3.24,2.69,6.66,6.66,0,0,0,.7,5.1,13.41,13.41,0,0,0,3.56,4.29c1.24,1,3,2.11,4.68,1.75A2.11,2.11,0,0,0,98.58,200.79Z" transform="translate(-19.17 -54.37)"/><path class="cls-24" d="M195.23,140.41c1.39-5.28,5.75-9.09,10.66-11.1,10.9-4.44,25.81-3.52,35.82,2.74s14.12,16.93,12.2,28.4c-1,5.84-4.35,11.72-10.55,13.06a10.47,10.47,0,0,1-6.9-1c-3.21-1.54-6.39-4.81-10.2-3.95a.63.63,0,0,1-.34-.05c-1,.25-2,.65-3.09.85a15.19,15.19,0,0,1-7.28,0c-3.67-1.22-4.47-5.73-7.74-7.55a.27.27,0,0,1,.21-.49c3.78.85,4.17,6.2,7.93,7.3,2.6.75,5.47,0,8-.79a10.71,10.71,0,0,1,2-.44s0,0,0,0c3.73-1.2,6.81.91,9.94,2.7,6.3,3.61,12.71.69,15.21-6a25.33,25.33,0,0,0-10.29-30.3c-9.67-6.06-24.72-7.12-35.18-2.5-5.59,2.47-10.34,7.9-9.26,14.36.83,4.94,4.48,8.82,7.09,12.91a22.49,22.49,0,0,1,3.67,14.17c-.5,6.59-2.74,12.9-3.24,19.5,0,.19-.32.2-.31,0,.27-6.94,2.45-13.65,2.54-20.59.1-7.25-3.49-12-7.34-17.71C196,149.8,193.93,145.31,195.23,140.41Z" transform="translate(-19.17 -54.37)"/><path class="cls-25" d="M204.27,137.29c5.23-4.61,13.41-5.57,20-4.66,7.1,1,14.37,4.11,19.25,9.47a18.85,18.85,0,0,1,4.65,8.9c.67,3.31,1.13,7.78.07,11.06-1,3-4,4-6.92,3.4a22.67,22.67,0,0,1-5.08-2.15c-3.18-1.54-6.2-2-9.54-.58-.06,0-.09,0-.13,0a26.87,26.87,0,0,1-3.08,1.2,10.72,10.72,0,0,1-5.62.11c-1.93-.52-3.06-1.72-4.4-3.11a10.5,10.5,0,0,0-2.68-2,10.32,10.32,0,0,1-2.44-1.34.21.21,0,0,1,.15-.35c1.52.08,3.26,1.24,4.43,2.15,1.75,1.36,2.73,3.2,5,3.88a10.81,10.81,0,0,0,6.27-.26c1.29-.4,2.54-.92,3.84-1.25a10.7,10.7,0,0,1,7.87,0c3.41,1.34,9.84,5.49,11.26-.68a23.94,23.94,0,0,0,.11-6.92,17.89,17.89,0,0,0-1.84-7,22.12,22.12,0,0,0-8.05-8.36,32,32,0,0,0-24.11-4.26c-3.91,1-8.86,2.91-10.36,7-1.65,4.51.83,9.4,2.59,13.47.14.33-.26.73-.55.42C200.77,150.76,199.12,141.84,204.27,137.29Z" transform="translate(-19.17 -54.37)"/><path class="cls-26" d="M188.6,140.64a19,19,0,0,1,2.92-8.11c3.67-5.59,10.07-8.25,16.56-8.66.35,0,.34.51,0,.54-6.23.57-12.39,3.3-15.74,8.81a18.66,18.66,0,0,0-2.6,7.77c-.27,2.73.32,5.32.71,8a.27.27,0,0,1-.49.21,8.83,8.83,0,0,1-1.35-3.93A18.8,18.8,0,0,1,188.6,140.64Z" transform="translate(-19.17 -54.37)"/><path class="cls-27" d="M213.93,116.92c2.95-2.11,7.36-2.54,10.88-2.55a41.82,41.82,0,0,1,12.73,1.84c.39.12.35.8-.1.75-4.85-.52-9.48-1.85-14.42-1.54-2.36.15-6.31.55-8.21,2.18-1.48,1.26-2.62,3.87.16,4.47a11.27,11.27,0,0,0,3.28-.06c8.17-.67,16.9-.64,24.26,3.48a36.25,36.25,0,0,1,9.45,8.36c2.8,3.24,5.57,6.55,7,10.66,2.89,8.53.19,17.28-4.94,24.32-.14.19-.46,0-.33-.2,4.36-7,6.93-16.13,3.89-24.2-1.55-4.11-4.53-7.44-7.4-10.68a31.15,31.15,0,0,0-9.41-7.72c-6.94-3.38-15-3.39-22.49-2.84-1.92.14-4.75.48-5.89-1.55C211.39,119.9,212.48,118,213.93,116.92Z" transform="translate(-19.17 -54.37)"/><path class="cls-28" d="M241.36,116.34c5,.63,9.7,3.24,13.64,6.35,4.42,3.49,7.8,8.79,13.31,10.7,2.69.93,5.87.86,8.09-1.11a9.45,9.45,0,0,0,2.85-6.86c.12-5.57-3.78-10.18-7-14.35-3.66-4.81-7.07-9.83-6.58-16.14,0-.14.23-.15.23,0-.25,12.67,15.83,18.55,14.84,31.28-.34,4.41-3,8.61-7.6,9.34-5.61.88-10.3-3-14-6.73a48.54,48.54,0,0,0-8.1-7,62.71,62.71,0,0,0-9.87-4.67C240.86,117,240.84,116.27,241.36,116.34Z" transform="translate(-19.17 -54.37)"/><path class="cls-29" d="M220.23,110a52.41,52.41,0,0,1,18.59,1,40.75,40.75,0,0,1,15.53,7c5.23,4,11.14,15.22,19,11.24.26-.13.49.25.23.4-4.16,2.4-8.68.29-11.88-2.76-2.28-2.18-4.14-4.73-6.56-6.77a35.09,35.09,0,0,0-8.48-5.22,50,50,0,0,0-19.24-3.92,33.49,33.49,0,0,0-10.65,1.15c-3.66,1.16-5.5,3.41-8.42,5.58-.27.2-.66-.13-.56-.43C209.22,112.59,216,110.56,220.23,110Z" transform="translate(-19.17 -54.37)"/><path class="cls-30" d="M211.91,216.25c3.54-1.75,6.65-3.35,9-6.68a18.73,18.73,0,0,0,3.17-11.85,29.47,29.47,0,0,0-1.14-7.58c-.68-2.1-2-3.95-2.44-6.12s.24-4.65,2.09-5.55a2.29,2.29,0,0,1,1.12-.59,5.92,5.92,0,0,1,2,0c1.38.2,2.76.72,4.14.22a2.66,2.66,0,0,0,1.87-2.36,2.45,2.45,0,0,0-2.11-2.42,2.19,2.19,0,0,0-1.94.66.91.91,0,0,0-.2,1c.25.39.84.45,1.25.5a.12.12,0,0,1,0,.23,1.85,1.85,0,0,1-1.75-.58,1.6,1.6,0,0,1,.27-1.8,3.35,3.35,0,0,1,4.31-.46,3.48,3.48,0,0,1,1.16,4.28,4.53,4.53,0,0,1-3.81,2.44,14.46,14.46,0,0,1-3.27-.44,5,5,0,0,0-2.77.35.53.53,0,0,1-.35,0c-1.49,1.56-.56,4.94.3,6.75a22.52,22.52,0,0,1,2.06,5.5c.77,3.95,1.65,8.21.71,12.19-1.39,5.91-6.68,12.76-13.08,13.62C211.74,217.68,211.1,216.65,211.91,216.25Z" transform="translate(-19.17 -54.37)"/><path class="cls-31" d="M175.18,230.84c2.1-1,4.33-1.62,6.38-2.73a38.88,38.88,0,0,0,6.05-4.2c3.53-2.9,6.89-6.17,11-8.28,4.43-2.27,9.64-1.9,14-4.2a19,19,0,0,0,9-10.77.11.11,0,0,1,.22.06,18.24,18.24,0,0,1-6.15,10.65c-4.5,3.52-10.23,2.92-15.25,5.12s-8.66,6.2-12.76,9.58c-3.31,2.73-7.78,6.23-12.36,5.47A.38.38,0,0,1,175.18,230.84Z" transform="translate(-19.17 -54.37)"/><path class="cls-32" d="M175.74,236.25c1.31-.58,2.8-.57,4.17-1a18.25,18.25,0,0,0,4.43-2.18,65.54,65.54,0,0,0,7.91-6.69c4.59-4.16,9.82-7,16.05-7.59.17,0,.21.28,0,.31a25,25,0,0,0-9.56,3.44,49,49,0,0,0-8,6.77,37,37,0,0,1-7.2,5.76c-2.11,1.19-5.47,2.83-7.88,1.77A.34.34,0,0,1,175.74,236.25Z" transform="translate(-19.17 -54.37)"/><path class="cls-33" d="M211.29,168.61c1.39,2,4,2.19,6.18,2.19s4.42-1,6.23.58a3.19,3.19,0,0,1,.13,4.72,6,6,0,0,1-2.32,1.56,16.74,16.74,0,0,0-2.2.63s0,.05,0,.07c-2.86,3.06-1.37,6.55.36,9.79,1.62,3.06,2.94,6.33,2.37,9.86,0,.12-.24.1-.23,0,.33-4.41-2.39-8-4-11.87-.94-2.2-1.52-6,.64-7.67,0,0,0-.05,0-.08a2.58,2.58,0,0,1,1.81-.9,5.17,5.17,0,0,0,2.78-1.3,3,3,0,0,0,1.11-2.85,2.88,2.88,0,0,0-2.46-2,17.2,17.2,0,0,0-3.28.19,12,12,0,0,1-3.17-.29,5.93,5.93,0,0,1-4-2.59S211.27,168.57,211.29,168.61Z" transform="translate(-19.17 -54.37)"/><path class="cls-34" d="M168.36,238.36a5.57,5.57,0,0,1,2-1.09,9.29,9.29,0,0,0,2.5-.64c1.17-.73,2.49-2.95,1.5-4.27s-3.8-.37-4.11,1.16c-.15.68.24,1.08.89,1.21a2.13,2.13,0,0,0,1.55-.18.87.87,0,0,0,.25-1.2c-.26-.31-.69-.22-1-.14a1.07,1.07,0,0,0-.27.08c-.11.48,0,.7.25.65a1.15,1.15,0,0,0,.26,0c.11,0,.14.19,0,.21-.36.06-.79.12-1-.2s-.08-.68.24-.88c.77-.49,2.1-.65,2.3.5.41,2.33-4,2.54-4.06.29s3.28-3.69,5-2.29.26,4.59-1.33,5.61a5.27,5.27,0,0,1-2.2.59,4.74,4.74,0,0,0-2,.86c-1.42,1-2.18,2.64-3.1,4.09-.11.18-.44.06-.35-.14A10.81,10.81,0,0,1,168.36,238.36Z" transform="translate(-19.17 -54.37)"/><path class="cls-35" d="M199,211.43c2.4-2.46,6.78-1.85,9.82-2.92a14.43,14.43,0,0,0,7.76-7.24,9.64,9.64,0,0,0,1.13-6.06,24.06,24.06,0,0,0-2-5.29,12.63,12.63,0,0,1-.55-9.5s-.05,0-.05,0a4.47,4.47,0,0,1,2.25-3.92,20.9,20.9,0,0,1,2.05-.75c.64-.23,2.3-1,1.83-1.9-.27-.54-1-.57-1.5-.59s-1.11,0-1.66,0a16.67,16.67,0,0,1-3-.31,7.5,7.5,0,0,1-4.53-2.58c-.05-.07,0-.16.09-.09a7.4,7.4,0,0,0,4.16,2.09,19.54,19.54,0,0,0,2.85.22,25.78,25.78,0,0,1,2.64.09c1.19.16,2.09,1.25,1.26,2.35s-2.1,1.26-3.23,1.65a3.89,3.89,0,0,0-2,1.34,7.19,7.19,0,0,0-.81,2s.1.07.08.14c-1.21,4.56.82,8.06,2.46,12.14a11.23,11.23,0,0,1-.63,10.06,15.78,15.78,0,0,1-7,6.91,21.21,21.21,0,0,1-5.14,1.49c-2,.38-3.91,1.05-5.88,1.4A.42.42,0,0,1,199,211.43Z" transform="translate(-19.17 -54.37)"/><path class="cls-36" d="M202.37,206.07a15,15,0,0,0,8.66-4.65,11,11,0,0,0,2.21-10.09c-.86-2.76-3-5.46-1.59-8.43h0a9.85,9.85,0,0,1,.36-1,6.83,6.83,0,0,0,.24-1.26c.09-.76.11-1.53.26-2.28a3.94,3.94,0,0,1,.85-1.88,5,5,0,0,1,1.82-1.15c.24-.11,1.24-.44,1-.84-.13-.23-1-.19-1.3-.22a9.9,9.9,0,0,1-2.58-.55,4.74,4.74,0,0,1-3.05-2.66c0-.13.15-.18.19-.06a3.88,3.88,0,0,0,2,2.13,7.51,7.51,0,0,0,3.05.51c.63,0,1.71-.09,2.21.37a.89.89,0,0,1-.16,1.32,13.6,13.6,0,0,1-2.16,1,3.24,3.24,0,0,0-1.51,2.33c-.17.8-.16,1.63-.28,2.43-.09.6-.22,1.66-.8,2,0,0,0,0-.05,0-1.33,3.59,2.27,6.82,2.78,10.28a11.41,11.41,0,0,1-2.41,8.52,14.6,14.6,0,0,1-7.23,4.88c-1.67.52-3.44.65-5.06,1.33s-2.91,2.12-4.41,3.13c-.2.13-.42-.13-.32-.32C196.66,208,199.27,206.73,202.37,206.07Z" transform="translate(-19.17 -54.37)"/><path class="cls-37" d="M179.36,226.71a15.66,15.66,0,0,1,1.82-1.17c.66-.42,1.3-.86,1.94-1.32,1.34-1,2.6-2,3.86-3.1a41.66,41.66,0,0,0,6.57-7.09c.08-.12.28,0,.19.11a41.5,41.5,0,0,1-6.25,7.49,32.53,32.53,0,0,1-3.75,3c-.68.46-1.37.91-2.07,1.33a9.52,9.52,0,0,1-2.12,1.11A.19.19,0,0,1,179.36,226.71Z" transform="translate(-19.17 -54.37)"/><path class="cls-38" d="M201.42,200.79c.8-1.66,2.78-1.88,4.4-2.12a5.2,5.2,0,0,0,3-1.19,3.54,3.54,0,0,0,.95-3.15c-.08-.25-.32-1.43-1-.27a1.32,1.32,0,0,0-.08.44,2.84,2.84,0,0,1-.1.57,3,3,0,0,1-.52,1,2.33,2.33,0,0,1-2,1c-.07,0-.12-.11,0-.15a3.58,3.58,0,0,0,2-1.54c.3-.57.13-1.49.63-1.95a.88.88,0,0,1,1.31.29,2.93,2.93,0,0,1,.18,2,3.82,3.82,0,0,1-2.94,3c-1.72.47-4.19.29-5.23,2a1.65,1.65,0,0,0,.77,2.54,3.9,3.9,0,0,0,3-.63,12.13,12.13,0,0,0,4.18-4c1.09-1.64,1.92-3.65,1.36-5.64a3.52,3.52,0,0,0-1.61-2.19,1.72,1.72,0,0,0-2.54.68,12.38,12.38,0,0,0-.31,2.65,3.57,3.57,0,0,1-1.23,2.24,1.42,1.42,0,0,1-1.72.23c-.52-.41-.43-1.17-.33-1.74a0,0,0,0,1,.08,0,1.9,1.9,0,0,0,.17,1.31c.57.82,1.53.12,2-.47a4.75,4.75,0,0,0,.7-2.9c0-1.36.47-2.82,2.09-2.85a3.56,3.56,0,0,1,3.24,2.69,6.66,6.66,0,0,1-.7,5.1,13.41,13.41,0,0,1-3.56,4.29c-1.24,1-3,2.11-4.68,1.75A2.11,2.11,0,0,1,201.42,200.79Z" transform="translate(-19.17 -54.37)"/><path class="cls-39" d="M150.09,217.8c.33,6.49.49,13,.61,19.46s.12,13,.19,19.45-.06,13-.18,19.46l-.23,9.73c-.13,3.24-.21,6.48-.39,9.73-.18-3.25-.26-6.49-.39-9.73l-.22-9.73c-.13-6.48-.12-13-.19-19.46s.06-13,.19-19.45S149.76,224.29,150.09,217.8Z" transform="translate(-19.17 -54.37)"/><path class="cls-40" d="M147.83,214a5.81,5.81,0,0,0-3.55.72,17.16,17.16,0,0,0-3.78,2.19,16.78,16.78,0,0,0-5.06,6.3,15.56,15.56,0,0,0,1.95,16.21c.09.11.25,0,.18-.14-2.73-4.65-3.38-10.9-1-15.82a15.83,15.83,0,0,1,8.17-7.63,15.47,15.47,0,0,0,3.17-1.2A.35.35,0,0,0,147.83,214Z" transform="translate(-19.17 -54.37)"/><path class="cls-41" d="M152.66,214a5.78,5.78,0,0,1,3.55.72,17.23,17.23,0,0,1,3.79,2.19,16.75,16.75,0,0,1,5.05,6.3,15.54,15.54,0,0,1-2,16.21c-.08.11-.24,0-.18-.14,2.74-4.65,3.39-10.9,1-15.82a15.77,15.77,0,0,0-8.16-7.63,15.47,15.47,0,0,1-3.17-1.2A.35.35,0,0,1,152.66,214Z" transform="translate(-19.17 -54.37)"/><path class="cls-42" d="M148.38,216.85a4.5,4.5,0,0,0-2.74.56,13.18,13.18,0,0,0-2.93,1.7A12.88,12.88,0,0,0,138.8,224a12,12,0,0,0,1.51,12.53c.06.08.19,0,.14-.1a13.36,13.36,0,0,1-.77-12.24,12.21,12.21,0,0,1,6.32-5.9,11.47,11.47,0,0,0,2.45-.93A.27.27,0,0,0,148.38,216.85Z" transform="translate(-19.17 -54.37)"/><path class="cls-43" d="M152.11,216.85a4.53,4.53,0,0,1,2.75.56,13.4,13.4,0,0,1,2.93,1.7,12.86,12.86,0,0,1,3.9,4.87,12,12,0,0,1-1.5,12.53.09.09,0,0,1-.14-.1,13.36,13.36,0,0,0,.76-12.24,12.08,12.08,0,0,0-3.71-4.44,12.3,12.3,0,0,0-2.6-1.46,11.47,11.47,0,0,1-2.45-.93A.27.27,0,0,1,152.11,216.85Z" transform="translate(-19.17 -54.37)"/><path class="cls-44" d="M148.72,237.14a3.33,3.33,0,0,1-2-.41,9.75,9.75,0,0,1-2.14-1.25,9.32,9.32,0,0,1-2.87-3.57,8.84,8.84,0,0,1,1.1-9.19c0-.06.14,0,.11.08a9.79,9.79,0,0,0-.56,9,8.74,8.74,0,0,0,2.72,3.25,9.4,9.4,0,0,0,1.9,1.08,8.46,8.46,0,0,1,1.8.68A.2.2,0,0,1,148.72,237.14Z" transform="translate(-19.17 -54.37)"/><path class="cls-45" d="M151.46,237.14a3.33,3.33,0,0,0,2-.41,9.82,9.82,0,0,0,2.15-1.25,9.39,9.39,0,0,0,2.86-3.57,8.8,8.8,0,0,0-1.1-9.19c0-.06-.14,0-.1.08a9.79,9.79,0,0,1,.56,9,8.86,8.86,0,0,1-2.73,3.25,9.4,9.4,0,0,1-1.9,1.08,8.46,8.46,0,0,0-1.8.68A.2.2,0,0,0,151.46,237.14Z" transform="translate(-19.17 -54.37)"/><path class="cls-46" d="M146.05,248.12a7.44,7.44,0,0,0-2.3-2.37,16.71,16.71,0,0,1-3.64-2.9.08.08,0,0,0-.12.1,13.42,13.42,0,0,0,2.7,2.83,11.2,11.2,0,0,1,2.59,2.55,8,8,0,0,1,1,6.4c-.3,1.09-.95,2.62-2.1,3a3.75,3.75,0,0,1-4-1.24c-.9-1.37.17-2.48.4-3.85a9.73,9.73,0,0,0-.43-3.93c0-.19-.32-.1-.29.09a8,8,0,0,1-.12,4.4c-.44,1-1,1.85-.68,3,.6,2.07,3.46,2.93,5.35,2.27s2.63-3,2.85-4.72A8.84,8.84,0,0,0,146.05,248.12Z" transform="translate(-19.17 -54.37)"/><path class="cls-47" d="M154.55,248.12a7.54,7.54,0,0,1,2.3-2.37,16.48,16.48,0,0,0,3.64-2.9.08.08,0,0,1,.12.1,13.42,13.42,0,0,1-2.7,2.83,11.6,11.6,0,0,0-2.59,2.55,8,8,0,0,0-1,6.4c.3,1.09.94,2.62,2.09,3a3.74,3.74,0,0,0,4-1.24c.9-1.37-.17-2.48-.4-3.85a9.73,9.73,0,0,1,.43-3.93c.05-.19.32-.1.29.09a8.11,8.11,0,0,0,.13,4.4c.43,1,1,1.85.68,3-.61,2.07-3.47,2.93-5.36,2.27s-2.63-3-2.85-4.72A8.84,8.84,0,0,1,154.55,248.12Z" transform="translate(-19.17 -54.37)"/><path class="cls-48" d="M198.06,161.58a46.6,46.6,0,0,0-24.79-17.88c-5.38-1.64-10.77-1.71-16.3-2.4a22.29,22.29,0,0,1-4.72-1.14c7-4,14.47-11.81,9.81-18.53-2.46-3.55-7.69-3.79-11.39-2.32-.22.08-.43.18-.65.27l-.64-.27c-3.7-1.47-8.93-1.23-11.4,2.32-4.65,6.72,2.85,14.56,9.82,18.53a22.44,22.44,0,0,1-4.72,1.14c-5.53.69-10.92.76-16.31,2.4A46.58,46.58,0,0,0,102,161.58c-6.65,9.83-5.55,21.62-2.21,32.42a.19.19,0,0,0,.37-.1c-1.53-6.93-2.51-14.49-1.06-21.52s5.88-13,11.31-17.76a46,46,0,0,1,17.37-9.41c6.16-1.78,12.54-1.28,18.73-2.66a18,18,0,0,0,3.52-1.24,18.34,18.34,0,0,0,3.53,1.24c6.19,1.38,12.56.88,18.72,2.66a45.89,45.89,0,0,1,17.37,9.41c5.44,4.71,9.84,10.61,11.32,17.76s.46,14.59-1.06,21.52a.19.19,0,0,0,.37.1C203.61,183.2,204.71,171.41,198.06,161.58Zm-58.59-32.7c-1.31-4.3,1.44-7.76,5.82-7.42a13.4,13.4,0,0,1,2.54.53s0,0,0,0a2.77,2.77,0,0,0,.36,1.51,15.24,15.24,0,0,0-1.46,1.51c-1.14,2.07-.34,5.15,2.43,4.65a.54.54,0,0,0,.13-1c-1.83-.78-.54-2.22.74-3.34,1.28,1.12,2.58,2.56.75,3.34a.54.54,0,0,0,.13,1c2.76.5,3.57-2.58,2.43-4.65a14.49,14.49,0,0,0-1.47-1.51,2.69,2.69,0,0,0,.37-1.51s0,0,0,0a13.24,13.24,0,0,1,2.54-.53c4.37-.34,7.13,3.12,5.81,7.42-1.42,4.64-5.82,8.26-10.55,10.4C145.29,137.14,140.9,133.52,139.47,128.88Z" transform="translate(-19.17 -54.37)"/><path class="cls-49" d="M149.82,130.54a1.64,1.64,0,0,0,0,3.27A1.64,1.64,0,0,0,149.82,130.54Z" transform="translate(-19.17 -54.37)"/><path class="cls-50" d="M198.59,200.57a55,55,0,0,1-12.38,17.73,61.19,61.19,0,0,1-8.52,7c-2.56,1.7-5.29,3.06-8,4.55a17.88,17.88,0,0,0-1.47-8.08,19,19,0,0,0-6.28-7.66,18.51,18.51,0,0,0-4.31-2.33c-.42-.16-.88-.32-1.35-.47a18.15,18.15,0,0,0-6-35.29h-.26a18.15,18.15,0,0,0-6,35.29c-.47.15-.93.31-1.35.47a18.51,18.51,0,0,0-4.31,2.33,19,19,0,0,0-6.28,7.66,17.88,17.88,0,0,0-1.47,8.08c-2.67-1.49-5.4-2.85-8-4.55a61.19,61.19,0,0,1-8.52-7,55,55,0,0,1-12.38-17.73c-.07-.16-.34,0-.28.12a55.69,55.69,0,0,0,11.79,18.48,50.33,50.33,0,0,0,8.56,7.05,35.62,35.62,0,0,0,8.87,4.55,17.89,17.89,0,0,0,4.35,10c.17.19.51-.07.36-.28-3.56-5.23-4.47-12.55-1.7-18.33a17.24,17.24,0,0,1,5.74-6.68,18.71,18.71,0,0,1,4.11-2.15c1.26-.47,2.68-.56,3.82-1.27a18.9,18.9,0,0,0,2.62.21h.26a18.9,18.9,0,0,0,2.62-.21c1.14.71,2.56.8,3.82,1.27a18.71,18.71,0,0,1,4.11,2.15,17.24,17.24,0,0,1,5.74,6.68c2.77,5.78,1.86,13.1-1.7,18.33-.15.21.19.47.36.28a17.89,17.89,0,0,0,4.35-10,35.62,35.62,0,0,0,8.87-4.55,50.33,50.33,0,0,0,8.56-7.05,55.69,55.69,0,0,0,11.79-18.48C198.93,200.52,198.66,200.41,198.59,200.57Z" transform="translate(-19.17 -54.37)"/><path class="cls-51" d="M185.13,193.87c-6.27,0-6.28,9.74,0,9.74S191.4,193.87,185.13,193.87Z" transform="translate(-19.17 -54.37)"/><path class="cls-52" d="M147.53,54.37c-8.42,0-8.43,13.09,0,13.09S156,54.37,147.53,54.37Z" transform="translate(-19.17 -54.37)"/><path class="cls-53" d="M116.88,193.87c-6.27,0-6.28,9.74,0,9.74S123.15,193.87,116.88,193.87Z" transform="translate(-19.17 -54.37)"/><path class="cls-54" d="M92.44,118.91a1.63,1.63,0,0,0,0,3.25A1.63,1.63,0,0,0,92.44,118.91Z" transform="translate(-19.17 -54.37)"/><path class="cls-55" d="M80.14,158.74a1.62,1.62,0,0,0,0,3.24A1.62,1.62,0,0,0,80.14,158.74Z" transform="translate(-19.17 -54.37)"/><path class="cls-56" d="M34,89.55a1.63,1.63,0,0,0,0,3.25A1.63,1.63,0,0,0,34,89.55Z" transform="translate(-19.17 -54.37)"/><path class="cls-57" d="M207.56,118.91a1.63,1.63,0,0,1,0,3.25A1.63,1.63,0,0,1,207.56,118.91Z" transform="translate(-19.17 -54.37)"/><path class="cls-58" d="M219.86,158.74a1.62,1.62,0,0,1,0,3.24A1.62,1.62,0,0,1,219.86,158.74Z" transform="translate(-19.17 -54.37)"/><path class="cls-59" d="M266,89.55a1.63,1.63,0,0,1,0,3.25A1.63,1.63,0,0,1,266,89.55Z" transform="translate(-19.17 -54.37)"/><path class="cls-60" d="M138.78,239.51a1.62,1.62,0,0,0,0,3.24A1.62,1.62,0,0,0,138.78,239.51Z" transform="translate(-19.17 -54.37)"/><path class="cls-61" d="M161.63,239.56a1.63,1.63,0,0,0,0,3.25A1.63,1.63,0,0,0,161.63,239.56Z" transform="translate(-19.17 -54.37)"/><path class="cls-62" d="M219,162.51a4.47,4.47,0,0,0,3.61-.53,4.88,4.88,0,0,0,1.93-3,4.74,4.74,0,0,0-.51-3.37,4.37,4.37,0,0,0-2.62-1.91,4.32,4.32,0,0,0-3.22.32,4.74,4.74,0,0,0-2.15,2.64,4.85,4.85,0,0,0,.13,3.57A4.44,4.44,0,0,0,219,162.51Zm0,0a4.91,4.91,0,0,1-3-2.22,5.31,5.31,0,0,1-.56-3.8,5.42,5.42,0,0,1,2.18-3.36,5.15,5.15,0,0,1,7.3,2,5.57,5.57,0,0,1-2.24,7A4.92,4.92,0,0,1,219,162.51Z" transform="translate(-19.17 -54.37)"/><path class="cls-63" d="M82.65,161.83a4.41,4.41,0,0,0,1.69-3.23A4.85,4.85,0,0,0,83,155.28a4.7,4.7,0,0,0-3-1.56,4.52,4.52,0,0,0-4.71,3.79,4.78,4.78,0,0,0,.88,3.29,4.83,4.83,0,0,0,3,2A4.4,4.4,0,0,0,82.65,161.83Zm0,0A4.88,4.88,0,0,1,79.11,163a5.34,5.34,0,0,1-3.41-1.78,5.47,5.47,0,0,1-1.44-3.74,5.15,5.15,0,0,1,5.89-4.74,5.45,5.45,0,0,1,3.35,2.2,5.36,5.36,0,0,1,1,3.71A4.85,4.85,0,0,1,82.65,161.83Z" transform="translate(-19.17 -54.37)"/><polygon class="cls-64" points="128.14 5.39 127.27 3.82 127.09 3.5 127.07 3.45 126.97 3.45 126.95 3.5 126.77 3.82 126.75 3.86 126.74 3.86 126.95 4.23 126.31 5.39 126.24 5.51 126.79 5.51 126.81 5.47 127.22 4.72 127.23 4.73 127.64 5.47 127.66 5.51 128.21 5.51 128.14 5.39"/><path class="cls-64" d="M145.41,61.94h.44v-.52l.19-.2.7.7,0,0,0,1.39a.75.75,0,0,1-.52.24,1.21,1.21,0,0,1-.43-.07v-.45h-.44v.68l0,0a1.22,1.22,0,0,0,.36.18,1.5,1.5,0,0,0,.47.08,1.46,1.46,0,0,0,.72-.19,1.13,1.13,0,0,0,.37-.31V61.94h0l-.14-.14-.89-.89.89-.88.14-.14h-.55l-1.42,1.43Z" transform="translate(-19.17 -54.37)"/><polygon class="cls-64" points="126.24 5.51 126.24 6.55 126.79 6 126.79 5.51 126.24 5.51"/><path class="cls-64" d="M148.84,62V60a1,1,0,0,0,.4-.18.86.86,0,0,0,.14-.13.62.62,0,0,0,.17-.44V58h-.44v1.12a.5.5,0,0,1-.47.5h0a.5.5,0,0,1-.47-.5V58h-.43v1.28a.64.64,0,0,0,.17.44.8.8,0,0,0,.13.13,1,1,0,0,0,.4.18v2a1,1,0,1,0,.44,0Zm-.22,1.6a.6.6,0,0,1,0-1.19.6.6,0,1,1,0,1.19Z" transform="translate(-19.17 -54.37)"/></svg>