<svg id="Layer_1" data-name="Layer 1" xmlns="http://www.w3.org/2000/svg" xmlns:xlink="http://www.w3.org/1999/xlink" viewBox="0 0 173.11 320.59"><defs><style>.cls-1{fill:url(#linear-gradient);}.cls-2{fill:url(#linear-gradient-2);}.cls-3{fill:url(#linear-gradient-3);}.cls-4{fill:url(#linear-gradient-4);}.cls-5{fill:url(#linear-gradient-5);}.cls-6{fill:url(#linear-gradient-6);}.cls-7{fill:url(#linear-gradient-7);}.cls-8{fill:url(#linear-gradient-8);}.cls-9{fill:url(#linear-gradient-9);}.cls-10{fill:url(#linear-gradient-10);}.cls-11{fill:url(#linear-gradient-11);}.cls-12{fill:url(#linear-gradient-12);}.cls-13{fill:url(#linear-gradient-13);}.cls-14{fill:url(#linear-gradient-14);}.cls-15{fill:url(#linear-gradient-15);}.cls-16{fill:url(#linear-gradient-16);}.cls-17{fill:url(#linear-gradient-17);}.cls-18{fill:url(#linear-gradient-18);}.cls-19{fill:url(#linear-gradient-19);}.cls-20{fill:url(#linear-gradient-20);}.cls-21{fill:url(#linear-gradient-21);}.cls-22{fill:url(#linear-gradient-22);}.cls-23{fill:url(#linear-gradient-23);}.cls-24{fill:url(#linear-gradient-24);}.cls-25{fill:url(#linear-gradient-25);}.cls-26{fill:url(#linear-gradient-26);}.cls-27{fill:url(#linear-gradient-27);}.cls-28{fill:url(#linear-gradient-28);}.cls-29{fill:url(#linear-gradient-29);}.cls-30{fill:url(#linear-gradient-30);}.cls-31{fill:url(#linear-gradient-31);}.cls-32{fill:url(#linear-gradient-32);}.cls-33{fill:url(#linear-gradient-33);}.cls-34{fill:url(#linear-gradient-34);}.cls-35{fill:url(#linear-gradient-35);}.cls-36{fill:url(#linear-gradient-36);}.cls-37{fill:url(#linear-gradient-37);}.cls-38{fill:url(#linear-gradient-38);}.cls-39{fill:url(#linear-gradient-39);}.cls-40{fill:url(#linear-gradient-40);}.cls-41{fill:url(#linear-gradient-41);}.cls-42{fill:url(#linear-gradient-42);}.cls-43{fill:url(#linear-gradient-43);}.cls-44{fill:url(#linear-gradient-44);}.cls-45{fill:url(#linear-gradient-45);}.cls-46{fill:url(#linear-gradient-46);}.cls-47{fill:url(#linear-gradient-47);}.cls-48{fill:url(#linear-gradient-48);}.cls-49{fill:url(#linear-gradient-49);}.cls-50{fill:url(#linear-gradient-50);}.cls-51{fill:url(#linear-gradient-51);}.cls-52{fill:url(#linear-gradient-52);}.cls-53{fill:url(#linear-gradient-53);}.cls-54{fill:url(#linear-gradient-54);}.cls-55{fill:url(#linear-gradient-55);}.cls-56{fill:url(#linear-gradient-56);}.cls-57{fill:url(#linear-gradient-57);}.cls-58{fill:url(#linear-gradient-58);}.cls-59{fill:url(#linear-gradient-59);}.cls-60{fill:url(#linear-gradient-60);}.cls-61{fill:url(#linear-gradient-61);}.cls-62{fill:url(#linear-gradient-62);}.cls-63{fill:url(#linear-gradient-63);}.cls-64{fill:url(#linear-gradient-64);}.cls-65{fill:url(#linear-gradient-65);}.cls-66{fill:url(#linear-gradient-66);}.cls-67{fill:url(#linear-gradient-67);}.cls-68{fill:url(#linear-gradient-68);}.cls-69{fill:url(#linear-gradient-69);}.cls-70{fill:url(#linear-gradient-70);}.cls-71{fill:url(#linear-gradient-71);}.cls-72{fill:url(#linear-gradient-72);}.cls-73{fill:url(#linear-gradient-73);}.cls-74{fill:url(#linear-gradient-74);}.cls-75{fill:url(#linear-gradient-75);}.cls-76{fill:url(#linear-gradient-76);}.cls-77{fill:url(#linear-gradient-77);}.cls-78{fill:url(#linear-gradient-78);}.cls-79{fill:url(#linear-gradient-79);}.cls-80{fill:url(#linear-gradient-80);}.cls-81{fill:url(#linear-gradient-81);}.cls-82{fill:url(#linear-gradient-82);}.cls-83{fill:url(#linear-gradient-83);}.cls-84{fill:url(#linear-gradient-84);}.cls-85{fill:url(#linear-gradient-85);}.cls-86{fill:url(#linear-gradient-86);}.cls-87{fill:url(#linear-gradient-87);}.cls-88{fill:url(#linear-gradient-88);}.cls-89{fill:url(#linear-gradient-89);}.cls-90{fill:url(#linear-gradient-90);}.cls-91{fill:url(#linear-gradient-91);}.cls-92{fill:url(#linear-gradient-92);}.cls-93{fill:url(#linear-gradient-93);}.cls-94{fill:url(#linear-gradient-94);}.cls-95{fill:url(#linear-gradient-95);}.cls-96{fill:url(#linear-gradient-96);}.cls-97{fill:url(#linear-gradient-97);}.cls-98{fill:url(#linear-gradient-98);}.cls-99{fill:url(#linear-gradient-99);}.cls-100{fill:url(#linear-gradient-100);}.cls-101{fill:url(#linear-gradient-101);}.cls-102{fill:url(#linear-gradient-102);}.cls-103{fill:url(#linear-gradient-103);}.cls-104{fill:url(#linear-gradient-104);}.cls-105{fill:url(#linear-gradient-105);}.cls-106{fill:url(#linear-gradient-106);}.cls-107{fill:url(#linear-gradient-107);}</style><linearGradient id="linear-gradient" x1="154.35" y1="165.21" x2="154.35" y2="159.03" gradientUnits="userSpaceOnUse"><stop offset="0" stop-color="#0f627a"/><stop offset="0.38" stop-color="#2c8e95"/><stop offset="0.99" stop-color="#6ae9cc"/></linearGradient><linearGradient id="linear-gradient-2" x1="132.55" y1="158.53" x2="132.55" y2="154.55" xlink:href="#linear-gradient"/><linearGradient id="linear-gradient-3" x1="132.47" y1="164.02" x2="132.47" y2="158.33" xlink:href="#linear-gradient"/><linearGradient id="linear-gradient-4" x1="132.9" y1="164.1" x2="132.9" y2="161.72" xlink:href="#linear-gradient"/><linearGradient id="linear-gradient-5" x1="133.43" y1="166.39" x2="133.43" y2="160.68" xlink:href="#linear-gradient"/><linearGradient id="linear-gradient-6" x1="88.15" y1="222.39" x2="88.15" y2="218.68" xlink:href="#linear-gradient"/><linearGradient id="linear-gradient-7" x1="211.08" y1="102.76" x2="211.08" y2="99.05" xlink:href="#linear-gradient"/><linearGradient id="linear-gradient-8" x1="141.73" y1="188.34" x2="141.73" y2="184.63" xlink:href="#linear-gradient"/><linearGradient id="linear-gradient-9" x1="157.41" y1="135.78" x2="157.41" y2="132.07" xlink:href="#linear-gradient"/><linearGradient id="linear-gradient-10" x1="157.1" y1="43.49" x2="157.1" y2="39.78" xlink:href="#linear-gradient"/><linearGradient id="linear-gradient-11" x1="155.39" y1="18.41" x2="155.39" y2="14.7" xlink:href="#linear-gradient"/><linearGradient id="linear-gradient-12" x1="136.64" y1="310.22" x2="136.64" y2="306.51" xlink:href="#linear-gradient"/><linearGradient id="linear-gradient-13" x1="138.34" y1="335.3" x2="138.34" y2="331.59" xlink:href="#linear-gradient"/><linearGradient id="linear-gradient-14" x1="141.83" y1="269.56" x2="141.83" y2="254.04" xlink:href="#linear-gradient"/><linearGradient id="linear-gradient-15" x1="146.01" y1="253.24" x2="146.01" y2="252.01" xlink:href="#linear-gradient"/><linearGradient id="linear-gradient-16" x1="93.5" y1="154.77" x2="93.5" y2="141.25" xlink:href="#linear-gradient"/><linearGradient id="linear-gradient-17" x1="111.33" y1="126.86" x2="111.33" y2="118.32" xlink:href="#linear-gradient"/><linearGradient id="linear-gradient-18" x1="208.52" y1="180.11" x2="208.52" y2="166.6" xlink:href="#linear-gradient"/><linearGradient id="linear-gradient-19" x1="190.69" y1="203.05" x2="190.69" y2="194.51" xlink:href="#linear-gradient"/><linearGradient id="linear-gradient-20" x1="137.51" y1="181.88" x2="137.51" y2="134.08" gradientUnits="userSpaceOnUse"><stop offset="0" stop-color="#084738"/><stop offset="0.11" stop-color="#104d3a"/><stop offset="0.29" stop-color="#255d41"/><stop offset="0.49" stop-color="#47774c"/><stop offset="0.55" stop-color="#52804f"/><stop offset="1" stop-color="#e3c56a"/></linearGradient><linearGradient id="linear-gradient-21" x1="163.56" y1="224.55" x2="163.56" y2="135.29" xlink:href="#linear-gradient-20"/><linearGradient id="linear-gradient-22" x1="139.78" y1="253.31" x2="139.78" y2="196.56" xlink:href="#linear-gradient-20"/><linearGradient id="linear-gradient-23" x1="149.13" y1="243" x2="149.13" y2="208.27" xlink:href="#linear-gradient-20"/><linearGradient id="linear-gradient-24" x1="135.46" y1="187.43" x2="135.46" y2="98.17" xlink:href="#linear-gradient-20"/><linearGradient id="linear-gradient-25" x1="159.24" y1="126.17" x2="159.24" y2="69.41" xlink:href="#linear-gradient-20"/><linearGradient id="linear-gradient-26" x1="149.89" y1="114.45" x2="149.89" y2="79.72" xlink:href="#linear-gradient-20"/><linearGradient id="linear-gradient-27" x1="155.49" y1="180.74" x2="155.49" y2="139.01" xlink:href="#linear-gradient-20"/><linearGradient id="linear-gradient-28" x1="153.22" y1="179.85" x2="153.22" y2="153.33" xlink:href="#linear-gradient-20"/><linearGradient id="linear-gradient-29" x1="151.06" y1="168.08" x2="151.06" y2="147.5" xlink:href="#linear-gradient-20"/><linearGradient id="linear-gradient-30" x1="154.01" y1="169.6" x2="154.01" y2="155.7" xlink:href="#linear-gradient-20"/><linearGradient id="linear-gradient-31" x1="156.87" y1="194.21" x2="156.87" y2="185.3" xlink:href="#linear-gradient-20"/><linearGradient id="linear-gradient-32" x1="166.34" y1="131.06" x2="166.34" y2="80.37" xlink:href="#linear-gradient-20"/><linearGradient id="linear-gradient-33" x1="134.55" y1="229.1" x2="134.55" y2="189.72" xlink:href="#linear-gradient-20"/><linearGradient id="linear-gradient-34" x1="134.67" y1="271.85" x2="134.67" y2="235.01" xlink:href="#linear-gradient-20"/><linearGradient id="linear-gradient-35" x1="149.74" y1="277.94" x2="149.74" y2="250.71" xlink:href="#linear-gradient-20"/><linearGradient id="linear-gradient-36" x1="133.99" y1="160.62" x2="133.99" y2="159.39" xlink:href="#linear-gradient-20"/><linearGradient id="linear-gradient-37" x1="165.52" y1="167.37" x2="165.52" y2="160.36" xlink:href="#linear-gradient-20"/><linearGradient id="linear-gradient-38" x1="102.76" y1="209.53" x2="102.76" y2="202.35" xlink:href="#linear-gradient-20"/><linearGradient id="linear-gradient-39" x1="109.8" y1="208.5" x2="109.8" y2="196.31" xlink:href="#linear-gradient-20"/><linearGradient id="linear-gradient-40" x1="124.47" y1="205" x2="124.47" y2="188.87" xlink:href="#linear-gradient-20"/><linearGradient id="linear-gradient-41" x1="94.82" y1="218.46" x2="94.82" y2="202.71" xlink:href="#linear-gradient-20"/><linearGradient id="linear-gradient-42" x1="196.48" y1="119.09" x2="196.48" y2="111.91" xlink:href="#linear-gradient-20"/><linearGradient id="linear-gradient-43" x1="189.43" y1="125.12" x2="189.43" y2="112.93" xlink:href="#linear-gradient-20"/><linearGradient id="linear-gradient-44" x1="174.77" y1="132.56" x2="174.77" y2="116.44" xlink:href="#linear-gradient-20"/><linearGradient id="linear-gradient-45" x1="204.41" y1="118.72" x2="204.41" y2="102.98" xlink:href="#linear-gradient-20"/><linearGradient id="linear-gradient-46" x1="120.56" y1="186.14" x2="120.56" y2="120.98" xlink:href="#linear-gradient-20"/><linearGradient id="linear-gradient-47" x1="172.78" y1="204.6" x2="172.78" y2="136.1" xlink:href="#linear-gradient-20"/><linearGradient id="linear-gradient-48" x1="155.84" y1="64" x2="155.84" y2="48.72" xlink:href="#linear-gradient-20"/><linearGradient id="linear-gradient-49" x1="155.47" y1="57.09" x2="155.47" y2="46.37" xlink:href="#linear-gradient-20"/><linearGradient id="linear-gradient-50" x1="152.84" y1="76.23" x2="152.84" y2="59.26" xlink:href="#linear-gradient-20"/><linearGradient id="linear-gradient-51" x1="155.63" y1="47.67" x2="155.63" y2="20.72" xlink:href="#linear-gradient-20"/><linearGradient id="linear-gradient-52" x1="151.08" y1="65.52" x2="151.08" y2="49.89" xlink:href="#linear-gradient-20"/><linearGradient id="linear-gradient-53" x1="137.89" y1="301.28" x2="137.89" y2="286" xlink:href="#linear-gradient-20"/><linearGradient id="linear-gradient-54" x1="138.26" y1="303.63" x2="138.26" y2="292.91" xlink:href="#linear-gradient-20"/><linearGradient id="linear-gradient-55" x1="140.89" y1="290.74" x2="140.89" y2="273.77" xlink:href="#linear-gradient-20"/><linearGradient id="linear-gradient-56" x1="138.1" y1="329.28" x2="138.1" y2="302.33" xlink:href="#linear-gradient-20"/><linearGradient id="linear-gradient-57" x1="142.65" y1="300.11" x2="142.65" y2="284.48" xlink:href="#linear-gradient-20"/><linearGradient id="linear-gradient-58" x1="93.75" y1="184.78" x2="93.75" y2="155.79" xlink:href="#linear-gradient-20"/><linearGradient id="linear-gradient-59" x1="112.33" y1="152.13" x2="112.33" y2="100.34" xlink:href="#linear-gradient-20"/><linearGradient id="linear-gradient-60" x1="106.06" y1="126.9" x2="106.06" y2="111.18" xlink:href="#linear-gradient-20"/><linearGradient id="linear-gradient-61" x1="133.41" y1="112" x2="133.41" y2="110.22" xlink:href="#linear-gradient-20"/><linearGradient id="linear-gradient-62" x1="82.59" y1="158.22" x2="82.59" y2="135.27" xlink:href="#linear-gradient-20"/><linearGradient id="linear-gradient-63" x1="97.51" y1="134.09" x2="97.51" y2="127.46" xlink:href="#linear-gradient-20"/><linearGradient id="linear-gradient-64" x1="76.17" y1="155.07" x2="76.17" y2="140.93" xlink:href="#linear-gradient-20"/><linearGradient id="linear-gradient-65" x1="90.56" y1="124.57" x2="90.56" y2="112.11" xlink:href="#linear-gradient-20"/><linearGradient id="linear-gradient-66" x1="92.07" y1="179.64" x2="92.07" y2="173.53" xlink:href="#linear-gradient-20"/><linearGradient id="linear-gradient-67" x1="87.05" y1="181.7" x2="87.05" y2="178.17" xlink:href="#linear-gradient-20"/><linearGradient id="linear-gradient-68" x1="208.27" y1="165.58" x2="208.27" y2="136.59" xlink:href="#linear-gradient-20"/><linearGradient id="linear-gradient-69" x1="189.68" y1="221.02" x2="189.68" y2="169.24" xlink:href="#linear-gradient-20"/><linearGradient id="linear-gradient-70" x1="195.96" y1="210.18" x2="195.96" y2="194.47" xlink:href="#linear-gradient-20"/><linearGradient id="linear-gradient-71" x1="168.61" y1="211.15" x2="168.61" y2="209.36" xlink:href="#linear-gradient-20"/><linearGradient id="linear-gradient-72" x1="219.43" y1="186.09" x2="219.43" y2="163.14" xlink:href="#linear-gradient-20"/><linearGradient id="linear-gradient-73" x1="204.51" y1="193.91" x2="204.51" y2="187.27" xlink:href="#linear-gradient-20"/><linearGradient id="linear-gradient-74" x1="225.85" y1="180.43" x2="225.85" y2="166.29" xlink:href="#linear-gradient-20"/><linearGradient id="linear-gradient-75" x1="211.46" y1="209.26" x2="211.46" y2="196.8" xlink:href="#linear-gradient-20"/><linearGradient id="linear-gradient-76" x1="209.95" y1="147.83" x2="209.95" y2="141.73" xlink:href="#linear-gradient-20"/><linearGradient id="linear-gradient-77" x1="214.97" y1="143.2" x2="214.97" y2="139.67" xlink:href="#linear-gradient-20"/><linearGradient id="linear-gradient-78" x1="177.65" y1="236.06" x2="177.65" y2="217.98" xlink:href="#linear-gradient-20"/><linearGradient id="linear-gradient-79" x1="171.72" y1="239.68" x2="171.72" y2="234.38" xlink:href="#linear-gradient-20"/><linearGradient id="linear-gradient-80" x1="171.38" y1="242.33" x2="171.38" y2="238.52" xlink:href="#linear-gradient-20"/><linearGradient id="linear-gradient-81" x1="174.66" y1="260.08" x2="174.66" y2="236.58" xlink:href="#linear-gradient-20"/><linearGradient id="linear-gradient-82" x1="175.34" y1="262.57" x2="175.34" y2="258.04" xlink:href="#linear-gradient-20"/><linearGradient id="linear-gradient-83" x1="175.13" y1="272.74" x2="175.13" y2="260.87" xlink:href="#linear-gradient-20"/><linearGradient id="linear-gradient-84" x1="177.84" y1="287.26" x2="177.84" y2="265.09" xlink:href="#linear-gradient-20"/><linearGradient id="linear-gradient-85" x1="194.44" y1="233.04" x2="194.44" y2="217.77" xlink:href="#linear-gradient-20"/><linearGradient id="linear-gradient-86" x1="206.18" y1="230.51" x2="206.18" y2="217.65" xlink:href="#linear-gradient-20"/><linearGradient id="linear-gradient-87" x1="212.67" y1="230.79" x2="212.67" y2="217.16" xlink:href="#linear-gradient-20"/><linearGradient id="linear-gradient-88" x1="221.84" y1="227.76" x2="221.84" y2="213.35" xlink:href="#linear-gradient-20"/><linearGradient id="linear-gradient-89" x1="171.74" y1="231.83" x2="171.74" y2="226.06" xlink:href="#linear-gradient-20"/><linearGradient id="linear-gradient-90" x1="178.52" y1="229.14" x2="178.52" y2="213.05" xlink:href="#linear-gradient-20"/><linearGradient id="linear-gradient-91" x1="228.91" y1="230.85" x2="228.91" y2="221.97" xlink:href="#linear-gradient-20"/><linearGradient id="linear-gradient-92" x1="172.71" y1="297.48" x2="172.71" y2="277.99" xlink:href="#linear-gradient-20"/><linearGradient id="linear-gradient-93" x1="122.35" y1="98.95" x2="122.35" y2="80.87" xlink:href="#linear-gradient-20"/><linearGradient id="linear-gradient-94" x1="128.28" y1="82.55" x2="128.28" y2="77.25" xlink:href="#linear-gradient-20"/><linearGradient id="linear-gradient-95" x1="128.62" y1="78.41" x2="128.62" y2="74.59" xlink:href="#linear-gradient-20"/><linearGradient id="linear-gradient-96" x1="125.34" y1="80.34" x2="125.34" y2="56.85" xlink:href="#linear-gradient-20"/><linearGradient id="linear-gradient-97" x1="124.66" y1="58.89" x2="124.66" y2="54.36" xlink:href="#linear-gradient-20"/><linearGradient id="linear-gradient-98" x1="124.87" y1="56.06" x2="124.87" y2="44.19" xlink:href="#linear-gradient-20"/><linearGradient id="linear-gradient-99" x1="122.16" y1="51.83" x2="122.16" y2="29.66" xlink:href="#linear-gradient-20"/><linearGradient id="linear-gradient-100" x1="105.56" y1="99.16" x2="105.56" y2="83.88" xlink:href="#linear-gradient-20"/><linearGradient id="linear-gradient-101" x1="93.82" y1="99.28" x2="93.82" y2="86.42" xlink:href="#linear-gradient-20"/><linearGradient id="linear-gradient-102" x1="87.33" y1="99.77" x2="87.33" y2="86.14" xlink:href="#linear-gradient-20"/><linearGradient id="linear-gradient-103" x1="78.16" y1="103.58" x2="78.16" y2="89.17" xlink:href="#linear-gradient-20"/><linearGradient id="linear-gradient-104" x1="128.26" y1="90.87" x2="128.26" y2="85.09" xlink:href="#linear-gradient-20"/><linearGradient id="linear-gradient-105" x1="121.48" y1="103.88" x2="121.48" y2="87.79" xlink:href="#linear-gradient-20"/><linearGradient id="linear-gradient-106" x1="71.09" y1="94.95" x2="71.09" y2="86.08" xlink:href="#linear-gradient-20"/><linearGradient id="linear-gradient-107" x1="127.29" y1="38.93" x2="127.29" y2="19.45" xlink:href="#linear-gradient-20"/></defs><path class="cls-1" d="M154.35,159c-4,0-4,6.18,0,6.18S158.33,159,154.35,159Z" transform="translate(-63.44 -14.7)"/><path class="cls-2" d="M134.22,155.21a1.24,1.24,0,0,0-.94-.16,2.16,2.16,0,0,0-.86.57,1.07,1.07,0,0,1-1.24.22,1.66,1.66,0,0,1-.77-1.22c0-.13-.21-.07-.19,0a1.73,1.73,0,0,0,1.12,1.51,1.23,1.23,0,0,0,.92-.09c.28-.16.5-.41.76-.58a1,1,0,0,1,1.48.8,1.62,1.62,0,0,1-1.27,1.58,3.56,3.56,0,0,1-1.38.1,5.69,5.69,0,0,1-.7-.12c-.22-.06-.45-.08-.68-.12s-.28.15-.15.26a1.26,1.26,0,0,0,.5.36,3,3,0,0,0,.66.12,5.24,5.24,0,0,0,1.37,0,2.46,2.46,0,0,0,1.88-1.3A1.54,1.54,0,0,0,134.22,155.21Z" transform="translate(-63.44 -14.7)"/><path class="cls-3" d="M135,158.33a5.94,5.94,0,0,0-1.25.59,7.47,7.47,0,0,1-1.3.47,3.53,3.53,0,0,1-2.59-.28.09.09,0,0,0-.09.15,3.63,3.63,0,0,0,2.32.47,5.18,5.18,0,0,0-.84.64c-.23.23-.51.58-.36.92s.66.41,1,.39a2.51,2.51,0,0,0,.67-.15l.07,0c-.27.26-.55.51-.79.79s-.39.49-.57.75a3.54,3.54,0,0,0-.26.41,2.4,2.4,0,0,0-.11.23.37.37,0,0,0,0,.23.11.11,0,0,0,.16.09.45.45,0,0,0,.17-.11,1.56,1.56,0,0,0,.13-.19c.09-.13.17-.27.26-.41s.32-.54.5-.8a12.87,12.87,0,0,1,1-1.27h0l.15-.19c.07-.06,0-.16-.1-.1s-.1.11-.16.16a.85.85,0,0,0-.22,0l-.24.1a3,3,0,0,1-.51.15,1.54,1.54,0,0,1-.48,0,.66.66,0,0,1-.43-.17c-.18-.23.19-.57.34-.71a4.69,4.69,0,0,1,.75-.58,4.53,4.53,0,0,1,.92-.43,6.5,6.5,0,0,0,.62-.22,4.51,4.51,0,0,0,1.35-.68C135.28,158.49,135.14,158.3,135,158.33Z" transform="translate(-63.44 -14.7)"/><path class="cls-4" d="M133.55,161.74a5.1,5.1,0,0,0-1,1,4.42,4.42,0,0,0-.34.6,3.45,3.45,0,0,0-.14.34.53.53,0,0,0,0,.18.39.39,0,0,0,.06.17.12.12,0,0,0,.16,0,.54.54,0,0,0,.12-.09.42.42,0,0,0,.08-.18c0-.1.07-.2.11-.29a5.5,5.5,0,0,1,.28-.6,5.05,5.05,0,0,1,.8-1A.1.1,0,0,0,133.55,161.74Z" transform="translate(-63.44 -14.7)"/><path class="cls-5" d="M135.32,160.76a.17.17,0,0,0-.28,0,1.77,1.77,0,0,0-.13.72,6.6,6.6,0,0,1-.17.77,4.6,4.6,0,0,1-.68,1.41,1.27,1.27,0,0,1-.11.13,3.7,3.7,0,0,1,.2-.86c0-.06-.08-.1-.11,0a3.52,3.52,0,0,0-.44,1.3,3.45,3.45,0,0,1-2,.93c-.16,0-.17.28,0,.27a3.72,3.72,0,0,0,2-.78s0,0,0,0a2,2,0,0,0,.11.54l0,0a6.06,6.06,0,0,1-.78.45l-.4.19c-.14.08-.26.18-.4.27a.09.09,0,0,0,.07.16,4,4,0,0,0,.47-.11,3.11,3.11,0,0,0,.4-.22,8,8,0,0,0,.76-.54h0a1,1,0,0,0,.06.16c.07.15.16.29.24.44a.6.6,0,0,0,.14.21,1.53,1.53,0,0,0,.21.14.14.14,0,0,0,.2-.12.75.75,0,0,0-.07-.44l-.21-.43c-.05-.11-.11-.21-.17-.32a7.58,7.58,0,0,0,.91-1A0,0,0,0,0,135,164a7.5,7.5,0,0,1-.93.85,2,2,0,0,1-.11-.26,1.86,1.86,0,0,1-.05-.34,3,3,0,0,0,.35-.36,4.74,4.74,0,0,0,.81-1.5,5.93,5.93,0,0,0,.21-.83A1.5,1.5,0,0,0,135.32,160.76Z" transform="translate(-63.44 -14.7)"/><path class="cls-6" d="M89.94,220a2,2,0,0,0-.48-.82l-.37-.29a1.91,1.91,0,0,0-.94-.25,1.35,1.35,0,0,0-.71.16,1.46,1.46,0,0,0-.6.38,1.37,1.37,0,0,0-.38.6,1.35,1.35,0,0,0-.16.71c0,.17,0,.33.07.5a1.84,1.84,0,0,0,.47.82l.38.29a1.91,1.91,0,0,0,.93.25,1.46,1.46,0,0,0,.72-.16,1.37,1.37,0,0,0,.59-.38,1.49,1.49,0,0,0,.39-.6,1.46,1.46,0,0,0,.16-.72C90,220.37,90,220.21,89.94,220Z" transform="translate(-63.44 -14.7)"/><path class="cls-7" d="M209.3,101.4a1.75,1.75,0,0,0,.47.81l.38.29a1.81,1.81,0,0,0,.93.26,1.46,1.46,0,0,0,.72-.16,1.39,1.39,0,0,0,.59-.39,1.3,1.3,0,0,0,.39-.59,1.46,1.46,0,0,0,.16-.72c0-.16-.05-.33-.07-.49a1.9,1.9,0,0,0-.48-.82L212,99.3a1.81,1.81,0,0,0-.94-.25,1.35,1.35,0,0,0-.71.16,1.62,1.62,0,0,0-1,1,1.35,1.35,0,0,0-.16.71C209.25,101.07,209.27,101.23,209.3,101.4Z" transform="translate(-63.44 -14.7)"/><path class="cls-8" d="M141.73,184.63a1.86,1.86,0,0,0,0,3.71A1.86,1.86,0,0,0,141.73,184.63Z" transform="translate(-63.44 -14.7)"/><path class="cls-9" d="M157.41,132.07a1.86,1.86,0,0,0,0,3.71A1.86,1.86,0,0,0,157.41,132.07Z" transform="translate(-63.44 -14.7)"/><path class="cls-10" d="M157.1,39.78a1.86,1.86,0,0,0,0,3.71A1.86,1.86,0,0,0,157.1,39.78Z" transform="translate(-63.44 -14.7)"/><path class="cls-11" d="M155.39,14.7a1.86,1.86,0,0,0,0,3.71A1.86,1.86,0,0,0,155.39,14.7Z" transform="translate(-63.44 -14.7)"/><path class="cls-12" d="M136.64,310.22a1.86,1.86,0,0,0,0-3.71A1.86,1.86,0,0,0,136.64,310.22Z" transform="translate(-63.44 -14.7)"/><path class="cls-13" d="M138.34,335.3a1.86,1.86,0,0,0,0-3.71A1.86,1.86,0,0,0,138.34,335.3Z" transform="translate(-63.44 -14.7)"/><path class="cls-14" d="M143.54,260.68c.13-.23.28-.46.41-.7.61-1.11,1.5-2.49,1.49-3.8,0-.16-.23-.28-.35-.14a8.17,8.17,0,0,0-1,1.88c-.33.71-.7,1.41-1.09,2.1l0,0c-1.92-1.94-4.15-3.58-5.51-6,0,0-.07,0-.05,0a19.24,19.24,0,0,0,3.78,4.83c.51.52,1,1,1.53,1.57-.69,1.18-1.42,2.33-2.14,3.49-.4.64-.8,1.28-1.18,1.93a3.64,3.64,0,0,0-.7,1.81c.05,1,1,1.53,1.87,1.72,1.94.42,4.77-.16,5.53-2.23C146.94,264.85,145,262.32,143.54,260.68Zm1.37,7.24a4.45,4.45,0,0,1-3.1.91c-1.08,0-2.86-.4-2.13-1.85a38.55,38.55,0,0,1,2.06-3.38c.53-.82,1-1.65,1.54-2.48a11.34,11.34,0,0,1,2,3C145.81,265.38,146,266.93,144.91,267.92Z" transform="translate(-63.44 -14.7)"/><path class="cls-15" d="M146,252a.62.62,0,0,0,0,1.23A.62.62,0,0,0,146,252Z" transform="translate(-63.44 -14.7)"/><path class="cls-16" d="M100.26,148a6.88,6.88,0,0,0-6.76-6.76c-3.54,0-6.92,3.11-6.76,6.76a6.88,6.88,0,0,0,6.76,6.76C97,154.77,100.42,151.66,100.26,148Z" transform="translate(-63.44 -14.7)"/><path class="cls-17" d="M111.33,118.32a4.27,4.27,0,1,0,4.27,4.27A4.32,4.32,0,0,0,111.33,118.32Z" transform="translate(-63.44 -14.7)"/><path class="cls-18" d="M201.76,173.36a6.87,6.87,0,0,0,6.76,6.75c3.54,0,6.92-3.1,6.76-6.75a6.88,6.88,0,0,0-6.76-6.76C205,166.6,201.6,169.71,201.76,173.36Z" transform="translate(-63.44 -14.7)"/><path class="cls-19" d="M190.69,203.05a4.27,4.27,0,1,0-4.27-4.27A4.33,4.33,0,0,0,190.69,203.05Z" transform="translate(-63.44 -14.7)"/><path class="cls-20" d="M151.88,134.08c-13,.52-25.93,5.7-28.52,19.71-2.41,13,5.43,25.41,18.46,28.08.35.07.39-.46.06-.54-13.39-3.3-20.5-17.24-16.57-30.25s15.38-14.09,26.63-16.61A.2.2,0,0,0,151.88,134.08Z" transform="translate(-63.44 -14.7)"/><path class="cls-21" d="M162.4,135.29c-.25,0-.29.37,0,.39,13.5,1.25,20.9,11.61,21.74,24.46.86,13.29-4.62,24.44-16.65,30.57-7.54,3.84-16.74,6.41-22.7,12.8-5.39,5.78-3.11,13.78-1.63,20.73.09.4.78.44.78,0-.15-6.93-3.31-13.66,1.81-19.68,4.07-4.78,11-7.51,16.67-10,9.3-4.1,17.59-9,21.29-19C189.86,158.7,182.26,136.28,162.4,135.29Z" transform="translate(-63.44 -14.7)"/><path class="cls-22" d="M139.06,225.52c-5.23-10.19-3.61-21.77,6.14-28.76.12-.09,0-.26-.15-.18a22.72,22.72,0,0,0-10.69,20.49c.3,5.14,3,9,4.72,13.66,2.7,7.15.09,14.69,1.67,22a.79.79,0,0,0,1.55,0A39.82,39.82,0,0,0,139.06,225.52Z" transform="translate(-63.44 -14.7)"/><path class="cls-23" d="M149.07,208.48a.15.15,0,0,0-.28-.12c-2.1,5.14-1.76,10-.73,15.33,1.25,6.48,1.42,12.48,1.7,19.06,0,.29.52.36.59.06C153.31,231.25,145.12,219.86,149.07,208.48Z" transform="translate(-63.44 -14.7)"/><path class="cls-24" d="M136.62,187.43c.25,0,.3-.37,0-.39-13.49-1.24-20.9-11.61-21.73-24.46-.87-13.29,4.61-24.44,16.65-30.57,7.54-3.84,16.74-6.41,22.69-12.8,5.39-5.78,3.12-13.78,1.63-20.73-.09-.4-.78-.44-.77,0,.14,6.94,3.3,13.66-1.82,19.68-4.07,4.79-11,7.52-16.66,10-9.31,4.1-17.6,9-21.3,19C109.16,164,116.76,186.44,136.62,187.43Z" transform="translate(-63.44 -14.7)"/><path class="cls-25" d="M160,97.2c5.23,10.19,3.61,21.77-6.14,28.76-.12.09,0,.26.15.19a22.74,22.74,0,0,0,10.69-20.5c-.3-5.14-3-9-4.72-13.66-2.7-7.14-.08-14.69-1.67-21.95a.78.78,0,0,0-1.54,0A39.76,39.76,0,0,0,160,97.2Z" transform="translate(-63.44 -14.7)"/><path class="cls-26" d="M150,114.24a.16.16,0,0,0,.29.12c2.09-5.14,1.75-10,.72-15.33-1.25-6.48-1.42-12.48-1.69-19,0-.3-.53-.36-.6-.07C145.71,91.47,153.9,102.86,150,114.24Z" transform="translate(-63.44 -14.7)"/><path class="cls-27" d="M167.53,142c-13.21-6.85-28.68-1.32-35.49,11.56,0,.08.09.15.14.08,6.58-11.5,20.65-17.09,33.06-11.38,7.76,3.57,13.09,11,12.61,19.67-.39,7.1-4.27,12.73-8.33,18.24-.31.42.29.82.62.47C181.08,169.07,183.55,150.28,167.53,142Z" transform="translate(-63.44 -14.7)"/><path class="cls-28" d="M167.35,153.38c-.53-.23-.92.43-.63.85,2.9,4.21,5.33,7.67,3.94,13.12-1.25,4.86-5.17,8.35-9.74,10.13-8.49,3.29-25.38-.19-27.5-10.63a.08.08,0,0,0-.16,0c1.75,12,20.51,15.51,29.8,11.21C171.34,174.25,178.73,158.42,167.35,153.38Z" transform="translate(-63.44 -14.7)"/><path class="cls-29" d="M161.83,150.39c-3.91-4.73-13.47-3-17.64.62-5.09,4.44-5,11.71-1.35,17,.18.25.63,0,.47-.28-3.23-5.33-2.85-12.42,2.77-16,4.74-3,10.35-2.42,15.43-.85A.28.28,0,0,0,161.83,150.39Z" transform="translate(-63.44 -14.7)"/><path class="cls-30" d="M160.86,156.63c-2.42,2.57-4.4-.22-6.72-.82a3.89,3.89,0,0,0-3,.56c-2.17,1.23-4.52,3.72-4.14,6.39.34,2.41,2,5.59,4.41,6.5a5.92,5.92,0,0,0,6.86-2.32.55.55,0,0,0-.78-.75,9.64,9.64,0,0,1-3.76,1.56c-2.06.18-3.13-1.05-4-2.68-1.49-2.78-1-6.17,1.95-7.81,3.25-1.8,6.59,3,9.39-.49C161.14,156.65,161,156.52,160.86,156.63Z" transform="translate(-63.44 -14.7)"/><path class="cls-31" d="M163.67,185.31a6.44,6.44,0,0,0-2.17,1.23c-1.31.88-2.78,1.48-4.14,2.27a75.41,75.41,0,0,0-7.62,5.33s0,.08,0,.06c3.05-1.46,6.11-2.91,9.1-4.47,1.69-.89,4.58-2,5.13-4C164.06,185.53,163.92,185.25,163.67,185.31Z" transform="translate(-63.44 -14.7)"/><path class="cls-32" d="M172.43,99.66c-2.9-6.51-8.81-10.8-7.31-18.74.09-.45-.56-.8-.78-.33-3.6,7.42,3.58,13.33,6.34,19.68,5.32,12.26-.06,25.23-12.2,30.5-.16.07,0,.35.12.28,7.93-3.17,13.91-9.82,15.32-18.39A22.37,22.37,0,0,0,172.43,99.66Z" transform="translate(-63.44 -14.7)"/><path class="cls-33" d="M143.25,189.78c-7.65,4.25-15.2,9.43-17.32,18.44-1.67,7.06-.19,15.54,5.07,20.78a.35.35,0,0,0,.55-.43c-4-6.48-6.23-13.2-4.07-20.82,2.31-8.13,9.28-13.15,16.16-17.3A.39.39,0,0,0,143.25,189.78Z" transform="translate(-63.44 -14.7)"/><path class="cls-34" d="M134.69,256.7c-.66-3.91.66-7.87.63-11.78a29.32,29.32,0,0,0-1.86-9.74.23.23,0,0,0-.45.12,30.77,30.77,0,0,1,.6,12.67c-.37,2.47-1.11,4.85-.78,7.37.26,2.06,1.25,3.93,1.77,5.93a34.11,34.11,0,0,1,.61,10.28c0,.37.5.41.61.08C137.7,266,135.63,262.19,134.69,256.7Z" transform="translate(-63.44 -14.7)"/><path class="cls-35" d="M150.63,251.06c.13-.27-.25-.5-.4-.24a17,17,0,0,0-2.4,10c.23,2.34,1.22,4.39,1.86,6.63.94,3.31.79,6.71.95,10.11,0,.38.6.5.69.1C153.33,268.32,146.51,260.14,150.63,251.06Z" transform="translate(-63.44 -14.7)"/><path class="cls-36" d="M134,159.39a.62.62,0,0,0,0,1.23A.62.62,0,0,0,134,159.39Z" transform="translate(-63.44 -14.7)"/><path class="cls-37" d="M166.68,160.37a3.17,3.17,0,0,0-1.54.89,2.47,2.47,0,0,1-2.4.5c-.09,0-.12.1,0,.14a2.57,2.57,0,0,0,1.77,0,6.39,6.39,0,0,0,1.37-.88,1.94,1.94,0,0,1,.79-.35,1.37,1.37,0,0,1,1,.34,1.38,1.38,0,0,1,.59.78.86.86,0,0,1-.49.87,7.32,7.32,0,0,1-1.88.75c-.62.19-1.24.36-1.84.61a7.49,7.49,0,0,0-.86.41,2,2,0,0,0-.68.5c-.31.48.14,1,.55,1.19a4.36,4.36,0,0,0,2.12.27,2.62,2.62,0,0,1,1.21.2,1.94,1.94,0,0,1,.73.72.09.09,0,0,0,.16,0c0-.51-.48-.88-.91-1.06a6.12,6.12,0,0,0-2-.26,2.47,2.47,0,0,1-1-.23c-.14-.07-.37-.18-.43-.34s.24-.39.4-.49a9.24,9.24,0,0,1,2-.83c.67-.22,1.35-.41,2-.69a2.24,2.24,0,0,0,1.27-1C169.05,161.38,167.64,160.27,166.68,160.37Z" transform="translate(-63.44 -14.7)"/><path class="cls-38" d="M106.69,204.86a14.59,14.59,0,0,0-1.3-1.53,2.89,2.89,0,0,0-1.49-1,1.6,1.6,0,0,0-1.58,2.24,5.18,5.18,0,0,0,1,1.55,4,4,0,0,1,.88,1.45c.36,1.54-1.63,1.47-2.6,1.23A3.34,3.34,0,0,1,99,206.16c0-.1-.18-.08-.17,0,.14,2.26,2.69,3.72,4.79,3.27a1.88,1.88,0,0,0,1.33-2.37,4,4,0,0,0-.82-1.52c-.34-.44-.87-1-.82-1.62a.59.59,0,0,1,.34-.52c.3-.09.65.21.86.39s.54.5.8.75a12,12,0,0,0,1,.76C106.5,205.51,106.89,205.12,106.69,204.86Z" transform="translate(-63.44 -14.7)"/><path class="cls-39" d="M115.11,202.55a7.75,7.75,0,0,0-1-1.29c-.39-.47-.76-1-1.14-1.46a12.48,12.48,0,0,0-2.23-2.36c-1.47-1.12-3.64-1.63-5.24-.46a2.11,2.11,0,0,0-.91,2.43,5.5,5.5,0,0,0,1.86,2.12,32.36,32.36,0,0,1,4.44,3.45,5.42,5.42,0,0,1,.88,1.3,1,1,0,0,1-.07,1.27,1.54,1.54,0,0,1-1,.4c-1.48.1-2.58-1.06-3.5-2-.12-.12-.29.06-.18.19,1.06,1.3,3.1,3.36,4.89,1.93,1.5-1.19-.36-3.43-1.31-4.36-1.37-1.33-3.07-2.27-4.44-3.61a2,2,0,0,1-.81-1.36,1.7,1.7,0,0,1,1-1.26,3.4,3.4,0,0,1,3,.11,8.51,8.51,0,0,1,2.71,2.43c.43.54.83,1.09,1.27,1.63a4.05,4.05,0,0,0,1.41,1.29A.25.25,0,0,0,115.11,202.55Z" transform="translate(-63.44 -14.7)"/><path class="cls-40" d="M137.44,188.88c-2.76,1.1-5.26,2.69-8.3,2.88a8.31,8.31,0,0,1-4.34-.81c-.89-.46-1.87-1.15-2.9-.65a1.59,1.59,0,0,0-.77,1.87c.24,1,1.18,1.53,2,2,.62.37,1.37.81,1.59,1.57a1.89,1.89,0,0,1-1.52,2.24c-1.72.38-3.08-1-3.84-2.37a.12.12,0,0,0-.08-.06c-.27-.38-.6-.74-.84-1a23.14,23.14,0,0,0-2.1-2.32c-1.11-1.06-3-2.64-4.37-1-1.17,1.39-.3,3.21.75,4.37,1.35,1.49,3.2,2.44,4.44,4.05a7.91,7.91,0,0,1,1.5,3.23c.16.76.08,1.66-.9,1.67a2.7,2.7,0,0,1-1.8-1.07c-.18-.19-.46.1-.29.29a3.24,3.24,0,0,0,1.9,1.25,1.51,1.51,0,0,0,1.6-.8,3.5,3.5,0,0,0-.2-2.36,8.73,8.73,0,0,0-1.27-2.44c-1.17-1.58-2.89-2.55-4.25-3.92-.76-.77-1.62-1.87-1.41-3a1.7,1.7,0,0,1,.79-1.2,1.9,1.9,0,0,1,2,.42,15.94,15.94,0,0,1,2.68,2.64c.4.47.78,1,1.14,1.46l.33.49s0,0,0,.05a5.88,5.88,0,0,0,2.55,2.11,4,4,0,0,0,1.65.26,2,2,0,0,0,1.47-.57s0,0,0-.06a2.22,2.22,0,0,0,.78-1,2.1,2.1,0,0,0-.11-1.63,3.41,3.41,0,0,0-1.27-1.23l-.08-.06c-.16-.12-.34-.23-.51-.35l-.56-.38a4.23,4.23,0,0,1-.41-.33c-.93-.83-1-2.67.73-2.26a19.44,19.44,0,0,1,2,.88,9.23,9.23,0,0,0,4,.54A17.92,17.92,0,0,0,137.5,189C137.58,189,137.53,188.84,137.44,188.88Z" transform="translate(-63.44 -14.7)"/><path class="cls-41" d="M98.68,203.52a2.36,2.36,0,0,0-1.93-.8c-1.71.13-2.7,1.76-2.86,3.32-.23,2.29,1,4.4.86,6.67s-2.51,4.33-4.24,5.7c0,0,0,.06,0,0A17.18,17.18,0,0,0,94.26,215a5.71,5.71,0,0,0,.93-4.47c-.25-1.85-1.12-3.87-.29-5.68a2.49,2.49,0,0,1,2.24-1.59,1.73,1.73,0,0,1,1.23.68c.26.32.24.7.46,1a.11.11,0,0,0,.16,0C99.34,204.53,99,203.9,98.68,203.52Z" transform="translate(-63.44 -14.7)"/><path class="cls-42" d="M192.55,116.58a13.48,13.48,0,0,0,1.3,1.53,2.85,2.85,0,0,0,1.49,1c1.27.2,1.93-1.18,1.57-2.24a5,5,0,0,0-1-1.55,3.88,3.88,0,0,1-.88-1.45c-.37-1.54,1.63-1.47,2.59-1.24a3.37,3.37,0,0,1,2.65,2.69c0,.1.18.08.17,0-.14-2.26-2.69-3.72-4.8-3.27a1.87,1.87,0,0,0-1.32,2.36,4,4,0,0,0,.81,1.53c.34.44.87,1,.83,1.62a.59.59,0,0,1-.34.52c-.3.09-.66-.21-.86-.39s-.54-.5-.81-.75a10.49,10.49,0,0,0-1-.76C192.74,115.93,192.35,116.32,192.55,116.58Z" transform="translate(-63.44 -14.7)"/><path class="cls-43" d="M184.13,118.88a7.41,7.41,0,0,0,1,1.29c.4.48.77,1,1.15,1.47a12.17,12.17,0,0,0,2.23,2.36c1.46,1.12,3.64,1.63,5.24.45a2.09,2.09,0,0,0,.91-2.42,5.43,5.43,0,0,0-1.86-2.12,33.07,33.07,0,0,1-4.45-3.45,5.72,5.72,0,0,1-.88-1.3,1,1,0,0,1,.07-1.27,1.65,1.65,0,0,1,1-.41c1.47-.1,2.58,1.07,3.5,2.06.11.12.29-.06.18-.19-1.06-1.3-3.1-3.36-4.9-1.93-1.49,1.19.36,3.43,1.31,4.36,1.38,1.33,3.08,2.27,4.45,3.61a2,2,0,0,1,.81,1.36,1.74,1.74,0,0,1-1,1.26,3.44,3.44,0,0,1-3-.11,8.42,8.42,0,0,1-2.71-2.43c-.43-.54-.84-1.1-1.27-1.63a4.17,4.17,0,0,0-1.41-1.3C184.25,118.45,184,118.65,184.13,118.88Z" transform="translate(-63.44 -14.7)"/><path class="cls-44" d="M161.8,132.56c2.76-1.1,5.25-2.69,8.3-2.88a8.23,8.23,0,0,1,4.34.81c.89.45,1.87,1.15,2.9.65a1.6,1.6,0,0,0,.77-1.87c-.25-1-1.18-1.53-2-2-.63-.38-1.38-.81-1.6-1.57a1.91,1.91,0,0,1,1.52-2.24c1.72-.39,3.09,1,3.85,2.37a.19.19,0,0,0,.07.06c.28.38.6.73.85,1a23.25,23.25,0,0,0,2.1,2.33c1.1,1.06,3,2.63,4.37,1,1.17-1.39.3-3.21-.75-4.37-1.35-1.49-3.2-2.45-4.44-4a8.06,8.06,0,0,1-1.51-3.23c-.15-.76-.07-1.67.91-1.67a2.64,2.64,0,0,1,1.79,1.07.21.21,0,0,0,.29-.29,3.24,3.24,0,0,0-1.9-1.26,1.5,1.5,0,0,0-1.59.81,3.48,3.48,0,0,0,.2,2.35,8.65,8.65,0,0,0,1.27,2.45c1.17,1.57,2.88,2.54,4.25,3.92.76.77,1.61,1.86,1.41,3a1.73,1.73,0,0,1-.8,1.2,1.91,1.91,0,0,1-2-.42,15.88,15.88,0,0,1-2.67-2.64c-.4-.48-.78-1-1.14-1.47-.12-.15-.22-.32-.33-.49,0,0,0,0,0,0a5.7,5.7,0,0,0-2.55-2.11,3.85,3.85,0,0,0-1.64-.26,2,2,0,0,0-1.47.56.09.09,0,0,0,0,.07,2.17,2.17,0,0,0-.78,1,2.1,2.1,0,0,0,.1,1.63,3.49,3.49,0,0,0,1.27,1.23l.08,0,.52.36.56.38a4.23,4.23,0,0,1,.41.33c.92.83,1,2.66-.73,2.26a16.8,16.8,0,0,1-2-.89,9.24,9.24,0,0,0-4-.53,17.91,17.91,0,0,0-8.37,3.15C161.66,132.45,161.7,132.6,161.8,132.56Z" transform="translate(-63.44 -14.7)"/><path class="cls-45" d="M200.56,117.91a2.33,2.33,0,0,0,1.93.81c1.71-.13,2.69-1.76,2.85-3.32.24-2.29-1-4.4-.86-6.67s2.52-4.33,4.24-5.7a0,0,0,1,0,0,0,16.49,16.49,0,0,0-3.71,3.46,5.75,5.75,0,0,0-.94,4.47c.26,1.84,1.13,3.87.29,5.68a2.46,2.46,0,0,1-2.23,1.58,1.7,1.7,0,0,1-1.24-.67c-.25-.33-.23-.71-.46-1a.1.1,0,0,0-.16,0C199.89,116.91,200.23,117.54,200.56,117.91Z" transform="translate(-63.44 -14.7)"/><path class="cls-46" d="M136.45,121c-5.11,2.48-10.83,3.88-15.57,7.08-4.21,2.84-7.36,6.92-10.07,11.16-2.93,4.6-6.1,9.28-6.43,14.88a33.55,33.55,0,0,0,3.54,16.48c2.75,5.68,6.76,10.62,10.71,15.5.07.08.2,0,.14-.11-6.66-8.86-13.14-18.08-13.41-29.59a18.57,18.57,0,0,1,1.68-8.82c1.12-2.26,2.47-4.44,3.78-6.59,2.67-4.38,5.71-8.68,9.87-11.77,4.83-3.58,10.89-4.75,16-7.85A.22.22,0,0,0,136.45,121Z" transform="translate(-63.44 -14.7)"/><path class="cls-47" d="M192.46,153.8c-2.31-6.7-7-12.27-11.43-17.62-.21-.25-.55.11-.35.35,3.95,4.81,8,9.76,10.39,15.56,2.73,6.58,2.38,13.44,1.14,20.31-1.07,5.94-2.43,12.25-6.5,16.94-3.84,4.42-9.51,6.69-15,8.28-3.28.94-6.62,1.69-9.89,2.66-3,.9-6.54,1.88-9.06,3.89-.19.15,0,.5.24.42,3.21-1.25,6.22-2.77,9.54-3.75,3.1-.92,6.25-1.66,9.34-2.59,5.44-1.61,11-3.85,15-8.1,4.16-4.47,5.7-10.57,6.82-16.41C193.91,167.13,194.7,160.28,192.46,153.8Z" transform="translate(-63.44 -14.7)"/><path class="cls-48" d="M156.69,55.27c-1.17-1.11-3.77-1.68-3.17-3.75a3.67,3.67,0,0,1,1.76-2.14c.54-.27,1.46-.4,1.88.17a1,1,0,0,1-1,1.65c-.13,0-.16.21,0,.23a1.33,1.33,0,0,0,.53-2.61c-1.75-.56-3.59,1.42-3.79,3a2.39,2.39,0,0,0,1,2.24,15.06,15.06,0,0,1,2.84,2.11,6.11,6.11,0,0,1,1.41,3.55,8,8,0,0,1-1,3.94c-.09.2.16.43.32.25C159.69,61.48,159,57.43,156.69,55.27Z" transform="translate(-63.44 -14.7)"/><path class="cls-49" d="M160.52,48.32c-.87-1.61-2.9-2-4.59-1.93a6.44,6.44,0,0,0-4.65,2.31,4.67,4.67,0,0,0-.76,4.77c.76,1.46,2.84,1.88,3.25,3.55,0,.13.22.07.2-.06-.23-1.08-1.16-1.7-2-2.36a4,4,0,0,1-1.19-1.38,3.71,3.71,0,0,1,0-2.44c.91-3.13,4.78-4.73,7.74-3.52a2.82,2.82,0,0,1,1.75,1.9A1.88,1.88,0,0,1,159,51.34c-.13,0-.13.26,0,.25C160.67,51.53,161.17,49.54,160.52,48.32Z" transform="translate(-63.44 -14.7)"/><path class="cls-50" d="M154.87,59.33c-.11-.16-.35,0-.25.14,1.76,3.06-1.21,6.1-2.6,8.61A7,7,0,0,0,151,71.69a7.62,7.62,0,0,1,0,2.43c-.2.71-.71,1.24-.95,1.92,0,.11.11.24.21.17a4.13,4.13,0,0,0,1.45-3.53,8,8,0,0,1,1.4-5.1C154.61,65.17,156.81,62.15,154.87,59.33Z" transform="translate(-63.44 -14.7)"/><path class="cls-51" d="M158,37.48c-2-.56-4.7,0-6.2-1.75-2.18-2.5,1.91-4.22,3.41-5.43a4.42,4.42,0,0,0,1.72-3.74,14.85,14.85,0,0,0-.37-2.48c-.21-1-.19-2.16-.47-3.18-.05-.19-.36-.26-.45-.06-.62,1.39.16,3.23.37,4.65a4.17,4.17,0,0,1-.72,3.61,11.35,11.35,0,0,1-2.54,1.8c-1.2.8-2.47,2-2.43,3.52a3.57,3.57,0,0,0,2.29,3c1.77.79,3.75.44,5.56,1,2.28.72,3.2,3.74,1,5.25-1.69,1.18-4.14.17-6,1a5.86,5.86,0,0,0-3,3,0,0,0,0,0,.08,0c1.3-2.41,3.52-3.12,6.11-2.94,1.51.1,3,.06,4-1.21C162.21,41.09,160.65,38.22,158,37.48Z" transform="translate(-63.44 -14.7)"/><path class="cls-52" d="M152.92,58.62c-.76-1.31-2-2.21-2.92-3.39a5.54,5.54,0,0,1-.88-5.25c0-.07-.1-.13-.13,0a5.69,5.69,0,0,0-.28,3.92A9.67,9.67,0,0,0,151,57.27a6.77,6.77,0,0,1,2,3.94,6.4,6.4,0,0,1-1.36,4.09.15.15,0,0,0,.2.2C153.94,64.05,154.16,60.7,152.92,58.62Z" transform="translate(-63.44 -14.7)"/><path class="cls-53" d="M137,294.73c1.17,1.11,3.77,1.68,3.17,3.75a3.67,3.67,0,0,1-1.76,2.14c-.53.27-1.46.4-1.88-.17a1,1,0,0,1,1-1.65c.13,0,.16-.21,0-.23a1.33,1.33,0,0,0-.53,2.61c1.75.56,3.59-1.42,3.79-3a2.39,2.39,0,0,0-1-2.24A15.06,15.06,0,0,1,137,293.8a6.11,6.11,0,0,1-1.41-3.55,8.13,8.13,0,0,1,1-3.94c.1-.2-.15-.43-.32-.25C134,288.52,134.77,292.57,137,294.73Z" transform="translate(-63.44 -14.7)"/><path class="cls-54" d="M133.21,301.68c.87,1.61,2.9,2.05,4.59,1.93a6.44,6.44,0,0,0,4.65-2.31,4.7,4.7,0,0,0,.77-4.77c-.76-1.46-2.85-1.88-3.26-3.55,0-.13-.22-.07-.19.06.22,1.08,1.16,1.7,1.95,2.36a4,4,0,0,1,1.19,1.38,3.71,3.71,0,0,1,0,2.44c-.91,3.13-4.78,4.73-7.74,3.52a2.84,2.84,0,0,1-1.75-1.9,1.88,1.88,0,0,1,1.24-2.18c.13,0,.13-.26,0-.25C133.06,298.47,132.56,300.46,133.21,301.68Z" transform="translate(-63.44 -14.7)"/><path class="cls-55" d="M138.86,290.67c.11.16.35,0,.25-.14-1.76-3.06,1.21-6.1,2.61-8.61a7.1,7.1,0,0,0,1-3.61,7.62,7.62,0,0,1,0-2.43c.2-.71.71-1.24,1-1.92,0-.11-.11-.24-.21-.17a4.13,4.13,0,0,0-1.45,3.53,8,8,0,0,1-1.4,5.1C139.12,284.83,136.92,287.85,138.86,290.67Z" transform="translate(-63.44 -14.7)"/><path class="cls-56" d="M135.77,312.52c2,.56,4.7,0,6.2,1.75,2.18,2.5-1.91,4.22-3.41,5.43a4.45,4.45,0,0,0-1.72,3.74,14.85,14.85,0,0,0,.37,2.48c.21,1.05.19,2.16.47,3.18,0,.19.36.26.45.06.62-1.39-.15-3.23-.37-4.65a4.17,4.17,0,0,1,.73-3.61,11.07,11.07,0,0,1,2.53-1.8c1.2-.8,2.48-2,2.43-3.52a3.57,3.57,0,0,0-2.29-3c-1.77-.79-3.75-.44-5.56-1-2.28-.72-3.2-3.74-1-5.25,1.69-1.18,4.14-.17,6-1a5.86,5.86,0,0,0,3-3c0-.05-.05-.09-.07,0-1.31,2.41-3.53,3.12-6.12,2.94-1.51-.1-3-.06-4,1.21C131.52,308.91,133.08,311.78,135.77,312.52Z" transform="translate(-63.44 -14.7)"/><path class="cls-57" d="M140.81,291.38c.76,1.31,2,2.21,2.92,3.39a5.54,5.54,0,0,1,.88,5.25c0,.07.1.13.14.05a5.75,5.75,0,0,0,.27-3.92,9.67,9.67,0,0,0-2.24-3.42,6.83,6.83,0,0,1-2-3.94,6.4,6.4,0,0,1,1.36-4.09.15.15,0,0,0-.2-.2C139.79,286,139.58,289.3,140.81,291.38Z" transform="translate(-63.44 -14.7)"/><path class="cls-58" d="M101.21,173.26c-2.18-1-4.55.24-6.6,1-2.3.86-5,1.73-7.32.51-2.13-1.11-3.21-3.62-1.07-5.37,2.32-1.9,5.29-.66,7.81,0,1.85.49,4.06.71,5.47-.85a4.25,4.25,0,0,0,.26-4.8c-1.1-2.14-3.32-3-5.48-3.7a18.76,18.76,0,0,1-4-1.59,20.44,20.44,0,0,1-3.34-2.61.3.3,0,0,0-.47.37,9.47,9.47,0,0,0,4.62,4.14c2.06.93,4.69,1.25,6.38,2.87,1.4,1.35,2.09,4.49-.59,4.79-2.26.26-4.54-1.18-6.79-1.36a6.61,6.61,0,0,0-5.72,2.14,4.48,4.48,0,0,0-.5,5.07c2.28,4.09,7.36,3.34,11,1.88a29.23,29.23,0,0,1,4.09-1.62,3.62,3.62,0,0,1,3.88,1.65c1.86,2.69.68,6-.38,8.78-.07.2.24.28.33.09C104.2,181.14,105.77,175.36,101.21,173.26Z" transform="translate(-63.44 -14.7)"/><path class="cls-59" d="M144.45,100.41c-.06-.14-.29,0-.24.1,1.73,4.78-1.38,9.82-5.52,12.19-4.85,2.77-11,2.38-16.36,2.12-5.56-.27-11.2-.84-16.77-.58-4.36.2-9,1.16-12.28,4.25-1.6,1.5-3,3.92-.63,5.45a10.54,10.54,0,0,0,3.88,1.18,14.12,14.12,0,0,0,4.72.14.19.19,0,0,0,.17-.16,7.58,7.58,0,0,1,1.3.5,4.55,4.55,0,0,1,2.75,4.65c-.52,3.62-4.27,5.26-7.41,6-3.71.92-7.56,1.4-11.32,2.06-2.85.5-6.09,1.22-7,4.4-1,3.49,1.32,7.29,4,9.34.2.15.43-.14.32-.32-1-1.78-2.49-3.2-3.19-5.15s-.56-4.21,1-5.59c1.36-1.19,3.33-1.47,5-1.8L93.51,138c3.15-.59,6.57-1.06,9.32-2.85,2.26-1.47,4.14-4.32,3-7.07-.9-2.2-2.89-3.1-5.06-3.43-1.21-.33-2.43-.57-3.65-.88-1-.25-3-.53-3.63-1.43-1-1.44,3.45-3.87,4.52-4.33,4-1.72,8.65-1.74,12.94-1.64,5.71.13,11.47.53,17.18.29,4.64-.19,9.61-1.24,13.09-4.54C144.36,109.15,146.23,104.56,144.45,100.41Z" transform="translate(-63.44 -14.7)"/><path class="cls-60" d="M124.39,112.62a26.52,26.52,0,0,0-5.85-.7c-2-.16-3.94-.33-5.92-.47a56.58,56.58,0,0,0-10.33,0,22.89,22.89,0,0,0-9,2.69c-2.56,1.47-5.07,3.72-5.57,6.78-.43,2.7,1.22,5.66,4,6,.28,0,.35-.45.07-.49a4.36,4.36,0,0,1-3.44-4.14,6.89,6.89,0,0,1,2.22-5c2.59-2.72,6.33-4.13,10-4.75a47.63,47.63,0,0,1,11.32-.28c2,.13,4,.29,6,.45a29.29,29.29,0,0,0,6.54.27C124.56,112.92,124.53,112.67,124.39,112.62Z" transform="translate(-63.44 -14.7)"/><path class="cls-61" d="M136.65,110.22a26.24,26.24,0,0,0-3,.78c-1.15.29-2.3.52-3.46.71-.2,0-.11.32.07.29,2.08-.31,4.6-.57,6.47-1.56C136.81,110.39,136.77,110.2,136.65,110.22Z" transform="translate(-63.44 -14.7)"/><path class="cls-62" d="M89.42,135.28C84,135.89,77.36,138,75.87,144a10.29,10.29,0,0,0,1.73,8,18.37,18.37,0,0,0,3,3.44,12.43,12.43,0,0,0,3.78,2.76.21.21,0,0,0,.24-.32,15.53,15.53,0,0,0-2.83-2.46,21.06,21.06,0,0,1-2.91-2.91c-1.86-2.31-3.08-5.37-2.38-8.35,1.36-5.78,7.76-7.88,12.92-8.63C89.6,135.52,89.57,135.26,89.42,135.28Z" transform="translate(-63.44 -14.7)"/><path class="cls-63" d="M96.34,127.46c-.22,0-.22.33,0,.35a12.5,12.5,0,0,1,2.9.56c.93.34,1.84,1.08,1.19,2.23A3,3,0,0,1,99,131.69a11.41,11.41,0,0,1-2.81.79c-.85.13-1.69.06-2.28.76a.37.37,0,0,0,.07.58c1.13.72,2.92-.15,4-.62s2.51-1.15,3-2.36C102.16,128,98.15,127.59,96.34,127.46Z" transform="translate(-63.44 -14.7)"/><path class="cls-64" d="M78.39,154.83a14.23,14.23,0,0,1-3.47-6.44,11.34,11.34,0,0,1-.1-3.81c.17-1.18.8-2.31.84-3.48a.18.18,0,0,0-.3-.12c-.91.82-1.15,2.33-1.32,3.49a12.19,12.19,0,0,0,.11,4.13,10.18,10.18,0,0,0,4.08,6.45C78.36,155.14,78.49,154.94,78.39,154.83Z" transform="translate(-63.44 -14.7)"/><path class="cls-65" d="M94.35,112.11c-5.09,1.22-9.71,7.31-6.95,12.43a.06.06,0,0,0,.1-.06,7.39,7.39,0,0,1,1.06-7.65c1.61-2.08,3.78-3,5.91-4.43A.16.16,0,0,0,94.35,112.11Z" transform="translate(-63.44 -14.7)"/><path class="cls-66" d="M102.39,178.34c-.25-1.25-1.91-1.82-3-1.89-2.14-.12-4.07,1.21-6,1.91a10.79,10.79,0,0,1-7.13.41,6.23,6.23,0,0,1-4.32-5.17c0-.09-.16-.09-.15,0,.19,3.68,3.69,6,7.12,6a14.9,14.9,0,0,0,6.25-1.45,9.68,9.68,0,0,1,4.09-1.2,4.11,4.11,0,0,1,2.88,1.53A.18.18,0,0,0,102.39,178.34Z" transform="translate(-63.44 -14.7)"/><path class="cls-67" d="M91.47,181.07c-1.65-.19-3.25.26-4.92-.13a6,6,0,0,1-3.89-2.74c0-.08-.17,0-.12.08a5.93,5.93,0,0,0,3.39,2.88,8.65,8.65,0,0,0,5.57.13A.11.11,0,0,0,91.47,181.07Z" transform="translate(-63.44 -14.7)"/><path class="cls-68" d="M200.81,148.11c2.18,1,4.55-.24,6.6-1,2.3-.86,5-1.74,7.32-.51,2.12,1.11,3.21,3.62,1.07,5.37-2.32,1.9-5.29.66-7.81,0-1.85-.49-4.06-.71-5.47.85a4.25,4.25,0,0,0-.26,4.8c1.1,2.13,3.32,3,5.48,3.7a18.23,18.23,0,0,1,4,1.58,21.59,21.59,0,0,1,3.34,2.61.3.3,0,0,0,.47-.36A9.42,9.42,0,0,0,211,161c-2.06-.94-4.7-1.26-6.38-2.87-1.41-1.35-2.09-4.49.59-4.8,2.26-.25,4.54,1.18,6.79,1.37a6.58,6.58,0,0,0,5.71-2.14,4.46,4.46,0,0,0,.51-5.07c-2.28-4.09-7.36-3.34-11-1.88a28.45,28.45,0,0,1-4.09,1.61,3.6,3.6,0,0,1-3.88-1.65c-1.86-2.69-.68-6,.38-8.77.07-.21-.25-.29-.33-.09C197.82,140.22,196.24,146,200.81,148.11Z" transform="translate(-63.44 -14.7)"/><path class="cls-69" d="M157.57,221c.06.13.29,0,.24-.11-1.73-4.78,1.38-9.81,5.51-12.18,4.85-2.78,11-2.38,16.37-2.12,5.56.26,11.2.84,16.76.58,4.37-.2,9-1.17,12.29-4.25,1.6-1.5,3-3.92.62-5.45a10.25,10.25,0,0,0-3.87-1.18,13.91,13.91,0,0,0-4.73-.14.22.22,0,0,0-.17.15,7,7,0,0,1-1.29-.49,4.56,4.56,0,0,1-2.75-4.66c.52-3.62,4.27-5.25,7.41-6,3.71-.93,7.56-1.41,11.32-2.07,2.85-.5,6.08-1.22,7-4.39,1-3.49-1.32-7.29-4-9.34-.19-.15-.42.13-.31.32,1,1.77,2.49,3.2,3.19,5.15s.56,4.2-1,5.58c-1.37,1.2-3.33,1.48-5.05,1.8l-6.53,1.24c-3.15.6-6.58,1.07-9.32,2.86-2.26,1.46-4.14,4.31-3,7.06.9,2.21,2.89,3.11,5.05,3.43,1.22.33,2.44.57,3.66.89,1,.25,3,.53,3.62,1.43,1,1.44-3.44,3.86-4.51,4.32-4,1.73-8.65,1.74-12.94,1.65-5.71-.13-11.47-.54-17.18-.3-4.65.2-9.61,1.24-13.09,4.54C157.66,212.21,155.79,216.81,157.57,221Z" transform="translate(-63.44 -14.7)"/><path class="cls-70" d="M177.63,208.74a25.92,25.92,0,0,0,5.84.7c2,.16,3.95.33,5.93.48a58.43,58.43,0,0,0,10.33.05,22.91,22.91,0,0,0,9-2.7c2.56-1.46,5.07-3.72,5.56-6.77.44-2.7-1.21-5.66-4.05-6-.27,0-.34.44-.06.49a4.34,4.34,0,0,1,3.44,4.13,6.9,6.9,0,0,1-2.22,5c-2.59,2.72-6.33,4.12-10,4.75a48.16,48.16,0,0,1-11.32.28c-2-.13-4-.3-6-.45a29.29,29.29,0,0,0-6.54-.28C177.45,208.45,177.49,208.7,177.63,208.74Z" transform="translate(-63.44 -14.7)"/><path class="cls-71" d="M165.37,211.15a26.83,26.83,0,0,0,3-.79c1.15-.28,2.3-.51,3.46-.7.19,0,.11-.32-.08-.29-2.07.31-4.59.57-6.46,1.56A.12.12,0,0,0,165.37,211.15Z" transform="translate(-63.44 -14.7)"/><path class="cls-72" d="M212.6,186.09c5.44-.62,12.06-2.67,13.55-8.71a10.32,10.32,0,0,0-1.73-8,18.31,18.31,0,0,0-3-3.43,12.47,12.47,0,0,0-3.78-2.77c-.17-.06-.36.17-.25.32a16,16,0,0,0,2.84,2.47,21.06,21.06,0,0,1,2.91,2.91c1.85,2.31,3.08,5.37,2.38,8.34-1.36,5.78-7.76,7.89-12.92,8.64C212.42,185.85,212.45,186.11,212.6,186.09Z" transform="translate(-63.44 -14.7)"/><path class="cls-73" d="M205.67,193.91c.23,0,.23-.33,0-.35a12.54,12.54,0,0,1-2.89-.57c-.94-.34-1.84-1.08-1.19-2.22a3,3,0,0,1,1.43-1.09,11,11,0,0,1,2.81-.79c.85-.14,1.69-.06,2.28-.76a.38.38,0,0,0-.08-.59c-1.12-.71-2.91.16-4,.62s-2.52,1.15-3,2.36C199.86,193.35,203.87,193.77,205.67,193.91Z" transform="translate(-63.44 -14.7)"/><path class="cls-74" d="M223.63,166.53A14.36,14.36,0,0,1,227.1,173a11.08,11.08,0,0,1,.09,3.81c-.16,1.17-.79,2.3-.83,3.47a.18.18,0,0,0,.3.13c.91-.82,1.14-2.34,1.31-3.5a11.94,11.94,0,0,0-.1-4.13,10.18,10.18,0,0,0-4.08-6.44C223.66,166.22,223.53,166.42,223.63,166.53Z" transform="translate(-63.44 -14.7)"/><path class="cls-75" d="M207.67,209.25c5.08-1.22,9.71-7.31,7-12.42,0-.07-.13,0-.1.06a7.4,7.4,0,0,1-1.06,7.64c-1.61,2.09-3.78,3-5.91,4.44A.15.15,0,0,0,207.67,209.25Z" transform="translate(-63.44 -14.7)"/><path class="cls-76" d="M199.63,143c.24,1.26,1.91,1.83,3,1.89,2.13.12,4.07-1.21,6-1.9a10.79,10.79,0,0,1,7.13-.41,6.2,6.2,0,0,1,4.32,5.16c0,.1.16.1.15,0-.19-3.67-3.69-5.95-7.13-6a14.9,14.9,0,0,0-6.24,1.46,9.92,9.92,0,0,1-4.09,1.2,4.09,4.09,0,0,1-2.88-1.54A.18.18,0,0,0,199.63,143Z" transform="translate(-63.44 -14.7)"/><path class="cls-77" d="M210.55,140.3c1.65.19,3.25-.27,4.92.12a6,6,0,0,1,3.89,2.74c0,.09.17,0,.12-.07a5.89,5.89,0,0,0-3.39-2.88,8.58,8.58,0,0,0-5.57-.13A.11.11,0,0,0,210.55,140.3Z" transform="translate(-63.44 -14.7)"/><path class="cls-78" d="M189.58,222.57c-2-4.31-7.3-1.55-9.51.83-1.66,1.78-2.84,3.39-3,5.86-.16,2-.2,3.5-2,4.76a5,5,0,0,1-5,.48c-3.53-1.58-4.44-5.85-3.11-9.21s4.59-5.55,8-6.74a.3.3,0,0,0-.21-.56c-4.77,1.57-9.4,5.27-9.3,10.75.08,4.34,4.14,8.48,8.62,7a5.86,5.86,0,0,0,3.91-3.85c.48-1.68,0-3.43.91-5a14.31,14.31,0,0,1,3.69-4.09c1.51-1.15,4.3-2.09,5.72-.11s-1,4.19-2.45,5.27c-1.6,1.22-3.64,2.68-3.54,4.91a.43.43,0,0,0,.82.14c1.1-2.69,3.31-3.62,5.18-5.62C189.46,226.12,190.39,224.3,189.58,222.57Z" transform="translate(-63.44 -14.7)"/><path class="cls-79" d="M179,236.59c-4.87,3.56-11.18,3.37-14.56-2.14-.1-.18-.36,0-.26.18,3,5.23,10.77,7.07,15.1,2.26C179.41,236.72,179.16,236.46,179,236.59Z" transform="translate(-63.44 -14.7)"/><path class="cls-80" d="M178.41,240.44c-2.52.44-4.71,1.33-7.34,1.12a10.62,10.62,0,0,1-6.67-3c-.09-.08-.26.06-.17.16,3.42,3.69,10,5,14.27,2A.14.14,0,0,0,178.41,240.44Z" transform="translate(-63.44 -14.7)"/><path class="cls-81" d="M181.9,236.79a.18.18,0,0,0-.36-.06c-.49,2.26,1.26,4.46.27,6.58-1.39,3-5.09,1.76-7.64,2.32s-5.71,4.1-3.7,6.81c.79,1.06,2,1.08,3.24,1,1.48-.11,2.66-.35,3.81.77,2.54,2.49-1.54,3.06-3.1,3.08-1.77,0-8.28-.71-8,2.51a.33.33,0,0,0,.43.27,19.41,19.41,0,0,1,2.17-1.33,13.86,13.86,0,0,1,3.63-.42c1.64-.1,4.06.21,5.51-.72,2.56-1.63.48-4.82-1.82-5.3a7.88,7.88,0,0,0-2.17-.05c-1.24.08-1,.29-2-.93s-.84-1.73.11-2.88c1.94-2.36,4.85-1.56,7.43-2.44a4.61,4.61,0,0,0,3-2.68C183.5,241.05,181.58,239,181.9,236.79Z" transform="translate(-63.44 -14.7)"/><path class="cls-82" d="M181.35,258.16a7.29,7.29,0,0,1-2.77,2.9c-1.72.81-3.06.07-4.74-.28a5.63,5.63,0,0,0-5,1.07c-.24.2,0,.59.29.41,3.16-2.21,5.55,1,8.71.17a5.43,5.43,0,0,0,4-4C182,258.12,181.54,257.89,181.35,258.16Z" transform="translate(-63.44 -14.7)"/><path class="cls-83" d="M181.89,260.93a7.11,7.11,0,0,1-5.29,3c-1.48.09-2.95-.61-4.41-.33a6.11,6.11,0,0,0-4.06,4.25c-.95,4.49,5.15,6.77,7.59,3.09.17-.26-.11-.64-.4-.43a5.17,5.17,0,0,1-3.41,1.12,3,3,0,0,1-2.44-4c1-2.6,3.54-2.69,5.92-2.57a7.39,7.39,0,0,0,6.81-3.92C182.3,261,182,260.77,181.89,260.93Z" transform="translate(-63.44 -14.7)"/><path class="cls-84" d="M184.61,265.78c-2.6-2-5.23.93-6.57,2.9-.09.11.08.26.17.14,1.15-1.54,3.21-4.16,5.49-3,3.07,1.6-.4,5.42-1.78,6.48-2.64,2-6.24,2-8.84,4.09-3.38,2.69-4.6,8.69.37,10.29,2.11.68,4.88.94,6.77-.47a7.72,7.72,0,0,0,2.78-5.63c-.09-4.37-7.22-2.61-5.8-.2a.32.32,0,0,0,.51,0,2.19,2.19,0,0,1,1.42-1.15c.74-.5,1.31-.23,1.69.81,1,.48,1.29,1.17.75,2.06a5.28,5.28,0,0,1-2.86,3.28c-2.79,1.15-7.67-.19-7-3.89,1-6,7.5-5.25,11.12-8.66C184.36,271.39,187,267.64,184.61,265.78Z" transform="translate(-63.44 -14.7)"/><path class="cls-85" d="M182.4,219.17a.19.19,0,0,0,0,.37c2.29.33,4.36-1.57,6.54-.73,3.08,1.18,2.11,4.95,2.85,7.46s4.49,5.4,7.05,3.21c1-.85.94-2.1.76-3.29-.22-1.48-.54-2.64.5-3.86,2.3-2.71,3.16,1.32,3.28,2.87.15,1.77-.13,8.31,3.07,7.82a.32.32,0,0,0,.24-.45,17.38,17.38,0,0,1-1.48-2.07,14.07,14.07,0,0,1-.68-3.59c-.21-1.63-.07-4.07-1.09-5.45-1.81-2.43-4.84-.14-5.16,2.19a7.82,7.82,0,0,0,.1,2.16c.16,1.24.35.95-.79,2s-1.67.95-2.89.09c-2.49-1.77-1.89-4.73-2.95-7.25a4.62,4.62,0,0,0-2.88-2.8C186.53,217.28,184.66,219.33,182.4,219.17Z" transform="translate(-63.44 -14.7)"/><path class="cls-86" d="M203.75,218.23a7.33,7.33,0,0,1,3.08,2.56c.93,1.66.29,3,.06,4.75a5.66,5.66,0,0,0,1.41,4.89c.22.23.59-.07.39-.32-2.43-3,.59-5.6-.43-8.7a5.46,5.46,0,0,0-4.29-3.76C203.67,217.63,203.46,218.06,203.75,218.23Z" transform="translate(-63.44 -14.7)"/><path class="cls-87" d="M206.48,217.49a7.1,7.1,0,0,1,3.31,5.08c.2,1.47-.39,3,0,4.42a6.08,6.08,0,0,0,4.53,3.75c4.54.63,6.4-5.61,2.55-7.78-.27-.16-.63.15-.4.42a5.19,5.19,0,0,1,1.36,3.33,3,3,0,0,1-3.8,2.71c-2.66-.84-2.92-3.34-3-5.73a7.37,7.37,0,0,0-4.39-6.51A.18.18,0,0,0,206.48,217.49Z" transform="translate(-63.44 -14.7)"/><path class="cls-88" d="M211.12,214.45c-1.85,2.73,1.3,5.14,3.35,6.35.13.07.26-.1.13-.18-1.61-1-4.37-2.91-3.35-5.28,1.38-3.16,5.44,0,6.6,1.33,2.19,2.49,2.44,6.08,4.69,8.54,2.93,3.18,9,4,10.25-1.09.53-2.16.59-4.94-.95-6.73A7.73,7.73,0,0,0,226,215c-4.35.39-2.1,7.38.2,5.79a.31.31,0,0,0,0-.5A2.24,2.24,0,0,1,225,219q-.83-1.07.69-1.74c.41-1.08,1.08-1.37,2-.9a5.29,5.29,0,0,1,3.48,2.63c1.34,2.7.34,7.66-3.39,7.29-6-.61-5.76-7.11-9.42-10.49C216.74,214.3,212.81,211.94,211.12,214.45Z" transform="translate(-63.44 -14.7)"/><path class="cls-89" d="M171.47,226.07c-3.7.35-3.17,6.1.54,5.75S175.17,225.72,171.47,226.07Z" transform="translate(-63.44 -14.7)"/><path class="cls-90" d="M188.23,214a19.46,19.46,0,0,1-4.26.83,12.32,12.32,0,0,1-3.75-1.08,11.06,11.06,0,0,0-5.23-.56,17.91,17.91,0,0,0-9.75,4.93c-2.88,2.86-2.85,7.25-2.12,11,0,.12.2.1.18,0-.73-4.29-.35-8.6,3.23-11.5a17.1,17.1,0,0,1,9.2-4c3-.22,5.33,1.64,8.21,1.77a14.06,14.06,0,0,0,3.73-.71c2.8-.65,5.05.12,6.43,2.75a.13.13,0,0,0,.24-.09C193.49,214.55,190.89,213.43,188.23,214Z" transform="translate(-63.44 -14.7)"/><path class="cls-91" d="M236.35,222.09c0-.15-.26-.16-.28,0-.52,3.43-1.71,6.17-5.25,7.4-3.09,1.08-6.93.77-9.15-1.85a.23.23,0,0,0-.36.3c2.25,2.91,6.46,3.53,9.8,2.31C234.22,229.13,237.41,225.62,236.35,222.09Z" transform="translate(-63.44 -14.7)"/><path class="cls-92" d="M174.9,289.89c-1.68-1-3.68-1.36-5-2.92-2.12-2.46-2-5.78-1-8.71.08-.22-.25-.39-.34-.16-1.26,3.11-1.63,6.83.8,9.5,1.19,1.31,2.81,1.79,4.36,2.53,3.15,1.5,3.33,4.14,3.92,7.21,0,.16.3.21.32,0C178.09,294.5,177.51,291.47,174.9,289.89Z" transform="translate(-63.44 -14.7)"/><path class="cls-93" d="M110.42,94.36c2,4.3,7.3,1.55,9.51-.83,1.66-1.78,2.84-3.39,3-5.86.16-2,.2-3.51,2-4.76a5,5,0,0,1,5-.48c3.53,1.58,4.44,5.85,3.11,9.21s-4.59,5.55-8,6.74a.29.29,0,0,0,.21.55c4.77-1.56,9.4-5.26,9.3-10.74-.08-4.35-4.14-8.48-8.62-7A5.84,5.84,0,0,0,122.06,85c-.48,1.68,0,3.42-.91,5a14.31,14.31,0,0,1-3.69,4.09c-1.51,1.14-4.3,2.09-5.72.1S112.79,90,114.19,89c1.6-1.23,3.64-2.68,3.54-4.91a.43.43,0,0,0-.82-.14c-1.1,2.68-3.31,3.61-5.18,5.62C110.54,90.8,109.61,92.62,110.42,94.36Z" transform="translate(-63.44 -14.7)"/><path class="cls-94" d="M121,80.33c4.87-3.56,11.18-3.36,14.56,2.15.1.18.36,0,.26-.19-3-5.22-10.77-7.07-15.1-2.25C120.59,80.21,120.84,80.47,121,80.33Z" transform="translate(-63.44 -14.7)"/><path class="cls-95" d="M121.59,76.48c2.52-.43,4.71-1.33,7.34-1.11a10.61,10.61,0,0,1,6.67,3c.09.09.26-.06.17-.15-3.42-3.69-10-5-14.27-2C121.39,76.31,121.45,76.51,121.59,76.48Z" transform="translate(-63.44 -14.7)"/><path class="cls-96" d="M118.1,80.13a.18.18,0,0,0,.36.07c.49-2.26-1.26-4.46-.27-6.58,1.39-3,5.09-1.76,7.64-2.32s5.71-4.11,3.7-6.81c-.79-1.06-2-1.08-3.24-1-1.48.12-2.66.36-3.81-.77-2.54-2.48,1.54-3.06,3.1-3.07,1.77,0,8.28.71,8-2.51,0-.19-.25-.37-.43-.27A18,18,0,0,1,131,58.2a13.46,13.46,0,0,1-3.63.43c-1.64.1-4.06-.21-5.51.71-2.56,1.64-.48,4.82,1.82,5.3a8.29,8.29,0,0,0,2.17.06c1.24-.09,1-.29,2,.93s.84,1.73-.11,2.88c-1.94,2.36-4.85,1.56-7.43,2.44a4.6,4.6,0,0,0-3,2.67C116.5,75.87,118.42,77.88,118.1,80.13Z" transform="translate(-63.44 -14.7)"/><path class="cls-97" d="M118.65,58.77a7.29,7.29,0,0,1,2.77-2.9c1.72-.81,3.06-.07,4.74.28a5.67,5.67,0,0,0,5-1.07c.24-.21,0-.6-.29-.41-3.16,2.21-5.55-1-8.71-.18a5.45,5.45,0,0,0-4,4C118,58.8,118.46,59,118.65,58.77Z" transform="translate(-63.44 -14.7)"/><path class="cls-98" d="M118.11,56a7.07,7.07,0,0,1,5.29-3c1.48-.09,2.95.6,4.41.33a6.11,6.11,0,0,0,4.06-4.25c.95-4.49-5.15-6.78-7.59-3.09-.17.26.11.64.4.42a5.16,5.16,0,0,1,3.41-1.11,3,3,0,0,1,2.44,4c-1,2.59-3.54,2.68-5.92,2.57a7.38,7.38,0,0,0-6.81,3.92C117.7,56,118,56.16,118.11,56Z" transform="translate(-63.44 -14.7)"/><path class="cls-99" d="M115.39,51.15c2.6,2,5.23-.93,6.57-2.9.09-.12-.08-.26-.17-.14-1.15,1.53-3.21,4.16-5.49,3-3.07-1.6.4-5.43,1.78-6.48,2.64-2,6.24-2,8.84-4.09,3.38-2.7,4.6-8.7-.37-10.3-2.11-.68-4.88-.93-6.77.48A7.71,7.71,0,0,0,117,36.31c.09,4.38,7.22,2.62,5.8.21a.33.33,0,0,0-.51,0,2.2,2.2,0,0,1-1.42,1.16c-.74.5-1.31.23-1.69-.82-1-.48-1.29-1.16-.75-2.05a5.33,5.33,0,0,1,2.86-3.29c2.79-1.14,7.67.2,7,3.89-1,6-7.5,5.25-11.12,8.66C115.64,45.53,113,49.28,115.39,51.15Z" transform="translate(-63.44 -14.7)"/><path class="cls-100" d="M117.6,97.75a.18.18,0,0,0,0-.36c-2.29-.34-4.36,1.57-6.54.73-3.08-1.18-2.11-5-2.85-7.46s-4.49-5.41-7-3.21c-1,.85-.94,2.09-.76,3.29.22,1.48.54,2.63-.5,3.86-2.3,2.71-3.16-1.32-3.28-2.87-.15-1.77.13-8.32-3.07-7.82a.32.32,0,0,0-.24.45,16.6,16.6,0,0,1,1.48,2.07A14,14,0,0,1,95.51,90c.21,1.62.07,4.07,1.09,5.45,1.81,2.43,4.84.13,5.16-2.19a7.89,7.89,0,0,0-.1-2.17c-.16-1.23-.35-.94.79-2s1.67-1,2.89-.09c2.49,1.77,1.89,4.73,3,7.24a4.58,4.58,0,0,0,2.88,2.8C113.47,99.65,115.34,97.59,117.6,97.75Z" transform="translate(-63.44 -14.7)"/><path class="cls-101" d="M96.25,98.7a7.33,7.33,0,0,1-3.08-2.56c-.93-1.66-.29-3-.06-4.75A5.65,5.65,0,0,0,91.7,86.5a.25.25,0,0,0-.39.32c2.43,3-.59,5.6.43,8.69A5.43,5.43,0,0,0,96,99.27C96.33,99.3,96.54,98.87,96.25,98.7Z" transform="translate(-63.44 -14.7)"/><path class="cls-102" d="M93.52,99.43a7.08,7.08,0,0,1-3.31-5.07c-.2-1.47.39-3,0-4.43a6.07,6.07,0,0,0-4.53-3.74c-4.54-.64-6.4,5.61-2.55,7.78.27.16.63-.16.4-.43a5.16,5.16,0,0,1-1.36-3.32A3,3,0,0,1,86,87.51c2.66.84,2.92,3.34,3,5.72a7.4,7.4,0,0,0,4.39,6.52C93.54,99.84,93.69,99.54,93.52,99.43Z" transform="translate(-63.44 -14.7)"/><path class="cls-103" d="M88.88,102.48c1.85-2.74-1.3-5.15-3.35-6.35-.13-.08-.26.1-.13.18,1.61,1,4.37,2.91,3.35,5.27-1.38,3.17-5.44,0-6.6-1.33-2.19-2.48-2.44-6.08-4.69-8.53-2.93-3.18-9-4-10.25,1.09-.53,2.16-.59,4.94,1,6.72A7.7,7.7,0,0,0,74,101.91c4.35-.4,2.1-7.38-.2-5.8a.32.32,0,0,0,0,.51A2.21,2.21,0,0,1,75,98q.83,1-.69,1.74c-.41,1.07-1.08,1.37-2,.89A5.25,5.25,0,0,1,68.87,98c-1.34-2.7-.34-7.67,3.39-7.29,6,.6,5.76,7.11,9.42,10.48C83.26,102.63,87.19,105,88.88,102.48Z" transform="translate(-63.44 -14.7)"/><path class="cls-104" d="M128.53,90.86c3.7-.35,3.17-6.1-.54-5.75S124.83,91.2,128.53,90.86Z" transform="translate(-63.44 -14.7)"/><path class="cls-105" d="M111.77,103a19.46,19.46,0,0,1,4.26-.83,12.32,12.32,0,0,1,3.75,1.08,11.06,11.06,0,0,0,5.23.56,17.85,17.85,0,0,0,9.75-4.94c2.88-2.85,2.85-7.24,2.12-11,0-.12-.2-.11-.18,0,.73,4.29.35,8.61-3.23,11.5a17,17,0,0,1-9.2,4c-3,.21-5.33-1.65-8.21-1.77a13.67,13.67,0,0,0-3.73.71c-2.8.64-5-.12-6.43-2.75a.13.13,0,0,0-.24.09C106.51,102.38,109.11,103.49,111.77,103Z" transform="translate(-63.44 -14.7)"/><path class="cls-106" d="M63.65,94.84c.05.14.26.16.28,0,.52-3.43,1.71-6.17,5.25-7.41,3.09-1.07,6.93-.76,9.15,1.86a.23.23,0,0,0,.36-.3c-2.25-2.91-6.46-3.53-9.8-2.32C65.78,87.79,62.59,91.3,63.65,94.84Z" transform="translate(-63.44 -14.7)"/><path class="cls-107" d="M125.1,27c1.68,1,3.68,1.36,5,2.92,2.12,2.46,2,5.78,1,8.7-.08.23.25.39.34.16,1.26-3.1,1.63-6.82-.8-9.49-1.19-1.31-2.81-1.8-4.36-2.54-3.15-1.49-3.33-4.14-3.92-7.2,0-.16-.3-.21-.32,0C121.91,22.42,122.49,25.46,125.1,27Z" transform="translate(-63.44 -14.7)"/></svg>