<svg id="Layer_1" data-name="Layer 1" xmlns="http://www.w3.org/2000/svg" viewBox="0 0 560.8 923.75"><defs><style>.cls-1{fill:#0f9;}.cls-2{fill:#0c6;}</style></defs><path class="cls-1" d="M484.61,862.85h46.29a46.29,46.29,0,0,1,46.29,46.29v0a46.29,46.29,0,0,1-46.29,46.29h0a46.29,46.29,0,0,1-46.29-46.29V862.85a0,0,0,0,1,0,0Z" transform="translate(578.76 -140.75) rotate(45)"/><path class="cls-1" d="M628.18,333.19a138.71,138.71,0,0,0-4.75-23.08,151.53,151.53,0,0,0-8.29-21.34,146.85,146.85,0,0,0-24.46-36.25,153.83,153.83,0,0,0-32.26-26.9A149.52,149.52,0,0,0,480,202.07,137.5,137.5,0,0,0,403,225,158.36,158.36,0,0,0,374.1,249.7a196.93,196.93,0,0,0-21.62,28.69,227.61,227.61,0,0,0-16,30.41c-2.39,5.12-4.25,10.35-6.35,15.51-1.83,5.2-3.81,10.38-5.38,15.6s-3.25,10.43-4.58,15.68c-1.48,5.22-2.69,10.46-3.89,15.7s-2.21,10.58-3.29,15.86c-.89,5.34-1.85,10.66-2.54,16a372.7,372.7,0,0,0-3.1,64.3q.58,16,2.6,31.84c1.2,10.55,3,21,5,31.34,8.42,41.39,22.8,80.9,41,118.07a690.33,690.33,0,0,0,64.79,105c12.12,16.55,25.12,32.41,38.44,48,6.67,7.78,13.56,15.37,20.56,22.88s14.06,14.8,21.72,22.2l.24.23A8.76,8.76,0,1,0,513.45,834l-.14-.13c-7.17-6.4-14.27-13.68-21.15-20.84s-13.51-14.74-20-22.34c-13-15.17-25.14-31.17-36.68-47.48-22.77-32.85-42.74-67.66-58-104.27s-26.32-74.73-30.72-113.38A327.5,327.5,0,0,1,345,467.71c.46-9.58,1.55-19.1,2.87-28.53,1.5-9.42,3.27-18.77,5.57-28,1.08-4.62,2.43-9.17,3.68-13.72,1.46-4.53,2.69-9,4.35-13.54s3.13-9,4.91-13.37,3.52-8.74,5.4-13,4-8.41,5.93-12.58c2.18-4,4.24-8.14,6.63-12a170.84,170.84,0,0,1,15-21.76c10.76-13.41,23.43-23.94,36.55-30.05s26.63-7.76,39.35-5.31a68.23,68.23,0,0,1,34.16,17.61c9.34,8.94,15.83,20.28,17.95,30.69a37.57,37.57,0,0,1,.29,14.55,33.49,33.49,0,0,1-4.53,12.09,51.85,51.85,0,0,1-8.91,10.83,83.62,83.62,0,0,1-13.75,10.12A63.63,63.63,0,0,0,485.67,384a61.74,61.74,0,0,0,92.24,82.09l4.76-5.35A204,204,0,0,0,608.59,425a155.78,155.78,0,0,0,17-43.83A141,141,0,0,0,628.18,333.19Z" transform="translate(-219.6 -31.63)"/><path class="cls-1" d="M547.45,834.16C557.92,823.05,568.2,811,578,798.89s19.42-24.57,28.64-37.22a908.65,908.65,0,0,0,51.37-78.47c31.42-53.94,57-111.28,73.12-171s22-121.76,13.42-182a371.42,371.42,0,0,0-8.93-44.56c-1.81-7.36-4.15-14.56-6.34-21.8-2.5-7.14-4.85-14.33-7.73-21.34-2.63-7.09-5.83-14-8.82-20.9-3.33-6.78-6.47-13.74-10.09-20.22A271.27,271.27,0,0,0,678.85,164c-17.81-23.45-39.46-43.63-64.23-58.53a209.15,209.15,0,0,0-81-28.3C476.52,69.48,416.73,85.51,370,119A228.42,228.42,0,0,0,278.17,259c-6.05,28-6.72,57.07-3.43,85.9a334.06,334.06,0,0,0,8.09,43,412.13,412.13,0,0,0,13.45,42.13l.25.67a28.1,28.1,0,0,1-52.75,19.38c-.06-.15-.16-.43-.21-.58a467.63,467.63,0,0,1-14.26-48.61,386.51,386.51,0,0,1-8.24-50.42,349.93,349.93,0,0,1-.92-51.52,297.78,297.78,0,0,1,7.54-51.32A280.52,280.52,0,0,1,437.18,38.85a269.16,269.16,0,0,1,102.66-4.1A250.92,250.92,0,0,1,636,70.93c29.1,18.44,53.92,42.85,73.71,70.24a308,308,0,0,1,26,43.15c3.93,7.44,7.08,15,10.51,22.53,3.07,7.68,6.33,15.26,9,23.09,2.91,7.73,5.28,15.65,7.78,23.51,2.18,8,4.5,15.9,6.25,24a403.06,403.06,0,0,1,8.36,48.71c7.52,65.59-1,131.75-19.5,193.76C739.55,582,711.35,640.49,677.59,695a930,930,0,0,1-54.79,78.83q-14.67,19-30.31,37.19c-10.48,12.16-21,23.93-32.61,35.54a8.76,8.76,0,0,1-12.59-12.18Z" transform="translate(-219.6 -31.63)"/><path class="cls-2" d="M513.45,834l-.14-.13c-7.17-6.4-14.27-13.68-21.15-20.84s-13.51-14.74-20-22.34c-13-15.17-25.14-31.17-36.68-47.48-22.77-32.85-42.74-67.66-58-104.27s-26.57-77-31-115.65h-.11c-.55-8-7.53-14.29-16.14-14.29-9,0-16.25,6.84-16.25,15.27a13.17,13.17,0,0,0,.21,1.89h-.08l.15.64c.06.38.15.75.24,1.12A528.7,528.7,0,0,0,356,648.71a690.33,690.33,0,0,0,64.79,105c12.12,16.55,25.12,32.41,38.44,48,6.67,7.78,13.56,15.37,20.56,22.88s14.06,14.8,21.72,22.2l.24.23A8.76,8.76,0,1,0,513.45,834Z" transform="translate(-219.6 -31.63)"/></svg>