<svg id="Layer_1" data-name="Layer 1" xmlns="http://www.w3.org/2000/svg" viewBox="0 0 259.07 301.57"><defs><style>.cls-1{fill:#ff00ae;}.cls-2{fill:#3fade8;}</style></defs><path class="cls-1" d="M177.81,199c-.68-15.06-12.22-27.81-27.81-27.81-14.55,0-28.48,12.8-27.81,27.81s12.22,27.81,27.81,27.81C164.55,226.84,178.48,214.05,177.81,199Z" transform="translate(-20.47 -24.21)"/><path class="cls-1" d="M120.45,135.57c-8.77,1.85-18,7.37-23.25,14.7a59.75,59.75,0,0,0-3.91,6.88,34.83,34.83,0,0,1-2,3.46,15.74,15.74,0,0,1-2,2.5q-4.86-1-3.23-3.69c.56-2.49,2.25-4.45,2.65-7.1a16.29,16.29,0,0,0-.51-6.94.35.35,0,0,0-.68.19,14.2,14.2,0,0,1,.23,5.11,49.42,49.42,0,0,0-4.44-6.51q-2.88-4-6-7.87a.45.45,0,0,0-.25-.16c3.72-2.73,7.4-6.42,4.11-9.53-1.77-1.67-4.3-.65-6,.65-2.73,2.15-5.52,5.27-9,2-2.35-2.16-2-5.28-.65-7.78l.44-.26c3.1-2,1-4.32,2-7.27.13-.37-.25-.64-.58-.58l-.66.11a.87.87,0,0,0-.59.6c-.7,2,1,4.28-1.39,5.88a3.75,3.75,0,0,1-3.59.24q-4.32.45-1.35-4.26c.38-.62,1-1.16,1.45-1.75a17.19,17.19,0,0,0,3.19-10.3.4.4,0,0,0-.8,0,15.81,15.81,0,0,1-2.24,7.9c-.95,1.55-2.35,2.64-3.41,4.08-1.46,2-1.65,4.38.61,5.88,1.62,1.08,4,.94,5.87.22-1.56,3.64-.95,8,3.54,9.54,2.67.88,4.55-.34,6.52-2a11.56,11.56,0,0,1,1.54-1.34c1.51-1.59,3.1-.9,4.79,2.08-.21,1.59-2.41,2.8-3.62,3.61-2,1.33-4,2.56-6.08,3.84-1.1.7,0,2.48,1,1.73.82-.58,2.42-1.56,4.13-2.75a.45.45,0,0,0,.09.32q3.12,4.08,6,8.3c1.59,2.32,2.95,5.12,4.94,7.12A29,29,0,0,1,85,158.29c-.82,1.59-1.38,3.31-.65,5,2,4.63,6.07,1,7.87-1.55,3.89-5.57,5.72-11.65,11.11-16.18,5.24-4.4,11.36-6.49,17.47-9.29C121.19,136.11,120.87,135.48,120.45,135.57Z" transform="translate(-20.47 -24.21)"/><path class="cls-1" d="M85.57,128.93c-.19-2.34-2.09-4.09-4.06-5.1a.29.29,0,0,0-.29.5c1.92,1.15,3.85,3.16,3.18,5.61-.45,1.65-2,2.91-2.91,4.29-.19.28.19.61.46.45C84,133.52,85.77,131.45,85.57,128.93Z" transform="translate(-20.47 -24.21)"/><path class="cls-1" d="M84,150.69a21.49,21.49,0,0,0-3.4-4.77c-1.69-2.11-3.32-4.25-4.92-6.41-.15-.21-.49,0-.35.2,1.41,2.16,2.86,4.3,4.35,6.4,1.18,1.66,2.35,3.61,4,4.8A.2.2,0,0,0,84,150.69Z" transform="translate(-20.47 -24.21)"/><path class="cls-1" d="M82.57,152.44c-1.44-2.23-3.46-4.11-5.1-6.21-.2-.25-.65.09-.46.35,1.58,2.13,3.18,4.52,5.32,6.11C82.47,152.79,82.67,152.59,82.57,152.44Z" transform="translate(-20.47 -24.21)"/><path class="cls-2" d="M89.81,168.29A13.18,13.18,0,0,1,86,169c-2.39-.17-3.68-1.78-4-4a23.18,23.18,0,0,1,.56-8,.24.24,0,0,0-.47-.13c-1.06,3.19-2.65,8.3-.33,11.31,2,2.55,6.16,3,8.36.57A.31.31,0,0,0,89.81,168.29Z" transform="translate(-20.47 -24.21)"/><path class="cls-1" d="M70,134.39c-2.32.06-4.45-.27-6.13-2a9.69,9.69,0,0,1-2.45-6.74.18.18,0,0,0-.35,0c-.17,2.75.43,5.8,2.54,7.74,1.71,1.55,4.33,2.54,6.5,1.46A.22.22,0,0,0,70,134.39Z" transform="translate(-20.47 -24.21)"/><path class="cls-1" d="M111.39,122.24a6.45,6.45,0,0,0-7.6,0c-1.37-3.12-4.15-5.87-6.19-8.56-.72-.93-1.42-1.86-2.14-2.77,3.78-1.91,8.41-2.36,12.41-3.29.31-.07.33-.59,0-.64-4-.69-9.26.54-13.22,2.94A29,29,0,0,0,91,106.12c-.15-.12-.37.09-.22.23a28.13,28.13,0,0,1,3.42,3.82,14.57,14.57,0,0,0-3.33,2.91c-.41.5.28,1.23.73.73a12.44,12.44,0,0,1,3.33-2.66c.94,1.3,1.83,2.63,2.73,3.94,1.72,2.5,3.29,5.57,5.58,7.58a6.17,6.17,0,0,0-1.19,1.52.22.22,0,0,0,.38.23,7.12,7.12,0,0,1,1.17-1.46c.22.05.49-.09.41-.35,4.1-3.16,10.12,1.72,9.51,7a5.87,5.87,0,0,1-5.46,5.44,5.44,5.44,0,0,1-4.11-1.56c-2.24-2.95,1.57-4.18,3.54-4.66a.24.24,0,0,0-.06-.48c-1.91,0-4.07.13-5.24,1.87a3.31,3.31,0,0,0,.62,4.41,7.15,7.15,0,0,0,10.69-1.11C115.88,130,114.77,124.72,111.39,122.24Z" transform="translate(-20.47 -24.21)"/><path class="cls-1" d="M92.63,102.67A2.24,2.24,0,0,0,91,101.15c-1.17-.32-3,.74-3.75-.38a10.69,10.69,0,0,0-1-4.57c0-.11-.24,0-.2.09a10.22,10.22,0,0,1,.18,5.72c-.31,1.21-1.28,2.39-1.36,3.63a1.88,1.88,0,0,0,2.65,1.76.24.24,0,0,0,.07-.44l-.75-.31c-1-.8-.54-1.68-.3-2.61a17.45,17.45,0,0,0,.63-2.25c0-.2,0-.39,0-.58.34.55.82.58,1.67.4,1.27-.27,3.21-.08,3.15,1.68,0,1.3-1.07,1.77-2,2.41a.16.16,0,0,0,0,.29C91.85,106.56,93,104,92.63,102.67Z" transform="translate(-20.47 -24.21)"/><path class="cls-1" d="M87.63,107h0S87.65,107,87.63,107Z" transform="translate(-20.47 -24.21)"/><path class="cls-1" d="M107.1,111.37c-2.67-1.23-5.7-.86-8.39.09-.13.05-.08.26.06.22,2.87-.79,10-1.18,10.14,3.35.1,3-3.22,2.23-4.8,1.26-1.14-.71-2-1.72-3.19-2.38-.28-.15-.72.11-.59.46,1.24,3.24,8.67,7,9.64,1.6C110.35,113.89,108.9,112.2,107.1,111.37Z" transform="translate(-20.47 -24.21)"/><path class="cls-1" d="M142.06,125c-1.65.55-3.05,1.42-4.8,1.68s-3.73-.06-5.6.07c5.06-4.85-.31-12.1-5.37-14.33-1.36-.6-3-.75-4.13-1.79-2.36-2.17-1.47-4-.1-6.32.53-.87,1.56-1.79,1.31-3a2.08,2.08,0,0,0-3-1.42A24,24,0,0,1,122,98c1.39-1.41,3.31-3.13,5.58-1.1a3.88,3.88,0,0,1,.61,4.81c-1,1.69-2.51,2.47-4,3.68-.14.11,0,.35.17.29,2.47-.85,5.16-2.91,5.3-5.75.1-2-1.56-4.68-3.67-5a4.61,4.61,0,0,0-3.44,1.18c-1.26.94-3.92,5.27-5.48,4.85-3.31-.89,1.09-5.27,1.39-6.32a3.08,3.08,0,0,0-.5-3c-.07-.09-.21,0-.15.09,2.35,4-4.27,5.16-3.27,8.59a2.47,2.47,0,0,0,2.67,1.65,3.75,3.75,0,0,0,2.62-1.39.18.18,0,0,0,.22,0q2.59,2.34.62,4a6.45,6.45,0,0,0-.66,1,5.17,5.17,0,0,0-.65,2.3,4.55,4.55,0,0,0,2.12,3.67c2.58,1.88,5.87,2,8.25,4.36,3.14,3.11,3.11,7.1,1.07,10.79a.16.16,0,0,0,0,.09,12.12,12.12,0,0,0-5.56,2.89c-.13.11,0,.33.19.24a11.58,11.58,0,0,1,6.66-2.09,36.85,36.85,0,0,0,5.35.18,6.78,6.78,0,0,0,5-2.66A.29.29,0,0,0,142.06,125Z" transform="translate(-20.47 -24.21)"/><path class="cls-1" d="M144.66,128.14a51.34,51.34,0,0,1-10.59,1.73,11.7,11.7,0,0,0-6.73,2.36c-.21.17.07.53.3.38,3.56-2.37,7.53-1.43,11.52-1.68,2.19-.13,4.45-.58,5.8-2.4C145.1,128.34,144.87,128.08,144.66,128.14Z" transform="translate(-20.47 -24.21)"/><path class="cls-1" d="M125.46,115c-1.72-.58-3.9-.7-5.46-1.65-2.81-1.71-2.81-5.15-1.55-7.78a.13.13,0,0,0-.23-.13c-1.46,2.49-1.79,5.65.33,7.91,1.19,1.27,2.78,1.6,4.38,2.08A11.63,11.63,0,0,1,129,119a.43.43,0,0,0,.73-.3C129.54,116.5,127.38,115.62,125.46,115Z" transform="translate(-20.47 -24.21)"/><path class="cls-1" d="M130.33,120.94c-.16-.23-.53,0-.38.22.79,1.37.24,2.61-.34,3.92a.16.16,0,0,0,.21.21C131.4,124.51,131.23,122.2,130.33,120.94Z" transform="translate(-20.47 -24.21)"/><path class="cls-1" d="M127.1,119.63a8.47,8.47,0,0,0-5.28-3.09c-.36-.07-.52.48-.15.56,2.14.48,5.37,2.18,5.4,4.74a2.28,2.28,0,0,1-2.71,2.36c-1.68-.45-1.2-1.94-1-3.14,0-.18-.2-.26-.33-.19-1.31.7-1,2.71,0,3.62a3,3,0,0,0,4-.08A3.62,3.62,0,0,0,127.1,119.63Z" transform="translate(-20.47 -24.21)"/><path class="cls-1" d="M180.7,134.91c8.77,1.85,18,7.37,23.25,14.7a58.3,58.3,0,0,1,3.91,6.88,34.92,34.92,0,0,0,2,3.46,16.14,16.14,0,0,0,2,2.5c3.25-.66,4.32-1.89,3.23-3.7-.55-2.48-2.25-4.45-2.65-7.09a16.44,16.44,0,0,1,.51-6.94.35.35,0,0,1,.68.19,14.42,14.42,0,0,0-.23,5.11,49.72,49.72,0,0,1,4.44-6.51c1.92-2.68,3.92-5.29,6-7.87a.43.43,0,0,1,.25-.16c-3.72-2.73-7.4-6.42-4.11-9.53,1.78-1.67,4.3-.65,5.95.65,2.73,2.15,5.53,5.27,9,2,2.36-2.16,2-5.28.65-7.78-.15-.08-.29-.17-.43-.26-3.11-2-1-4.32-2-7.26a.48.48,0,0,1,.58-.59l.66.12a.83.83,0,0,1,.59.6c.7,2-1,4.28,1.39,5.88a3.77,3.77,0,0,0,3.6.24q4.31.45,1.34-4.26c-.37-.62-1-1.16-1.45-1.76a17.24,17.24,0,0,1-3.19-10.3.41.41,0,0,1,.81,0,15.75,15.75,0,0,0,2.24,7.91c.94,1.55,2.35,2.64,3.41,4.08,1.46,2,1.64,4.38-.61,5.88-1.62,1.08-4,.94-5.87.22,1.55,3.63.94,8-3.55,9.53-2.66.89-4.55-.33-6.52-2a10.35,10.35,0,0,0-1.54-1.34q-2.25-2.39-4.79,2.07c.22,1.6,2.41,2.81,3.62,3.62,2,1.33,4.06,2.56,6.08,3.84,1.1.7,0,2.48-1,1.73-.82-.59-2.42-1.56-4.12-2.76a.53.53,0,0,1-.1.33q-3.12,4.06-6,8.3c-1.59,2.31-2.94,5.12-4.94,7.12a29,29,0,0,0,2.41,5.84c.82,1.59,1.38,3.31.65,5-2,4.63-6.06,1-7.87-1.55-3.88-5.57-5.71-11.66-11.11-16.19-5.24-4.39-11.36-6.48-17.47-9.29C180,135.44,180.28,134.82,180.7,134.91Z" transform="translate(-20.47 -24.21)"/><path class="cls-1" d="M215.59,128.27c.18-2.35,2.08-4.09,4-5.11a.29.29,0,0,1,.29.5c-1.92,1.15-3.85,3.16-3.18,5.62.45,1.64,2,2.91,2.91,4.28.2.29-.18.62-.46.46C217.14,132.85,215.39,130.79,215.59,128.27Z" transform="translate(-20.47 -24.21)"/><path class="cls-1" d="M217.14,150a21.62,21.62,0,0,1,3.39-4.76c1.69-2.11,3.32-4.25,4.93-6.42.15-.2.49,0,.34.2q-2.12,3.24-4.35,6.41c-1.17,1.66-2.35,3.61-4,4.8C217.3,150.35,217.07,150.18,217.14,150Z" transform="translate(-20.47 -24.21)"/><path class="cls-1" d="M218.58,151.78c1.44-2.23,3.46-4.11,5.1-6.21.2-.26.65.09.46.35-1.57,2.12-3.18,4.52-5.32,6.1C218.68,152.13,218.49,151.92,218.58,151.78Z" transform="translate(-20.47 -24.21)"/><path class="cls-2" d="M211.34,167.63a13.19,13.19,0,0,0,3.83.73c2.38-.17,3.67-1.79,4-4a23.14,23.14,0,0,0-.56-7.95.24.24,0,0,1,.47-.13c1.06,3.19,2.65,8.3.33,11.31-2,2.55-6.16,3-8.36.57A.31.31,0,0,1,211.34,167.63Z" transform="translate(-20.47 -24.21)"/><path class="cls-1" d="M231.19,133.72c2.32.06,4.46-.26,6.13-2.05a9.64,9.64,0,0,0,2.45-6.73.18.18,0,0,1,.36,0c.16,2.74-.43,5.8-2.55,7.73-1.71,1.56-4.33,2.55-6.5,1.47A.23.23,0,0,1,231.19,133.72Z" transform="translate(-20.47 -24.21)"/><path class="cls-1" d="M189.76,121.57a6.47,6.47,0,0,1,7.6,0c1.37-3.12,4.15-5.88,6.2-8.56.71-.93,1.41-1.86,2.14-2.77-3.79-1.92-8.41-2.36-12.42-3.29a.34.34,0,0,1,0-.65c4-.68,9.27.55,13.22,2.95a28.33,28.33,0,0,1,3.68-3.75c.15-.12.37.09.22.22a28.28,28.28,0,0,0-3.42,3.83,13.91,13.91,0,0,1,3.33,2.91c.41.5-.28,1.23-.72.72a12.6,12.6,0,0,0-3.34-2.65c-.93,1.29-1.82,2.62-2.73,3.94-1.72,2.49-3.29,5.57-5.58,7.58a6,6,0,0,1,1.19,1.52.22.22,0,0,1-.38.22,7.06,7.06,0,0,0-1.17-1.46c-.22.06-.49-.08-.41-.34-4.09-3.16-10.12,1.72-9.51,7a5.85,5.85,0,0,0,5.46,5.43,5.43,5.43,0,0,0,4.11-1.56c2.24-3-1.56-4.18-3.54-4.65a.25.25,0,0,1,.06-.49c1.91,0,4.07.13,5.24,1.88a3.29,3.29,0,0,1-.62,4.4c-3,3.05-8.34,2.31-10.69-1.11S186.38,124.06,189.76,121.57Z" transform="translate(-20.47 -24.21)"/><path class="cls-1" d="M208.52,102a2.2,2.2,0,0,1,1.6-1.51c1.16-.33,3,.74,3.75-.38a10.68,10.68,0,0,1,1-4.57c.05-.11.24,0,.2.09a10.12,10.12,0,0,0-.17,5.72c.3,1.2,1.27,2.39,1.35,3.63a1.88,1.88,0,0,1-2.65,1.76.25.25,0,0,1-.06-.44l.74-.32c1-.79.54-1.67.3-2.6a19.38,19.38,0,0,1-.63-2.26c0-.19,0-.38-.05-.57-.34.55-.81.58-1.67.4-1.27-.28-3.21-.08-3.15,1.68,0,1.29,1.07,1.77,2,2.41a.15.15,0,0,1,0,.28C209.3,105.9,208.16,103.37,208.52,102Z" transform="translate(-20.47 -24.21)"/><path class="cls-1" d="M213.52,106.29h0S213.5,106.3,213.52,106.29Z" transform="translate(-20.47 -24.21)"/><path class="cls-1" d="M194.05,110.71c2.67-1.23,5.7-.86,8.39.09.13,0,.08.26-.06.22-2.87-.8-10-1.18-10.14,3.35-.1,3,3.22,2.23,4.8,1.25,1.14-.7,2-1.71,3.19-2.37.28-.16.72.11.59.45-1.24,3.25-8.67,7-9.64,1.61C190.81,113.22,192.26,111.54,194.05,110.71Z" transform="translate(-20.47 -24.21)"/><path class="cls-1" d="M159.09,124.31c1.65.56,3,1.42,4.81,1.69s3.72-.06,5.59.07c-5.06-4.85.31-12.1,5.37-14.33,1.36-.6,3-.76,4.13-1.79,2.36-2.17,1.48-4,.1-6.32-.53-.87-1.56-1.79-1.31-2.95a2.08,2.08,0,0,1,3-1.42c-.53-.67-1-1.37-1.57-1.94-1.4-1.4-3.32-3.12-5.59-1.1A3.89,3.89,0,0,0,173,101c1,1.7,2.51,2.47,4,3.68a.18.18,0,0,1-.18.3c-2.47-.86-5.15-2.91-5.3-5.76-.1-2,1.56-4.67,3.68-5a4.64,4.64,0,0,1,3.43,1.17c1.26.95,3.92,5.27,5.48,4.86,3.31-.89-1.08-5.27-1.39-6.32a3.07,3.07,0,0,1,.5-3c.07-.09.22,0,.16.09-2.36,4,4.26,5.16,3.26,8.59a2.5,2.5,0,0,1-2.67,1.65,3.81,3.81,0,0,1-2.62-1.39.16.16,0,0,1-.22,0q-2.59,2.36-.62,4a5.31,5.31,0,0,1,.66,1,5.13,5.13,0,0,1,.65,2.3,4.54,4.54,0,0,1-2.12,3.67c-2.57,1.88-5.87,2-8.25,4.36-3.14,3.11-3.1,7.1-1.07,10.78a.22.22,0,0,1,0,.1,12.19,12.19,0,0,1,5.56,2.88c.14.11,0,.34-.19.25a11.53,11.53,0,0,0-6.66-2.09,38.22,38.22,0,0,1-5.35.18,6.8,6.8,0,0,1-5-2.66A.3.3,0,0,1,159.09,124.31Z" transform="translate(-20.47 -24.21)"/><path class="cls-1" d="M156.49,127.48a52,52,0,0,0,10.59,1.73,11.77,11.77,0,0,1,6.73,2.35c.21.18-.07.54-.3.39-3.56-2.37-7.52-1.43-11.51-1.68-2.2-.13-4.45-.58-5.81-2.4C156.05,127.68,156.29,127.42,156.49,127.48Z" transform="translate(-20.47 -24.21)"/><path class="cls-1" d="M175.69,114.31c1.73-.59,3.9-.7,5.46-1.65,2.81-1.71,2.82-5.15,1.55-7.78a.13.13,0,0,1,.23-.13c1.46,2.48,1.8,5.65-.32,7.91-1.19,1.26-2.78,1.59-4.38,2.08a11.66,11.66,0,0,0-6.1,3.64.42.42,0,0,1-.72-.3C171.61,115.84,173.78,115,175.69,114.31Z" transform="translate(-20.47 -24.21)"/><path class="cls-1" d="M170.82,120.27c.16-.23.53,0,.38.23-.79,1.36-.23,2.61.34,3.91a.16.16,0,0,1-.21.22C169.75,123.85,169.92,121.53,170.82,120.27Z" transform="translate(-20.47 -24.21)"/><path class="cls-1" d="M174.05,119a8.53,8.53,0,0,1,5.28-3.08c.36-.07.52.47.15.56-2.13.48-5.37,2.17-5.4,4.74a2.28,2.28,0,0,0,2.72,2.36c1.67-.45,1.19-1.94,1-3.14,0-.18.2-.27.34-.2,1.31.7,1,2.72,0,3.62a3,3,0,0,1-4.06-.07A3.64,3.64,0,0,1,174.05,119Z" transform="translate(-20.47 -24.21)"/><path class="cls-1" d="M157.12,76.84c-.86-2.09-3.09-3.64-5.32-2.54-1.18.58-1.8,1.81-2.55,2.82-1.32,1.8-3.63,2.47-5.25.41-2.06-2.64.08-4.7,1.55-6.2,2.76-2.81,5.83-5.24,7.19-9.07.13-.37-.44-.51-.58-.16-1.78,4.35-6.07,6.19-9.11,9.49-2,2.14-2.78,4.52-.77,7,1.58,1.91,4.36,3.23,6.65,1.78,1.17-.74,1.39-2.1,2.38-2.92,3.56-2.93,5,1.16,4.66,3.44a9.7,9.7,0,0,1-2.08,4.27c-.2.28.17.61.44.45A7.28,7.28,0,0,0,157.12,76.84Z" transform="translate(-20.47 -24.21)"/><path class="cls-1" d="M159.46,85.79a69.42,69.42,0,0,0-10.6,5.87A2.89,2.89,0,0,1,147.19,89c-.19-2,.94-3.27,1.93-4.83a3.78,3.78,0,0,0,1.54-2,.26.26,0,0,0-.39-.26c-.32.24-.61.49-.89.74a.54.54,0,0,0-.73.2c-.16.29-.36.58-.56.87a5.94,5.94,0,0,1-2.11,1,7.05,7.05,0,0,1-6.28-1.45.2.2,0,0,0-.27.3,7.5,7.5,0,0,0,6.41,1.84,8.54,8.54,0,0,0,1.21-.3c-1.5,2.07-2.86,4.27-.75,6.58a5.4,5.4,0,0,0,1,.87c-1.5.94-3,1.85-4.5,2.67-.69.37,0,1.35.67,1,1.73-.92,3.56-1.83,5.39-2.79l1.3.63c2.6,1.35,4.39,2.53.74,6.18-1.56,1.55-4.16,1.91-6.22,2.22a.45.45,0,0,0-.06.89c2.14.64,5.53-.27,7.78-2.06,2.19,1.94,4.07,5.05,1.71,7.67a7.06,7.06,0,0,1-1.72,1.37,24.22,24.22,0,0,0-1.21-3.12c-.18-.37-.78-.18-.62.22a20.59,20.59,0,0,1,1,3.33,35.16,35.16,0,0,1-3.86,1.42c-1.79.62-4.86,1.45-4.48,4,.62,4.14,5.3,3.58,8.45,1.73a51.57,51.57,0,0,1-1.92,7.37c-.71,2.24-.9,6.07,2.27,6.19a.43.43,0,0,0,.33-.67c-2.8-3.84.81-8.6,1-13,0-.4,0-.8,0-1.2a5,5,0,0,0,.85-1.06.51.51,0,0,0-.61-.7l-.31.13a21.67,21.67,0,0,0-.49-3,8.79,8.79,0,0,0,2.4-2c2.87-3.57,1-6.86-2.09-9.35a4.46,4.46,0,0,0,1.24-5c-.66-1.6-2.29-2.41-3.74-3.13a41.45,41.45,0,0,0,9.08-6.26A.3.3,0,0,0,159.46,85.79ZM152,115.74a14.8,14.8,0,0,1-2.36,1.17c-1.64.55-3.84-.87-2.2-2.39a7.43,7.43,0,0,1,2-.81c.84-.34,1.68-.69,2.5-1.1A19.33,19.33,0,0,1,152,115.74Z" transform="translate(-20.47 -24.21)"/><path class="cls-2" d="M158,134.2c-.2-.09-.37.2-.17.3,3.43,1.84,5,6.34.32,8.36a13.53,13.53,0,0,1-5,.52c-3.54,0-7.06-.41-10.61-.38a.49.49,0,0,0-.48.65c-6.53-.33-14,2-16.26,8.42a7.09,7.09,0,0,0,2.5,8.3c3.66,2.65,8,1.77,12,.45a.47.47,0,0,0,.24-.19A9.55,9.55,0,0,0,142,160a10,10,0,0,0,2.94-2.47,7.87,7.87,0,0,1,3.34-2.7c2.15-.86,6.25-2.12,7.41.82a3.19,3.19,0,0,1-1.05,3.63,12.65,12.65,0,0,1-3.25,1.5,4.34,4.34,0,0,0-2.5,2.29,4.6,4.6,0,0,0,.52,4.07A.28.28,0,0,0,150,167c.07-1.35-.38-3.12.67-4.2.85-.87,2.21-1.12,3.3-1.58,2.32-1,4-3.39,3.26-6-.82-2.86-3.71-3.49-6.32-3a15.21,15.21,0,0,0-4.21,1.39,8.71,8.71,0,0,0-3.07,3,9,9,0,0,1-4.21,3.33c-2.51.22-5.3.48-7.66-.26-4.84-1.52-5.35-6.68-2.17-10.11,3.85-4.14,9.86-5.59,15.31-4.79,4.86,1.33,11.49,1.56,15.19-1.49C163.53,140.44,161.7,135.9,158,134.2Z" transform="translate(-20.47 -24.21)"/><path class="cls-2" d="M137.62,134.17c-9.33-.48-20.08,4.33-27.66,9.4-3.69,2.47-7.11,5.21-9.37,9.1-2.58,4.43-3.93,9.43-7.5,13.25a.13.13,0,0,0,.19.19c2.92-2.7,4.69-6.12,6.52-9.6a29.63,29.63,0,0,1,10.41-11.34,59.48,59.48,0,0,1,13.66-6.8c4.57-1.58,9.24-2,13.89-3.17A.53.53,0,0,0,137.62,134.17Z" transform="translate(-20.47 -24.21)"/><path class="cls-2" d="M153.34,133.73c-3.33-1.14-7.79,0-11.11.77-.42.09-.23.7.18.64a61.63,61.63,0,0,1,6.21-.64,24,24,0,0,0,4.72-.35A.22.22,0,0,0,153.34,133.73Z" transform="translate(-20.47 -24.21)"/><path class="cls-2" d="M150.06,137.4c-8.27-2-18.66,1.73-26.17,4.92s-15.19,7.17-20.56,13.61c-.22.26.15.65.38.38,5.44-6.06,13.16-9.78,20.55-12.93a72.83,72.83,0,0,1,12-4c4.58-1.06,9.09-.88,13.68-1.46C150.26,137.87,150.36,137.48,150.06,137.4Z" transform="translate(-20.47 -24.21)"/><path class="cls-1" d="M156.13,135.66c-3.18,0-3.19,5,0,5S159.32,135.66,156.13,135.66Z" transform="translate(-20.47 -24.21)"/><path class="cls-1" d="M136.14,150.24c-3.19,0-3.2,4.95,0,4.95S139.33,150.24,136.14,150.24Z" transform="translate(-20.47 -24.21)"/><path class="cls-2" d="M163.14,135.36c-.18-.27-.61,0-.44.26,3.23,5-.83,9.73-5.77,11a.18.18,0,0,0,0,.35A7.58,7.58,0,0,0,163.14,135.36Z" transform="translate(-20.47 -24.21)"/><path class="cls-2" d="M208.93,164.31c-5.77-6.15-10.05-13.63-16.84-18.8a46,46,0,0,0-22.09-9c-.11,0-.13.17,0,.19a45.37,45.37,0,0,1,23.25,11,57.83,57.83,0,0,1,8.27,9.66c2,2.77,4,5.81,7,7.56A.39.39,0,0,0,208.93,164.31Z" transform="translate(-20.47 -24.21)"/><path class="cls-2" d="M207.92,166.6c-3.14-1.57-5.8-2.75-8.17-5.53-2.2-2.58-3.94-5.52-6.09-8.14a39.14,39.14,0,0,0-14.76-11.09c-.23-.1-.43.22-.2.33,7.2,3.41,12.54,8.69,16.88,15.29,2.67,4,6.52,10.26,12,10.26A.61.61,0,0,0,207.92,166.6Z" transform="translate(-20.47 -24.21)"/><path class="cls-2" d="M177.06,141.22a31.69,31.69,0,0,0-11.41-2.57.26.26,0,0,0-.07.5c3.74,1,7.6,1.57,11.35,2.52A.23.23,0,0,0,177.06,141.22Z" transform="translate(-20.47 -24.21)"/><path class="cls-2" d="M137.57,163.23c-3.79.82-8.86,1.33-11.92-1.68-2.81-2.77-3.15-7.29-1.75-10.79.08-.2-.26-.35-.36-.15-1.85,3.67-1.72,8.65,1.34,11.7s9.11,3.27,12.93,1.49C138.15,163.64,137.9,163.16,137.57,163.23Z" transform="translate(-20.47 -24.21)"/><path class="cls-2" d="M158.43,154.33c0-.06-.12-.05-.12,0,.19,2.07.39,4.6-1.14,6.27-1.33,1.44-3.63,1.44-5.22,2.47-.16.11-.12.43.11.4,1.8-.24,4.57-1.15,5.74-2.69C159.24,158.92,158.83,156.49,158.43,154.33Z" transform="translate(-20.47 -24.21)"/><path class="cls-2" d="M158.07,260.91c-4.67-2.72-10.51-.07-15.11-2.68-2.71-1.53-3.61-4.29-1.8-7,.81-1.22,2.89-2.08,4.18-2.6,2.38-.94,5-1.34,7.33-2.34,5.43-2.28,10.48-9.91,3.67-14.11-2-1.27-4.57-1.24-6.88-1.22a29.89,29.89,0,0,1-9-1,26.42,26.42,0,0,1-15-11.6.1.1,0,0,0-.17.1,25.73,25.73,0,0,0,18.7,13c2.43.34,4.84.09,7.27.22,4.2.23,8.9,3.18,7.34,8.08-1.85,5.81-9.92,5.88-14.6,8-2.59,1.15-5.5,3.29-5.39,6.47.11,2.83,2.66,5,5.15,5.92,4.48,1.58,16.95-1.29,16,6.56-.68,5.6-8.09,6-11.5,9.55-3.14,3.22-2.5,7.7-1.66,11.73a62,62,0,0,1,.51,20.12c0,.35.46.36.57.08a32,32,0,0,0,1.34-15.7c-.89-6.35-3.94-13.17,3.06-17.16,3.33-1.9,7.83-3.2,9.18-7.27C162.21,265.1,160.6,262.38,158.07,260.91Z" transform="translate(-20.47 -24.21)"/><path class="cls-2" d="M177.6,183.71c-.12-.15-.38,0-.27.16,3.65,5.36,4.33,11.72,3.84,18-.53,7-2.17,14.18-7.35,19.21a26,26,0,0,1-7.13,4.82c-2,.91-5.44,1.3-6.83,3.26-1,1.36-.91,4.14,1.22,4a.24.24,0,0,0,.16-.4c-2.77-3.29,4-5.07,6-6a27.67,27.67,0,0,0,5.69-3.55,22.9,22.9,0,0,0,7.59-11.68C183.13,202.55,183.52,191.59,177.6,183.71Z" transform="translate(-20.47 -24.21)"/><path class="cls-2" d="M143.39,168.52c-4.73.79-10.18,3.7-14.06,6.44a25,25,0,0,0-8.28,9.69c-4.25,9-3,19,1.18,27.72.06.12.27,0,.22-.09-3.69-9-4.64-19.26.1-28.06a25.26,25.26,0,0,1,9.31-9.58c3.72-2.27,8.11-3.29,11.76-5.59A.29.29,0,0,0,143.39,168.52Z" transform="translate(-20.47 -24.21)"/><path class="cls-2" d="M167.56,172.83a62.49,62.49,0,0,0-12.18-4.42.21.21,0,0,0-.11.41,57.21,57.21,0,0,1,11.24,4.76c3,1.62,5.07,4,7.75,5.91a.31.31,0,0,0,.46-.35C173.71,176.07,170.31,174.17,167.56,172.83Z" transform="translate(-20.47 -24.21)"/><path class="cls-2" d="M131.12,230.89c-4-4-8.12-7.1-11.11-12.06a38.42,38.42,0,0,1-5.42-16.57c0-.09-.16-.1-.16,0,.21,10.71,5.81,24.67,16.4,29.12C131.11,231.5,131.31,231.08,131.12,230.89Z" transform="translate(-20.47 -24.21)"/><path class="cls-2" d="M185,189.13c-2.74-7.12-6.65-14.22-13.73-17.76a.09.09,0,1,0-.09.16c6.82,3.86,10.48,11.35,13.05,18.46a28.22,28.22,0,0,1,1.64,12.45c-.46,4.83-2.33,9.26-3.2,14-.07.39.48.69.68.29C187.46,208.28,188.36,197.89,185,189.13Z" transform="translate(-20.47 -24.21)"/><path class="cls-2" d="M180.87,221.62c-1.43,1.35-2.4,3-4,4.23s-3.48,1.9-5.07,3.09c-.16.12,0,.39.15.27,3.13-2.07,8.15-3.23,9.26-7.4A.2.2,0,0,0,180.87,221.62Z" transform="translate(-20.47 -24.21)"/><path class="cls-2" d="M131.11,170.12c-5.06.41-9.27,4.75-11.78,8.86-3.54,5.79-4.48,12.68-5.18,19.31,0,.28.4.27.43,0,.78-6.17,1.76-12.54,4.92-18,2.83-4.91,6.77-7.4,11.72-9.76A.22.22,0,0,0,131.11,170.12Z" transform="translate(-20.47 -24.21)"/><path class="cls-2" d="M154.77,237.24c-1.79-1.81-4.55-1.89-7-1.87-4.6,0-8.92.18-13.11-2.08a.2.2,0,0,0-.2.34c6.22,3.78,13.4,1.8,20,4.13C154.77,237.86,155,237.45,154.77,237.24Z" transform="translate(-20.47 -24.21)"/><path class="cls-2" d="M162,235c-.11-.21-.49-.13-.46.12.28,2.85.47,5.29-1.13,7.84a13.27,13.27,0,0,1-7,5.38.11.11,0,0,0,.06.21C158.89,247.08,165.44,241,162,235Z" transform="translate(-20.47 -24.21)"/><path class="cls-2" d="M108.51,199c-5.91-7.34-19.21-5.21-25.79-.2a21.75,21.75,0,0,0-7.56,10.56c-1.67,5.13-1.15,11.2-4.16,15.86-6.35,9.83-26.69,7.09-31.32-3-5-10.77,2.15-22.13,4.87-32.7a.22.22,0,0,0,.22-.12c2.65-4.75-.77-10.73-5.07-13.19-5.69-3.25-14-2.54-19.21,1.36a.05.05,0,1,0,.06.09c9.38-6.22,26.3-1.83,23.76,11.53-3.07,10.42-10.14,20.65-6.93,31.84C40.22,231,51.77,233.86,61,232.75c4.26-.52,8.37-2.18,11.07-5.64,3.35-4.29,3.49-9.89,4.83-15a20.55,20.55,0,0,1,12.12-14,19.51,19.51,0,0,1,10.4-1c3,.53,5.6,2.06,8.48,2.92A.65.65,0,0,0,108.51,199Z" transform="translate(-20.47 -24.21)"/><path class="cls-2" d="M91.51,204.35c-4.14.51-6.6,4.4-7.93,8.05-2.46,6.77-2,13.87-7.87,19-5.5,4.84-13.16,6-20.25,5.66-8.24-.44-17.25-3.33-20.09-11.89a.22.22,0,0,0-.43.12C38.74,239,57.6,240.84,69,236.93,74.64,235,79.59,231,81.84,225.41c3-7.6,1.71-15.81,9.87-20.34C92,204.9,91.9,204.3,91.51,204.35Z" transform="translate(-20.47 -24.21)"/><path class="cls-2" d="M93.5,210.84c-3,1.5-3.76,5.12-4.33,8.17-1,5.09-2.29,9.63-5.78,13.64-7.82,9-20,11.18-31.38,9.59-.55-.08-.8.77-.23.86,10.06,1.56,21,.44,29.13-6.21a25.71,25.71,0,0,0,7.89-10.76c1.92-5.1,1.31-10.39,5.17-14.67A.39.39,0,0,0,93.5,210.84Z" transform="translate(-20.47 -24.21)"/><path class="cls-2" d="M72.65,199.81c-3.71.35-6.31,3.8-7.2,7.25-1.47,5.68,2.76,12.51-5,15-5.67,1.79-12.55-.7-14.58-6.52-2.18-6.28.58-13.66,1.95-19.83a.08.08,0,0,0-.16-.05c-2.17,6.14-6.14,13.86-4.31,20.57,1.38,5.09,6.34,8.22,11.33,8.87,4.6.61,10.54-.74,12.72-5.3,1.47-3.07.3-6.15.15-9.33-.23-4.59,2.42-6.92,5.47-9.82A.48.48,0,0,0,72.65,199.81Z" transform="translate(-20.47 -24.21)"/><path class="cls-2" d="M104.85,192c-8.32-4.05-21.63-3.77-28.32,3.49a.28.28,0,0,0,.33.44c4.65-2.18,8.71-4.56,13.94-5.11a33,33,0,0,1,13.83,1.69C104.93,192.57,105.13,192.1,104.85,192Z" transform="translate(-20.47 -24.21)"/><path class="cls-2" d="M43.83,175.05c-.13-.08-.23.11-.11.19,5.51,3.78,3.81,9.57,4.51,15.15,0,.21.31.28.38.05C50.24,185.17,48.78,178,43.83,175.05Z" transform="translate(-20.47 -24.21)"/><path class="cls-2" d="M33.27,179.17a.08.08,0,0,0,0,.16c10.62,2.88,3.12,16.42,1,22.69-1.9,5.53-4,13.35-1.06,18.88a.39.39,0,0,0,.72-.2c-.45-5.17-1-9.51.34-14.68,1.16-4.47,3.22-8.58,4.6-13C40.44,187.81,39.72,180.44,33.27,179.17Z" transform="translate(-20.47 -24.21)"/><path class="cls-2" d="M49.29,241.78c-7.3-2.88-14.34-6-17.95-13.45-3.52-7.3-2.88-15.88-1.5-23.62,0-.1-.14-.15-.16,0-2,8.22-3,16.9.89,24.75,3.21,6.45,11.34,12.44,18.65,12.91C49.55,242.35,49.56,241.89,49.29,241.78Z" transform="translate(-20.47 -24.21)"/><path class="cls-2" d="M191.49,199c5.91-7.34,19.21-5.21,25.79-.2a21.75,21.75,0,0,1,7.56,10.56c1.67,5.13,1.15,11.2,4.16,15.86,6.35,9.83,26.69,7.09,31.32-3,5-10.77-2.15-22.13-4.87-32.7a.22.22,0,0,1-.22-.12c-2.65-4.75.77-10.73,5.07-13.19,5.69-3.25,14-2.54,19.21,1.36a.05.05,0,1,1-.06.09c-9.38-6.22-26.3-1.83-23.76,11.53,3.07,10.42,10.14,20.65,6.93,31.84-2.84,9.93-14.39,12.79-23.6,11.68-4.26-.52-8.37-2.18-11.07-5.64-3.35-4.29-3.49-9.89-4.83-15a20.55,20.55,0,0,0-12.12-14,19.51,19.51,0,0,0-10.4-1c-3,.53-5.6,2.06-8.48,2.92A.65.65,0,0,1,191.49,199Z" transform="translate(-20.47 -24.21)"/><path class="cls-2" d="M208.49,204.35c4.14.51,6.6,4.4,7.93,8.05,2.46,6.77,2,13.87,7.87,19,5.5,4.84,13.16,6,20.25,5.66,8.24-.44,17.25-3.33,20.09-11.89a.22.22,0,0,1,.43.12C261.26,239,242.4,240.84,231,236.93c-5.64-1.93-10.59-5.91-12.84-11.52-3-7.6-1.71-15.81-9.87-20.34C208,204.9,208.1,204.3,208.49,204.35Z" transform="translate(-20.47 -24.21)"/><path class="cls-2" d="M206.5,210.84c3,1.5,3.76,5.12,4.33,8.17.95,5.09,2.29,9.63,5.78,13.64,7.82,9,20,11.18,31.38,9.59.55-.08.8.77.23.86-10.06,1.56-21,.44-29.13-6.21a25.71,25.71,0,0,1-7.89-10.76c-1.92-5.1-1.31-10.39-5.17-14.67A.39.39,0,0,1,206.5,210.84Z" transform="translate(-20.47 -24.21)"/><path class="cls-2" d="M227.35,199.81c3.71.35,6.31,3.8,7.2,7.25,1.47,5.68-2.76,12.51,5,15,5.67,1.79,12.55-.7,14.58-6.52,2.18-6.28-.58-13.66-1.95-19.83a.08.08,0,0,1,.16-.05c2.17,6.14,6.14,13.86,4.31,20.57-1.38,5.09-6.34,8.22-11.33,8.87-4.6.61-10.54-.74-12.72-5.3-1.47-3.07-.3-6.15-.15-9.33.23-4.59-2.42-6.92-5.47-9.82A.48.48,0,0,1,227.35,199.81Z" transform="translate(-20.47 -24.21)"/><path class="cls-2" d="M195.15,192c8.32-4.05,21.63-3.77,28.32,3.49a.28.28,0,0,1-.33.44c-4.65-2.18-8.71-4.56-13.94-5.11a33,33,0,0,0-13.83,1.69C195.07,192.57,194.87,192.1,195.15,192Z" transform="translate(-20.47 -24.21)"/><path class="cls-2" d="M256.17,175.05c.13-.08.23.11.11.19-5.51,3.78-3.81,9.57-4.51,15.15,0,.21-.31.28-.38.05C249.76,185.17,251.22,178,256.17,175.05Z" transform="translate(-20.47 -24.21)"/><path class="cls-2" d="M266.73,179.17a.08.08,0,0,1,0,.16c-10.62,2.88-3.12,16.42-1,22.69,1.9,5.53,4,13.35,1.06,18.88a.39.39,0,0,1-.72-.2c.45-5.17,1-9.51-.34-14.68-1.16-4.47-3.22-8.58-4.6-13C259.56,187.81,260.28,180.44,266.73,179.17Z" transform="translate(-20.47 -24.21)"/><path class="cls-2" d="M250.71,241.78c7.3-2.88,14.34-6,18-13.45,3.52-7.3,2.88-15.88,1.5-23.62,0-.1.14-.15.16,0,2,8.22,3,16.9-.89,24.75-3.21,6.45-11.34,12.44-18.65,12.91C250.45,242.35,250.44,241.89,250.71,241.78Z" transform="translate(-20.47 -24.21)"/><path class="cls-2" d="M122.9,240.7c-2.14-1.32-4.59.44-6.75.75-1.28.19-3,0-3.35-1.5s1.3-3.15,2.47-4c.15-.11,0-.35-.14-.25-1.43,1-3.46,2.83-2.6,4.79.78,1.78,3.06,1.72,4.65,1.33a18.56,18.56,0,0,1,3.74-.91,2.51,2.51,0,0,1,2.73,2.57c.06,2.59-2.09,4.74-4.3,5.74a11.58,11.58,0,0,1-8.26.1,23.07,23.07,0,0,1-4-1.78,16.74,16.74,0,0,0-3.67-1.64,9.48,9.48,0,0,0-10.66,5.17c-1.85,4.16.09,10,4.56,11.59.26.09.38-.28.18-.41-3.46-2.38-5.53-7.13-3.39-11.09A8.2,8.2,0,0,1,99,247.25a8.77,8.77,0,0,1,6.74,1c4.32,2.23,9.34,4,14,1.69a8.64,8.64,0,0,0,4.16-4.29C124.59,244,124.57,241.73,122.9,240.7Z" transform="translate(-20.47 -24.21)"/><path class="cls-2" d="M101.29,273.7c-.43-3.5-2.93-5.63-5.76-7.39a19.23,19.23,0,0,1-4.68-3.52A9.73,9.73,0,0,1,88.73,258a10.24,10.24,0,0,1,3.71-9.78c.14-.11,0-.36-.15-.25a10.89,10.89,0,0,0-2.81,14.15c1.61,2.6,4.41,3.91,6.86,5.58a9.82,9.82,0,0,1,3.5,3.71,8.52,8.52,0,0,1,.57,5.13,17.57,17.57,0,0,1-5.17,9.16,22,22,0,0,1-9,5.64,15.37,15.37,0,0,1-10-.14A13.67,13.67,0,0,1,69,285.12c-1.83-3.38-1.9-7.84,1.38-10.32,2.74-2.08,6.22-2.2,9.5-2.4a.19.19,0,0,0,0-.38,13.14,13.14,0,0,0-8.81,1.2,7.89,7.89,0,0,0-4.38,7.68c.46,6.72,6.85,11.52,13.21,12.09,7.2.65,14.25-3.81,18.33-9.49C100.23,280.73,101.72,277.18,101.29,273.7Z" transform="translate(-20.47 -24.21)"/><path class="cls-2" d="M90.09,294.26c-1.69.24-3.35.88-5,1.15a23.11,23.11,0,0,1-5.05.27,18.15,18.15,0,0,1-8.87-2.86c-5.19-3.37-8.15-10-5.88-16,0-.05-.06-.08-.08,0a13,13,0,0,0,2,13.56,18.19,18.19,0,0,0,13.6,6.11,24.52,24.52,0,0,0,4.76-.37,14.19,14.19,0,0,0,4.7-1.44A.2.2,0,0,0,90.09,294.26Z" transform="translate(-20.47 -24.21)"/><path class="cls-2" d="M105.58,271.45a14.58,14.58,0,0,0-5-6.35.23.23,0,0,0-.31.31c.86,1.24,1.93,2.32,2.81,3.55a13.4,13.4,0,0,1,2,4c.92,3.11,0,6.11-1.43,8.92a26.44,26.44,0,0,1-11.28,11.34c-.12.07,0,.25.12.19a27,27,0,0,0,10.19-8.44,22.59,22.59,0,0,0,3.37-6.36A10.29,10.29,0,0,0,105.58,271.45Z" transform="translate(-20.47 -24.21)"/><path class="cls-2" d="M104.65,263.84c-2-2.15-4.38-3.89-6.28-6.11s-3-6.06.32-7.61a8.71,8.71,0,0,1,8.51,1.21c.07,0,.16-.07.09-.12a9.11,9.11,0,0,0-5.93-2.21c-2,0-4.27.8-5.08,2.76-2,4.68,3.91,8.57,6.69,11.29a19.63,19.63,0,0,1,5,7.63c.06.18.36.17.35,0C108.1,268,106.39,265.71,104.65,263.84Z" transform="translate(-20.47 -24.21)"/><path class="cls-2" d="M94.61,270c-.16-.14-.45,0-.31.24A9.63,9.63,0,0,1,95.53,279a12.86,12.86,0,0,1-5.64,6.57c-4.62,2.72-11.11,2.93-15.44-.51a8.43,8.43,0,0,1-2.72-3.68,4.65,4.65,0,0,1-.33-2.55,3.71,3.71,0,0,1,1.95-2.13.12.12,0,0,0-.12-.21c-1.35.71-2.37,1.53-2.41,3.16a6.85,6.85,0,0,0,1.39,4.1,12,12,0,0,0,7.63,4.52c6.28,1.13,13.23-2,16-7.85C97.4,277.17,97.59,272.49,94.61,270Z" transform="translate(-20.47 -24.21)"/><path class="cls-2" d="M90.23,275.23c-1.12-2-4-2.32-5.85-1.31-1.26.67-1.19,2-.72,3.15.32.76.66,1.54,0,2.26a1.69,1.69,0,0,1-2.13.23.38.38,0,0,0-.46.59,2.38,2.38,0,0,0,4-1.45c.15-1.11-.68-1.93-.72-3s1.89-1.26,2.73-1.21c2.45.14,3.16,2.58,2.71,4.66-.58,2.7-3.1,3.81-5.62,4.08s-6-.07-7.06-2.67c0-.08-.16,0-.13,0,.71,2.11,3.19,2.9,5.19,3.13,2.38.27,5.53-.23,7.19-2.12A6,6,0,0,0,90.23,275.23Z" transform="translate(-20.47 -24.21)"/><path class="cls-2" d="M114.1,243c-.37-.12-.76-.13-1.15-.23a4,4,0,0,1-1.12-.48,2.8,2.8,0,0,1-1.31-1.82c-.32-1.78,1.15-3.21,2.31-4.32,0-.05,0-.13-.08-.08-1.35,1.15-2.94,2.65-2.59,4.62a3.11,3.11,0,0,0,1.33,2,3.4,3.4,0,0,0,2.61.61A.15.15,0,0,0,114.1,243Z" transform="translate(-20.47 -24.21)"/><path class="cls-2" d="M120.45,243.75c-.06-.05-.14.05-.08.1a1.88,1.88,0,0,1,.29,2.5,4,4,0,0,1-2.44,1.43,10.53,10.53,0,0,1-5.58-.54c-3-1-6.23-3.29-9.56-2.9-.14,0-.2.23,0,.26a34.67,34.67,0,0,1,6.51,2.13,19.62,19.62,0,0,0,6.12,1.85c1.71.14,3.88-.28,5-1.7A2.15,2.15,0,0,0,120.45,243.75Z" transform="translate(-20.47 -24.21)"/><path class="cls-2" d="M125.64,244.16a16.49,16.49,0,0,1-1.7,4.82,10.57,10.57,0,0,1-3.3,4c-3.09,1.94-6.66.4-9.92,0-.2,0-.28.3-.1.39,3.07,1.53,7.31,2.11,10.31.08s4.35-6,4.8-9.3C125.74,244.13,125.65,244.1,125.64,244.16Z" transform="translate(-20.47 -24.21)"/><path class="cls-2" d="M108.61,275.19a.38.38,0,0,0-.76,0c-.17,1.6-.24,3.19-.56,4.77a24.69,24.69,0,0,1-1.27,4.3,23.49,23.49,0,0,1-5.08,7.73,22.72,22.72,0,0,1-7.51,5,26.07,26.07,0,0,1-9.21,1.72c-3.74.1-7.63,0-11.15-1.41-.18-.07-.3.23-.13.31a22.71,22.71,0,0,0,9.85,2,29.25,29.25,0,0,0,10.1-1.39,23.59,23.59,0,0,0,13.55-12.38C107.9,282.68,109,278.75,108.61,275.19Z" transform="translate(-20.47 -24.21)"/><path class="cls-2" d="M117.41,232.27a1.42,1.42,0,0,0,0,2.83A1.42,1.42,0,0,0,117.41,232.27Z" transform="translate(-20.47 -24.21)"/><path class="cls-2" d="M176.51,240.7c2.14-1.32,4.59.44,6.74.75,1.28.19,3,0,3.35-1.5s-1.29-3.15-2.47-4c-.15-.11,0-.35.14-.25,1.44,1,3.46,2.83,2.6,4.79-.77,1.78-3.06,1.72-4.65,1.33a18.56,18.56,0,0,0-3.74-.91,2.51,2.51,0,0,0-2.73,2.57c-.06,2.59,2.09,4.74,4.3,5.74a11.58,11.58,0,0,0,8.26.1,23.07,23.07,0,0,0,4-1.78,16.61,16.61,0,0,1,3.68-1.64,9.46,9.46,0,0,1,10.65,5.17c1.85,4.16-.08,10-4.56,11.59-.26.09-.37-.28-.17-.41,3.45-2.38,5.52-7.13,3.39-11.09a8.26,8.26,0,0,0-4.94-3.89,8.79,8.79,0,0,0-6.75,1c-4.32,2.23-9.33,4-14,1.69a8.56,8.56,0,0,1-4.16-4.29C174.82,244,174.84,241.73,176.51,240.7Z" transform="translate(-20.47 -24.21)"/><path class="cls-2" d="M198.11,273.7c.43-3.5,2.94-5.63,5.76-7.39a19.23,19.23,0,0,0,4.68-3.52,9.73,9.73,0,0,0,2.12-4.75,10.25,10.25,0,0,0-3.7-9.78c-.15-.11,0-.36.14-.25a10.88,10.88,0,0,1,2.81,14.15c-1.61,2.6-4.41,3.91-6.85,5.58a9.84,9.84,0,0,0-3.51,3.71,8.52,8.52,0,0,0-.57,5.13,17.64,17.64,0,0,0,5.17,9.16,22,22,0,0,0,9,5.64,15.4,15.4,0,0,0,10-.14,13.69,13.69,0,0,0,7.27-6.12c1.83-3.38,1.91-7.84-1.38-10.32-2.74-2.08-6.22-2.2-9.5-2.4a.19.19,0,0,1-.05-.38,13.14,13.14,0,0,1,8.81,1.2,7.89,7.89,0,0,1,4.38,7.68c-.46,6.72-6.85,11.52-13.21,12.09-7.2.65-14.25-3.81-18.33-9.49C199.17,280.73,197.69,277.18,198.11,273.7Z" transform="translate(-20.47 -24.21)"/><path class="cls-2" d="M209.31,294.26c1.7.24,3.35.88,5.06,1.15a23,23,0,0,0,5,.27,18.22,18.22,0,0,0,8.87-2.86c5.18-3.37,8.15-10,5.87-16,0-.05.07-.08.09,0a13,13,0,0,1-2,13.56,18.22,18.22,0,0,1-13.61,6.11,24.52,24.52,0,0,1-4.76-.37,14.21,14.21,0,0,1-4.69-1.44A.2.2,0,0,1,209.31,294.26Z" transform="translate(-20.47 -24.21)"/><path class="cls-2" d="M193.82,271.45a14.53,14.53,0,0,1,5-6.35.22.22,0,0,1,.3.31c-.86,1.24-1.93,2.32-2.81,3.55a13.65,13.65,0,0,0-2,4c-.92,3.11,0,6.11,1.43,8.92A26.5,26.5,0,0,0,207,293.18c.13.07,0,.25-.11.19a27,27,0,0,1-10.19-8.44,22.36,22.36,0,0,1-3.38-6.36A10.34,10.34,0,0,1,193.82,271.45Z" transform="translate(-20.47 -24.21)"/><path class="cls-2" d="M194.75,263.84c2-2.15,4.39-3.89,6.29-6.11s3-6.06-.33-7.61a8.69,8.69,0,0,0-8.5,1.21c-.07,0-.16-.07-.1-.12a9.14,9.14,0,0,1,5.94-2.21c2,0,4.26.8,5.08,2.76,2,4.68-3.91,8.57-6.69,11.29a19.52,19.52,0,0,0-5,7.63c-.07.18-.37.17-.35,0C191.31,268,193,265.71,194.75,263.84Z" transform="translate(-20.47 -24.21)"/><path class="cls-2" d="M204.79,270c.17-.14.45,0,.32.24a9.57,9.57,0,0,0-1.23,8.68,12.84,12.84,0,0,0,5.63,6.57c4.62,2.72,11.11,2.93,15.44-.51a8.43,8.43,0,0,0,2.72-3.68,4.65,4.65,0,0,0,.33-2.55,3.68,3.68,0,0,0-1.95-2.13.12.12,0,0,1,.13-.21c1.34.71,2.37,1.53,2.41,3.16a6.86,6.86,0,0,1-1.4,4.1,12,12,0,0,1-7.62,4.52c-6.29,1.13-13.23-2-16-7.85C202,277.17,201.81,272.49,204.79,270Z" transform="translate(-20.47 -24.21)"/><path class="cls-2" d="M209.18,275.23c1.12-2,3.94-2.32,5.84-1.31,1.27.67,1.2,2,.72,3.15-.31.76-.66,1.54-.05,2.26a1.69,1.69,0,0,0,2.13.23.38.38,0,0,1,.46.59,2.38,2.38,0,0,1-4-1.45c-.16-1.11.67-1.93.71-3s-1.89-1.26-2.73-1.21c-2.44.14-3.15,2.58-2.7,4.66.58,2.7,3.09,3.81,5.62,4.08,2.37.25,6-.07,7-2.67,0-.08.16,0,.13,0-.71,2.11-3.19,2.9-5.19,3.13-2.37.27-5.53-.23-7.19-2.12A6,6,0,0,1,209.18,275.23Z" transform="translate(-20.47 -24.21)"/><path class="cls-2" d="M185.3,243c.38-.12.77-.13,1.15-.23a3.72,3.72,0,0,0,1.12-.48,2.82,2.82,0,0,0,1.32-1.82c.31-1.78-1.15-3.21-2.32-4.32,0-.05,0-.13.08-.08,1.35,1.15,2.95,2.65,2.6,4.62a3.14,3.14,0,0,1-1.33,2,3.44,3.44,0,0,1-2.62.61A.15.15,0,0,1,185.3,243Z" transform="translate(-20.47 -24.21)"/><path class="cls-2" d="M179,243.75c.06-.05.14.05.08.1a1.87,1.87,0,0,0-.28,2.5,3.91,3.91,0,0,0,2.43,1.43,10.57,10.57,0,0,0,5.59-.54c3-1,6.22-3.29,9.56-2.9.13,0,.19.23,0,.26a34.91,34.91,0,0,0-6.51,2.13,19.64,19.64,0,0,1-6.11,1.85c-1.72.14-3.89-.28-5-1.7A2.15,2.15,0,0,1,179,243.75Z" transform="translate(-20.47 -24.21)"/><path class="cls-2" d="M173.76,244.16a16.51,16.51,0,0,0,1.71,4.82,10.45,10.45,0,0,0,3.29,4c3.09,1.94,6.66.4,9.92,0,.21,0,.29.3.11.39-3.08,1.53-7.32,2.11-10.31.08s-4.35-6-4.81-9.3C173.67,244.13,173.75,244.1,173.76,244.16Z" transform="translate(-20.47 -24.21)"/><path class="cls-2" d="M190.8,275.19a.38.38,0,0,1,.76,0c.17,1.6.23,3.19.55,4.77a23.88,23.88,0,0,0,1.28,4.3,23.31,23.31,0,0,0,5.07,7.73,22.77,22.77,0,0,0,7.52,5,26,26,0,0,0,9.2,1.72c3.74.1,7.63,0,11.16-1.41.17-.07.29.23.12.31a22.68,22.68,0,0,1-9.85,2,29.25,29.25,0,0,1-10.1-1.39A23.65,23.65,0,0,1,193,285.89C191.5,282.68,190.38,278.75,190.8,275.19Z" transform="translate(-20.47 -24.21)"/><path class="cls-2" d="M182,232.27a1.42,1.42,0,0,1,0,2.83A1.42,1.42,0,0,1,182,232.27Z" transform="translate(-20.47 -24.21)"/><path class="cls-1" d="M162.43,41.54c-.9-6.49-8.61-9-14.31-8.4-.73.08-1,1.16-.19,1.37,4.34,1.06,10.65,1,12.25,6.26a8.11,8.11,0,0,1-1.63,7.33A12,12,0,0,1,151.28,52a23.74,23.74,0,0,1-9.84-.76,21.89,21.89,0,0,1-7.33-2.86,6.91,6.91,0,0,1-3-6.68,11,11,0,0,1,4.39-7.12c2.48-2,5.41-3,8.25-4.3,2.35-1.09,4.63-3.16,4.64-5.94a.13.13,0,0,0-.25,0c-.26,4.15-5.14,5-8.27,6.19a20,20,0,0,0-7.63,4.63A11.31,11.31,0,0,0,129,43.09a8.91,8.91,0,0,0,4,7.07,25.08,25.08,0,0,0,8.46,3.23,24.67,24.67,0,0,0,10.67.55C158,52.77,163.32,47.91,162.43,41.54Z" transform="translate(-20.47 -24.21)"/><path class="cls-2" d="M152.14,263.3c-3.58-.52-7.11.93-10.51-.89a9.26,9.26,0,0,1-4.73-9.3c0-.05-.08-.06-.09,0a9.13,9.13,0,0,0,8.69,11c2.69.12,7.92-1.48,9.55,1.61,1.08,2.06-.65,3.68-2.37,4.49s-3.35,1.45-5,2.26a.28.28,0,0,0-.09.1,11.33,11.33,0,0,0-5.92,9.27,23.27,23.27,0,0,0,1.29,7.7c.81,2.78,1.4,5.57,2.07,8.39a.16.16,0,0,0,.32-.05c.07-5-2.51-9.62-2.73-14.59a11.46,11.46,0,0,1,6.3-10.74.22.22,0,0,0,.1-.09c1.34-.52,2.66-1.09,4-1.7a5.09,5.09,0,0,0,2.73-2.39C156.84,265.68,154.57,263.66,152.14,263.3Z" transform="translate(-20.47 -24.21)"/><path class="cls-2" d="M154.62,277.48c-2.54,1.29-3.36,4.13-3.39,6.8,0,3.61.64,7.27.92,10.87a29.92,29.92,0,0,1-.74,10.71c-1,3.29-3.06,6.09-4.09,9.35a14,14,0,0,0,.81,10.53c.05.1.23,0,.19-.09a16.24,16.24,0,0,1,.57-12.59c.81-1.71,1.78-3.34,2.51-5.09a21.86,21.86,0,0,0,1.48-5.81,50.84,50.84,0,0,0-.54-12.44c-.48-3.89-1.82-9.7,2.36-12.1A.08.08,0,0,0,154.62,277.48Z" transform="translate(-20.47 -24.21)"/><path class="cls-2" d="M168.69,170a16,16,0,0,0-3.3-1.33c-1.3-.45-2.62-.87-3.94-1.26a62.35,62.35,0,0,0-7.88-1.78c-.14,0-.21.19-.06.23,2.53.63,5.07,1.31,7.57,2.06,1.18.35,2.36.73,3.53,1.14a27.71,27.71,0,0,0,3.91,1.33A.22.22,0,0,0,168.69,170Z" transform="translate(-20.47 -24.21)"/></svg>