<svg xmlns="http://www.w3.org/2000/svg" viewBox="0 0 20 20"><defs><style>.cls-1{fill:#15ed95;}.cls-2{fill:#011422;}</style></defs><g id="Layer_2" data-name="Layer 2"><g id="Layer_1-2" data-name="Layer 1"><rect class="cls-1" width="20" height="20" rx="5"/><path class="cls-2" d="M9.59,7.13h0L9.4,6.79,7,2.4l-.5-.91-.06-.12H6.12l-.06.13-.5.9-.06.11h0l.57,1L4.27,6.79l-.18.34h0V10L5.62,8.48V7.13h0L5.68,7,6.84,4.92v0L8,7l.07.12-4,4v1.74H5.31V11.41l.54-.55,2,1.94.06.07L8,16.73a2,2,0,0,1-1.46.68,4,4,0,0,1-1.2-.18V16H4.09v1.9l.09.07a3.75,3.75,0,0,0,1,.51,4.42,4.42,0,0,0,1.31.2,4.15,4.15,0,0,0,2-.51,3.37,3.37,0,0,0,1-.88l0-.06V12.87h0l-.39-.39L6.72,10,9.2,7.52Z"/><path class="cls-2" d="M13.66,13V7.44a2.6,2.6,0,0,0,1.12-.51,2.43,2.43,0,0,0,.38-.34,1.79,1.79,0,0,0,.48-1.23V1.77H14.42V4.91A1.38,1.38,0,0,1,13.1,6.29H13a1.38,1.38,0,0,1-1.31-1.38V1.77H10.47V5.35a1.84,1.84,0,0,0,.47,1.24,4,4,0,0,0,.38.34,2.84,2.84,0,0,0,1.12.51V13a2.86,2.86,0,1,0,1.22,0Zm-.61,4.46a1.67,1.67,0,1,1,1.67-1.67A1.66,1.66,0,0,1,13.05,17.42Z"/></g></g></svg>