<svg xmlns="http://www.w3.org/2000/svg" viewBox="0 0 20 20"><defs><style>.cls-1{fill:#15ed95;}</style></defs><g id="Layer_2" data-name="Layer 2"><g id="Layer_1-2" data-name="Layer 1"><path class="cls-1" d="M15,0H5A5,5,0,0,0,0,5V15a5,5,0,0,0,5,5H8.32V12.12H5.94V9.32H8.33V9.07c0-.74,0-1.49,0-2.23a3.38,3.38,0,0,1,1.16-2.5,3.26,3.26,0,0,1,2.06-.77c.78,0,1.57,0,2.36.08a.17.17,0,0,1,.13.13c0,.78,0,1.56,0,2.37h-.22c-.52,0-1,0-1.56,0a1,1,0,0,0-.92.52,1.36,1.36,0,0,0-.14.56c0,.67,0,1.34,0,2H14c-.13.94-.24,1.86-.36,2.79h-2.4V20H15a5,5,0,0,0,5-5V5A5,5,0,0,0,15,0Z"/></g></g></svg>