<svg xmlns="http://www.w3.org/2000/svg" viewBox="0 0 20 20"><defs><style>.cls-1{fill:#15ed95;}</style></defs><g id="Layer_2" data-name="Layer 2"><g id="Layer_1-2" data-name="Layer 1"><path class="cls-1" d="M15,0H5A5,5,0,0,0,0,5V15a5,5,0,0,0,5,5H15a5,5,0,0,0,5-5V5A5,5,0,0,0,15,0ZM7.5,15.69a3.12,3.12,0,0,1-2.66-1.36A3.34,3.34,0,0,1,4.3,12.5c0-1.67,0-3.33,0-5A3.08,3.08,0,0,1,5.67,4.85,3.43,3.43,0,0,1,7.53,4.3c.82,0,1.64,0,2.46,0V4.23c.94,0,1.9,0,2.84.11a3,3,0,0,1,2.82,2.81,12.09,12.09,0,0,1,.07,1.21c0,1.36,0,2.73,0,4.1a3.23,3.23,0,0,1-1,2.38,3.18,3.18,0,0,1-2.21.85C10.83,15.72,9.16,15.73,7.5,15.69Z"/><path class="cls-1" d="M12.6,5.36c-1.64-.05-3.28,0-4.92,0a2.61,2.61,0,0,0-1.26.28A2,2,0,0,0,5.35,7.36c0,.88-.06,1.76-.08,2.62s0,1.75.08,2.61A2,2,0,0,0,7.4,14.64c1.74,0,3.47,0,5.21,0a2,2,0,0,0,2-2c0-1.74,0-3.48,0-5.21A2,2,0,0,0,12.6,5.36ZM10,13A3,3,0,1,1,12.94,10,2.94,2.94,0,0,1,10,13Zm3.06-5.33a.69.69,0,1,1,.69-.68A.68.68,0,0,1,13.06,7.62Z"/><path class="cls-1" d="M10,8.08A1.92,1.92,0,1,0,11.91,10,1.93,1.93,0,0,0,10,8.08Z"/></g></g></svg>