<svg xmlns="http://www.w3.org/2000/svg" viewBox="0 0 20 20"><defs><style>.cls-1{fill:#15ed95;}</style></defs><g id="Layer_2" data-name="Layer 2"><g id="Layer_1-2" data-name="Layer 1"><path class="cls-1" d="M0,5V5Z"/><path class="cls-1" d="M15,0H5A5,5,0,0,0,0,5V15a5,5,0,0,0,5,5H15a5,5,0,0,0,5-5V5A5,5,0,0,0,15,0Zm1.61,17H12.93a.3.3,0,0,1-.28-.15q-1.72-2.53-3.47-5c0-.07-.09-.13-.14-.21L7.9,12.88l-3.42,4A.25.25,0,0,1,4.3,17H3.19l.95-1.12L8.36,11a.25.25,0,0,0,0-.36Q5.86,6.93,3.34,3.26L3.2,3H7a.33.33,0,0,1,.32.16L10.63,8l.13.19.52-.6,3.77-4.38a.33.33,0,0,1,.3-.14c.32,0,.64,0,1,0L11.3,8.93c1.83,2.66,3.66,5.32,5.51,8Z"/><path class="cls-1" d="M6.51,3.94H4.84L5,4.14l4.68,6.7q1.78,2.57,3.57,5.1c0,.07.13.15.2.15.57,0,1.13,0,1.74,0l-.1-.15L6.77,4.07A.27.27,0,0,0,6.51,3.94Z"/></g></g></svg>