<svg xmlns="http://www.w3.org/2000/svg" viewBox="0 0 20 20"><defs><style>.cls-1{fill:#15ed95;}.cls-2{fill:#011422;}</style></defs><g id="Layer_2" data-name="Layer 2"><g id="Layer_1-2" data-name="Layer 1"><rect class="cls-1" width="20" height="20" rx="5"/><path class="cls-2" d="M10,18.38h0a.76.76,0,0,1,0-1.22l.64-.53a.14.14,0,0,1,.19,0l.64.53a.77.77,0,0,1,0,1.22h0A1.19,1.19,0,0,1,10,18.38Z"/><path class="cls-2" d="M12.88,7a2.26,2.26,0,0,0-.11-.43,2.87,2.87,0,0,0-.18-.4A3,3,0,0,0,12,5.5,3.41,3.41,0,0,0,11.31,5a4,4,0,0,0-1.76-.44A3.66,3.66,0,0,0,7.82,5a4,4,0,0,0-.65.46A4,4,0,0,0,6.69,6a4.48,4.48,0,0,0-.36.57,2.64,2.64,0,0,0-.15.29l-.12.29c0,.1-.07.19-.1.29l-.09.3A2.46,2.46,0,0,0,5.8,8l-.06.3a6,6,0,0,0-.07,1.2q0,.3.06.6c0,.2.07.39.11.58a8.11,8.11,0,0,0,.93,2.21,12.4,12.4,0,0,0,1.45,2c.27.31.57.61.86.9s.31.29.47.43.31.27.48.41h0a.23.23,0,0,0,.28,0,.15.15,0,0,0,0-.23h0L9.82,16l-.45-.42c-.29-.28-.56-.58-.82-.88a10.51,10.51,0,0,1-1.3-1.95,6.67,6.67,0,0,1-.69-2.12,4.88,4.88,0,0,1,0-1.08A5,5,0,0,1,6.58,9c0-.17.08-.35.13-.52a2.41,2.41,0,0,1,.08-.25A2.77,2.77,0,0,1,6.89,8,2.72,2.72,0,0,1,7,7.7c0-.08.08-.16.12-.24l.13-.24L7.4,7a3.36,3.36,0,0,1,.34-.41A2.45,2.45,0,0,1,8.56,6a1.81,1.81,0,0,1,.88-.1,1.79,1.79,0,0,1,.77.33,1.16,1.16,0,0,1,.41.58.61.61,0,0,1,0,.27.49.49,0,0,1-.1.22,1.29,1.29,0,0,1-.2.21,2.81,2.81,0,0,1-.31.19A1.19,1.19,0,0,0,9.68,8a1,1,0,0,0,.11,1.63,1.59,1.59,0,0,0,2-.09l.11-.1a4.17,4.17,0,0,0,.58-.67,2.55,2.55,0,0,0,.38-.82A2.1,2.1,0,0,0,12.88,7Z"/><path class="cls-2" d="M11.07,16.37c.23-.21.46-.44.68-.66s.44-.46.65-.7a17.54,17.54,0,0,0,1.15-1.46,12,12,0,0,0,1.64-3.2A7.18,7.18,0,0,0,15.5,7a5.93,5.93,0,0,0-.21-.83c0-.14-.09-.28-.14-.41S15,5.44,15,5.31s-.13-.26-.2-.39a3,3,0,0,0-.23-.38,5,5,0,0,0-.53-.7,5,5,0,0,0-1.44-1.09,5.39,5.39,0,0,0-1.82-.53A6.09,6.09,0,0,0,7.08,3,4.65,4.65,0,0,0,5.75,4.15,3.83,3.83,0,0,0,5,5.62a3.92,3.92,0,0,0-.08,1.6A5.88,5.88,0,0,0,5.12,8a7.38,7.38,0,0,0,.3.78v0a.5.5,0,0,1-.38.67.68.68,0,0,1-.81-.31h0a7.56,7.56,0,0,1-.32-.91,6,6,0,0,1-.19-.94,6.16,6.16,0,0,1,0-1,4.39,4.39,0,0,1,.17-1,4.93,4.93,0,0,1,.94-1.78A6.28,6.28,0,0,1,6.47,2.27,7.37,7.37,0,0,1,8.59,1.5a7.45,7.45,0,0,1,2.31-.07,6.63,6.63,0,0,1,2.16.67,5.69,5.69,0,0,1,1.65,1.32,5,5,0,0,1,.59.8,4.36,4.36,0,0,1,.23.42c.07.15.15.29.21.43s.11.3.17.44.1.3.14.45a7.36,7.36,0,0,1,.19.91,7.57,7.57,0,0,1-.44,3.62A12.65,12.65,0,0,1,14,13.76a17.23,17.23,0,0,1-1.23,1.48c-.22.23-.45.47-.68.69s-.47.45-.73.67a.24.24,0,0,1-.28,0,.15.15,0,0,1,0-.23Z"/><path class="cls-2" d="M10.3,16.36h0L9.82,16l-.45-.42c-.29-.28-.56-.58-.82-.88a10.51,10.51,0,0,1-1.3-1.95,6.92,6.92,0,0,1-.7-2.16h0a.34.34,0,0,0-.36-.27.33.33,0,0,0-.37.28s0,0,0,0h0v0a8.45,8.45,0,0,0,.94,2.26,12.4,12.4,0,0,0,1.45,2c.27.31.57.61.86.9s.31.29.47.43.31.27.48.41h0a.23.23,0,0,0,.28,0A.15.15,0,0,0,10.3,16.36Z"/></g></g></svg>